<svg xmlns="http://www.w3.org/2000/svg" xmlns:xlink="http://www.w3.org/1999/xlink" viewBox="0 0 1257.64 233.51" aria-hidden="true" focusable="false">
  <image width="5374" height="5630" transform="scale(.04)" xlink:href="/assets/client-logos/dodo-long-3d-rgb-opt.png"/>
  <path d="M1200.39,91.51h-28.96c0-10.71,3.63-18.75,10.88-24.1,7.26-5.36,18.19-8.03,32.81-8.03s24.94,2.57,31.97,7.7c7.03,5.13,10.55,12.95,10.55,23.44v62.94h-30.13v-15.74c-2.79,5.91-6.47,10.38-11.05,13.39-4.46,2.9-9.88,4.35-16.24,4.35-10.15,0-17.91-2.46-23.26-7.37-5.25-5.02-7.87-12.33-7.87-21.93,0-10.27,3.12-17.74,9.37-22.43,6.25-4.69,16.24-7.03,29.97-7.03h19.08v-6.19c0-3.46-1.06-5.97-3.18-7.53-2.12-1.56-5.58-2.34-10.38-2.34s-8.43.84-10.55,2.51c-2,1.67-3.01,4.46-3.01,8.37ZM1199.22,124.66c0,3.01.78,5.19,2.34,6.53,1.57,1.34,4.13,2.01,7.7,2.01,5.14,0,9.43-1.56,12.89-4.69,3.57-3.24,5.36-7.09,5.36-11.55v-1.34h-19.08c-3.35,0-5.75.73-7.2,2.18-1.34,1.34-2.01,3.63-2.01,6.86ZM1134.16,153.45h-66.96V61.38h30.97v66.96h23.44V61.38h30.96v66.96h10.05v46.03h-28.46v-20.92ZM1027.09,153.45h-66.96V61.38h30.97v66.96h23.43V61.38h30.97v66.96h10.05v46.03h-28.46v-20.92ZM939.99,153.45h-28.96v-56.24l-25.28,56.24h-35.15V61.38h28.96v56.41l25.28-56.41h35.15v92.07ZM773.84,153.45h-30.97V61.38h87.72v92.07h-30.97v-66.96h-25.78v66.96ZM694.67,107.42c0,15.62-4.13,27.56-12.39,35.82-8.26,8.15-20.26,12.22-35.99,12.22s-27.73-4.07-35.99-12.22c-8.15-8.26-12.22-20.2-12.22-35.82s4.07-27.51,12.22-35.65c8.26-8.26,20.26-12.39,35.99-12.39s27.73,4.13,35.99,12.39c8.26,8.15,12.39,20.03,12.39,35.65ZM629.88,107.42c0,8.59,1.23,14.73,3.68,18.41,2.57,3.57,6.81,5.36,12.72,5.36s10.16-1.84,12.72-5.52c2.57-3.68,3.85-9.76,3.85-18.25s-1.28-14.56-3.85-18.25c-2.57-3.68-6.81-5.52-12.72-5.52s-10.15,1.84-12.72,5.52c-2.46,3.57-3.68,9.65-3.68,18.25ZM515.45,174.37h-27.62v-46.03h9.04c2.9-3.12,4.8-7.59,5.69-13.39,1.01-5.8,1.51-16.96,1.51-33.48v-20.09h77.5v66.96h9.71v46.03h-27.62v-20.92h-48.21v20.92ZM526.16,128.34h26.95v-42.85h-21.43c0,14.17-.39,23.94-1.17,29.29-.78,5.24-2.23,9.76-4.35,13.56ZM482.48,107.42c0,15.62-4.13,27.56-12.39,35.82-8.26,8.15-20.26,12.22-35.99,12.22s-27.73-4.07-35.99-12.22c-8.15-8.26-12.22-20.2-12.22-35.82s4.07-27.51,12.22-35.65c8.26-8.26,20.26-12.39,35.99-12.39s27.73,4.13,35.99,12.39c8.26,8.15,12.39,20.03,12.39,35.65ZM417.7,107.42c0,8.59,1.23,14.73,3.68,18.41,2.57,3.57,6.81,5.36,12.72,5.36s10.15-1.84,12.72-5.52c2.57-3.68,3.85-9.76,3.85-18.25s-1.28-14.56-3.85-18.25c-2.57-3.68-6.81-5.52-12.72-5.52s-10.15,1.84-12.72,5.52c-2.46,3.57-3.68,9.65-3.68,18.25ZM303.26,174.37h-27.62v-46.03h9.04c2.9-3.12,4.8-7.59,5.69-13.39,1-5.8,1.51-16.96,1.51-33.48v-20.09h77.5v66.96h9.71v46.03h-27.62v-20.92h-48.21v20.92ZM313.97,128.34h26.95v-42.85h-21.43c0,14.17-.39,23.94-1.17,29.29-.78,5.24-2.23,9.76-4.35,13.56Z"/>
</svg>
