<?xml version="1.0" encoding="UTF-8"?>
<svg id="Layer_1" data-name="Layer 1" xmlns="http://www.w3.org/2000/svg" viewBox="0 0 196.489 196.489">
  <defs>
    <style>
      .cls-1 {
        fill: #ff6a69;
      }

      .cls-1, .cls-2 {
        stroke-width: 0px;
      }

      .cls-2 {
        fill: #e6e4e4;
      }
    </style>
  </defs>
  <polygon class="cls-1" points="196.489 171.029 -1.364 171.029 196.489 104.662 196.489 171.029"/>
  <g>
    <path class="cls-2" d="M35.683,57.442h17.47v4.397h-12.593v6.437h5.438c5.117,0,8.755,2.239,8.755,8.116,0,5.557-3.198,8.235-8.755,8.235h-10.314v-27.185ZM49.915,76.432c0-2.719-1.479-3.958-4.198-3.958h-5.157v7.916h5.157c2.719,0,4.198-1.199,4.198-3.958Z"/>
    <path class="cls-2" d="M58.829,79.27c0-4.038,2.838-5.677,7.316-5.917,1.839-.12,3.598-.04,4.997,0v-1.399c0-2.319-1.239-3.438-3.358-3.438-2.319,0-3.558,1.319-4.038,3.079l-4.238-.76c.759-3.678,3.678-5.957,8.275-5.957,4.677,0,7.795,2.039,7.795,6.996v12.753h-4.277v-2.199c-1.199,1.639-3.238,2.599-5.757,2.599-3.958,0-6.716-2.079-6.716-5.757ZM71.142,77.911v-1.479c-1.279-.04-2.878-.04-4.357.04-2.119.08-3.398.879-3.398,2.479,0,1.559,1.199,2.559,3.118,2.559,2.678,0,4.637-1.439,4.637-3.598Z"/>
    <path class="cls-2" d="M79.616,78.71l4.238-.759c.44,1.999,1.879,3.438,4.677,3.438,2.679,0,3.998-1.04,3.998-2.639,0-1.479-.959-2.239-3.318-2.239h-3.238v-3.318h3.198c2.159,0,2.999-.84,2.999-2.239,0-1.479-1.04-2.399-3.438-2.399-2.759,0-4.238,1.399-4.797,3.358l-4.158-.76c.839-3.958,4.118-6.276,8.955-6.276,4.917,0,7.835,1.999,7.835,5.597,0,1.999-.959,3.558-2.838,4.238,2.079.6,3.278,2.079,3.278,4.397,0,3.678-3.078,5.917-8.476,5.917-5.117,0-8.195-2.199-8.915-6.317Z"/>
    <path class="cls-2" d="M100.844,79.27c0-4.038,2.838-5.677,7.316-5.917,1.839-.12,3.598-.04,4.997,0v-1.399c0-2.319-1.239-3.438-3.358-3.438-2.319,0-3.558,1.319-4.038,3.079l-4.237-.76c.759-3.678,3.678-5.957,8.275-5.957,4.677,0,7.796,2.039,7.796,6.996v12.753h-4.278v-2.199c-1.199,1.639-3.238,2.599-5.757,2.599-3.958,0-6.716-2.079-6.716-5.757ZM113.157,77.911v-1.479c-1.279-.04-2.878-.04-4.357.04-2.119.08-3.398.879-3.398,2.479,0,1.559,1.199,2.559,3.118,2.559,2.679,0,4.637-1.439,4.637-3.598Z"/>
    <path class="cls-2" d="M70.502,118.129h1.999c1.519-1.519,2.438-4.837,2.559-8.515.16-3.878.16-9.035.16-14.192h16.911v22.708h2.918v10.194h-4.677v-5.717h-15.152v5.717h-4.717v-10.194ZM87.253,118.129v-18.23h-7.476c0,2.798-.08,6.836-.24,10.114-.12,3.158-.6,5.917-1.959,8.116h9.675Z"/>
    <path class="cls-2" d="M99.046,95.421h4.877v11.234h3.238l6.396-11.234h5.117l-7.596,13.233,7.916,13.952h-5.437l-6.436-11.474h-3.198v11.474h-4.877v-27.185Z"/>
    <path class="cls-2" d="M140.542,122.606h-17.51v-27.185h4.877v22.708h9.555v-22.708h4.877v22.708h2.918v10.194h-4.717v-5.717Z"/>
    <path class="cls-2" d="M148.857,95.421h19.549v27.185h-4.877v-22.708h-9.795v22.708h-4.877v-27.185Z"/>
  </g>
</svg>