<?xml version="1.0" encoding="UTF-8"?>
<svg id="Layer_1" data-name="Layer 1" xmlns="http://www.w3.org/2000/svg" viewBox="0 0 196.489 196.489">
  <defs>
    <style>
      .cls-1 {
        fill: #ff6a69;
      }

      .cls-1, .cls-2, .cls-4, .cls-5 {
        stroke-width: 0px;
      }

      .cls-2 {
        fill: #4d4d4d;
      }

      .cls-4 {
        fill: #e6e4e4;
      }

      .cls-5 {
        fill: #e3a941;
      }
    </style>
  </defs>
  <polygon class="cls-2" points="98.244 16.28 123.605 69.212 181.782 76.974 139.279 117.451 149.874 175.179 98.244 147.264 46.615 175.179 57.21 117.451 14.706 76.974 72.884 69.212 98.244 16.28"/>
  <polygon class="cls-1" points="98.244 40.115 115.997 77.167 156.721 82.601 126.969 110.934 134.385 151.345 98.244 131.804 62.104 151.345 69.52 110.934 39.768 82.601 80.492 77.167 98.244 40.115"/>
  <polygon class="cls-5" points="98.244 56.8 110.671 82.736 139.178 86.54 118.351 106.373 123.543 134.66 98.244 120.982 72.946 134.66 78.137 106.373 57.311 86.54 85.818 82.736 98.244 56.8"/>
  <polygon class="cls-4" points="98.244 68.479 106.943 86.634 126.898 89.297 112.319 103.18 115.953 122.981 98.244 113.406 80.535 122.981 84.17 103.18 69.591 89.297 89.546 86.634 98.244 68.479"/>
</svg>