<svg width="294" height="54" viewBox="0 0 294 54" fill="none" xmlns="http://www.w3.org/2000/svg">
<g clip-path="url(#clip0_99_2763)">
<path fill-rule="evenodd" clip-rule="evenodd" d="M50.5048 26.1152C50.5048 10.5133 38.7675 0 23.491 0H6.32343C2.87228 0 0 2.54701 0 6.54395V46.2377C0 50.2622 2.87228 52.5611 6.32343 52.5776H23.491C38.762 52.5776 50.5048 41.717 50.5048 26.1152ZM16.6775 16.1812C18.3314 18.6456 21.5234 19.467 24.3957 20.1231L24.3902 20.0845C28.4974 20.9886 30.0576 22.9567 29.9749 23.1221C29.9071 23.2577 29.7838 23.1155 29.696 23.0143C29.6766 22.992 29.659 22.9717 29.6441 22.9567C28.3624 21.763 25.9362 21.2402 23.3815 20.6897C18.7277 19.6869 13.6477 18.5922 14.2848 13.1822C14.5274 11.3188 15.856 9.26241 18.0612 8.77175C17.8622 9.07096 17.7236 9.40619 17.6533 9.75858L17.9841 9.84128C19.0536 8.03301 21.7605 8.03301 22.0086 9.92397C22.0086 9.92397 24.1476 12.1292 24.6107 12.5647C24.6934 12.6474 24.6934 12.7301 24.6934 12.8128C24.6934 12.8955 24.3902 12.8955 24.1421 12.8128L24.0594 13.0609C24.4729 13.3861 25.9504 13.7169 28.4147 13.5515C29.212 13.5703 30.0093 13.5149 30.7963 13.3861C29.6528 14.6051 28.8587 16.1096 28.4974 17.7414C28.4866 17.8167 28.461 17.8892 28.4222 17.9546C28.3834 18.0201 28.332 18.0772 28.2711 18.1228C28.2102 18.1683 28.1408 18.2015 28.0671 18.2202C27.9934 18.239 27.9166 18.243 27.8413 18.2321C23.0064 18.6401 18.8882 18.0667 17.4934 15.437C17.4565 15.3844 17.4313 15.3246 17.4196 15.2614C17.408 15.1983 17.4101 15.1333 17.4258 15.0711C17.4415 15.0088 17.4704 14.9506 17.5106 14.9006C17.5508 14.8505 17.6014 14.8097 17.6588 14.7809C18.0234 14.6277 18.4283 14.5987 18.811 14.6982L18.8937 14.4502C18.0723 13.9595 16.8374 13.8768 16.1813 14.6982C15.7127 15.2771 15.856 16.0159 16.264 16.6719L16.5121 16.5892C16.446 16.464 16.4173 16.3224 16.4294 16.1812C16.4294 16.1593 16.4381 16.1383 16.4536 16.1228C16.4691 16.1073 16.4902 16.0986 16.5121 16.0986C16.5948 16.0986 16.6775 16.0986 16.6775 16.1812ZM21.8707 11.3794C21.4573 10.4753 20.5311 9.90192 19.9798 10.0673L19.9302 10.0839C19.73 10.1685 19.5593 10.3104 19.4395 10.4918L19.5222 10.5745C19.7703 10.5745 20.0129 10.7344 20.1782 11.0652C20.3436 11.3959 20.4263 11.7212 20.1782 11.8866C20.08 11.9125 19.9766 11.9108 19.8793 11.8816C19.782 11.8524 19.6947 11.7969 19.6269 11.7212H19.5442C19.5863 11.8025 19.607 11.8638 19.628 11.9262C19.6483 11.9865 19.669 12.0479 19.7096 12.1292C20.1231 13.0609 21.0438 13.6728 21.6227 13.4303C22.2015 13.1877 22.2842 12.2835 21.8707 11.3794ZM38.8335 32.6946C38.8375 32.6922 38.8414 32.6897 38.8453 32.6872L38.8343 32.6927C38.834 32.6934 38.8338 32.694 38.8335 32.6946ZM38.8335 32.6946C35.6451 34.7013 32.0082 35.8847 28.2493 36.1384C25.3778 36.2887 22.4999 36.0118 19.7096 35.3169C19.7085 36.1445 19.6254 36.97 19.4616 37.7812C21.8586 38.3451 24.3096 38.6482 26.7718 38.6854C26.6064 39.5895 25.6196 42.8753 23.238 44.9261C27.6484 45.0915 31.6949 43.3659 32.9299 41.067C31.146 41.6181 29.2828 41.8678 27.4168 41.8058C27.4582 41.6817 27.5202 41.5797 27.5822 41.4777C27.6442 41.3757 27.7063 41.2737 27.7476 41.1497C31.524 40.9843 35.6312 39.7549 36.4527 36.6345C34.9752 37.6214 31.7721 38.7681 28.4037 38.9335C28.4037 38.8094 28.4243 38.7074 28.445 38.6054C28.4657 38.5035 28.4864 38.4015 28.4864 38.2774C32.8959 37.7262 37.603 35.8139 38.8335 32.6946Z" fill="#B5B5B5"/>
<path d="M282.712 17.091C281.69 17.1015 280.671 16.9679 279.685 16.694L282.646 10.1115L285.606 16.694C284.665 16.9689 283.687 17.1027 282.707 17.091M293.181 22.0968L286.268 7.04073C285.48 5.38683 284.427 4.67014 282.844 4.67014H282.58C280.926 4.67014 279.878 5.39234 279.09 7.04073L272.177 22.1188C271.521 23.6349 271.978 24.9525 273.362 25.4763C273.65 25.6132 273.963 25.6894 274.281 25.7C274.6 25.7107 274.917 25.6556 275.214 25.5382C275.51 25.4208 275.779 25.2435 276.004 25.0176C276.229 24.7916 276.405 24.5218 276.521 24.2248L278.103 20.917C279.638 21.3964 281.237 21.6399 282.844 21.6392C284.387 21.6724 285.924 21.4393 287.387 20.9501L288.903 24.2579C289.019 24.5548 289.195 24.8247 289.42 25.0507C289.645 25.2766 289.914 25.4538 290.21 25.5713C290.507 25.6887 290.824 25.7438 291.143 25.7331C291.461 25.7225 291.774 25.6463 292.062 25.5093C293.314 24.958 293.837 23.6018 293.165 22.1519M268.273 20.7681H266.956V6.90842C266.965 6.57386 266.904 6.2411 266.779 5.93089C266.653 5.62067 266.465 5.33965 266.226 5.10534C265.987 4.87103 265.702 4.68845 265.39 4.569C265.077 4.44954 264.743 4.39577 264.409 4.41102C264.076 4.39357 263.742 4.44636 263.431 4.56597C263.119 4.68558 262.836 4.86934 262.6 5.10533C262.364 5.34132 262.18 5.62427 262.061 5.93585C261.941 6.24742 261.888 6.58065 261.906 6.91393V20.7351H253.085V6.90842C253.085 6.22706 252.814 5.57361 252.333 5.09182C251.851 4.61002 251.197 4.33936 250.516 4.33936C249.835 4.33936 249.181 4.61002 248.699 5.09182C248.218 5.57361 247.947 6.22706 247.947 6.90842V23.1553C247.93 23.4886 247.982 23.8218 248.102 24.1334C248.222 24.4449 248.405 24.7279 248.641 24.9639C248.877 25.1999 249.16 25.3836 249.472 25.5032C249.783 25.6229 250.117 25.6756 250.45 25.6582H265.793V27.8965C265.775 28.2298 265.828 28.563 265.948 28.8746C266.067 29.1861 266.251 29.4691 266.487 29.7051C266.723 29.9411 267.006 30.1248 267.317 30.2444C267.629 30.3641 267.962 30.4168 268.296 30.3994C268.63 30.4222 268.966 30.3731 269.28 30.2554C269.594 30.1377 269.879 29.9541 270.116 29.717C270.353 29.4798 270.537 29.1947 270.654 28.8806C270.772 28.5666 270.821 28.2311 270.798 27.8965V23.238C270.798 21.5841 269.812 20.7351 268.296 20.7351M242.748 20.7351H241.431V6.90842C241.439 6.57191 241.378 6.23721 241.252 5.92543C241.125 5.61364 240.935 5.33153 240.693 5.09689C240.452 4.86225 240.164 4.68017 239.849 4.56212C239.534 4.44408 239.198 4.39263 238.861 4.41102C238.528 4.39357 238.195 4.44636 237.883 4.56597C237.572 4.68558 237.289 4.86934 237.053 5.10533C236.817 5.34132 236.633 5.62427 236.514 5.93585C236.394 6.24742 236.341 6.58065 236.359 6.91393V20.7351H227.538V6.90842C227.538 6.22706 227.267 5.57361 226.785 5.09182C226.303 4.61002 225.65 4.33936 224.969 4.33936C224.287 4.33936 223.634 4.61002 223.152 5.09182C222.67 5.57361 222.4 6.22706 222.4 6.90842V23.1553C222.382 23.4886 222.435 23.8218 222.555 24.1334C222.674 24.4449 222.858 24.7279 223.094 24.9639C223.33 25.1999 223.613 25.3836 223.924 25.5032C224.236 25.6229 224.569 25.6756 224.903 25.6582H240.245V27.8965C240.228 28.2298 240.281 28.563 240.4 28.8746C240.52 29.1861 240.704 29.4691 240.94 29.7051C241.176 29.9411 241.459 30.1248 241.77 30.2444C242.082 30.3641 242.415 30.4168 242.748 30.3994C243.083 30.4222 243.418 30.3731 243.732 30.2554C244.046 30.1377 244.332 29.9541 244.569 29.717C244.806 29.4798 244.989 29.1947 245.107 28.8806C245.225 28.5666 245.274 28.2311 245.251 27.8965V23.238C245.251 21.5841 244.264 20.7351 242.748 20.7351ZM214.367 4.60398H214.169C212.653 4.60398 211.666 5.32619 210.613 6.84227L202.327 18.6291V7.10689C202.327 6.44893 202.065 5.81791 201.6 5.35266C201.135 4.88741 200.504 4.62603 199.846 4.62603C199.188 4.62603 198.557 4.88741 198.092 5.35266C197.626 5.81791 197.365 6.44893 197.365 7.10689V22.7804C197.34 23.159 197.396 23.5387 197.529 23.8939C197.663 24.2491 197.871 24.5717 198.139 24.8401C198.407 25.1084 198.73 25.3163 199.085 25.4498C199.44 25.5833 199.82 25.6393 200.199 25.6141H200.463C202.046 25.6141 203.099 24.8257 204.085 23.3758L212.355 11.589V23.1112C212.355 23.7574 212.612 24.3772 213.069 24.8342C213.526 25.2912 214.145 25.5479 214.792 25.5479C215.438 25.5479 216.058 25.2912 216.515 24.8342C216.972 24.3772 217.228 23.7574 217.228 23.1112V7.43767C217.228 5.72312 216.175 4.60398 214.329 4.60398M189.57 4.60398H175.346C175.011 4.58116 174.676 4.63026 174.362 4.74797C174.048 4.86568 173.763 5.04928 173.526 5.28641C173.288 5.52354 173.105 5.8087 172.987 6.12272C172.869 6.43673 172.82 6.77232 172.843 7.10689V23.3703C172.833 23.7073 172.894 24.0426 173.02 24.355C173.147 24.6674 173.337 24.9502 173.578 25.1855C173.82 25.4207 174.108 25.6033 174.423 25.7217C174.739 25.84 175.076 25.8916 175.412 25.8732C175.745 25.8907 176.079 25.8379 176.39 25.7183C176.702 25.5986 176.985 25.4149 177.221 25.1789C177.457 24.9429 177.641 24.66 177.76 24.3484C177.88 24.0368 177.933 23.7036 177.915 23.3703V9.54364H187.001V23.3703C186.986 23.7086 187.043 24.0462 187.167 24.361C187.292 24.6759 187.482 24.9608 187.725 25.1971C187.967 25.4334 188.257 25.6158 188.575 25.7323C188.893 25.8488 189.232 25.8968 189.57 25.8732C189.911 25.8897 190.253 25.8346 190.572 25.7114C190.891 25.5881 191.181 25.3995 191.423 25.1575C191.665 24.9156 191.854 24.6257 191.977 24.3065C192.1 23.9873 192.155 23.6459 192.139 23.3041V7.04073C192.147 6.70719 192.084 6.37569 191.956 6.06762C191.828 5.75955 191.637 5.48175 191.395 5.25215C191.153 5.02255 190.865 4.84624 190.551 4.7346C190.237 4.62295 189.902 4.57846 189.57 4.60398ZM152.798 21.0658C149.44 21.0658 147.07 18.5629 147.07 15.1394C147.04 14.3731 147.168 13.6089 147.443 12.8934C147.719 12.1779 148.138 11.526 148.674 10.9777C149.21 10.4293 149.852 9.99585 150.561 9.70381C151.27 9.41176 152.031 9.26723 152.798 9.27902C156.155 9.27902 158.526 11.7819 158.526 15.1394C158.526 18.4968 156.221 21.0658 152.798 21.0658ZM152.798 4.47167C151.376 4.43723 149.961 4.69084 148.64 5.21722C147.318 5.74361 146.117 6.53191 145.108 7.53467C144.099 8.53744 143.303 9.73395 142.769 11.0522C142.234 12.3705 141.972 13.7832 141.998 15.2055C141.998 21.3966 146.673 25.9394 152.798 25.9394C154.222 25.9609 155.636 25.6963 156.956 25.1612C158.276 24.6261 159.475 23.8314 160.483 22.8242C161.49 21.817 162.284 20.6178 162.82 19.2977C163.355 17.9777 163.619 16.5636 163.598 15.1394C163.532 8.94824 158.857 4.47167 152.798 4.47167ZM132.058 20.7351H123.788C124.344 19.6031 124.764 18.4095 125.04 17.1792C125.377 15.4642 125.562 13.7226 125.591 11.9749L125.657 9.53813H132.107L132.058 20.7351ZM138.447 20.7351H137.13V7.10689C137.147 6.77361 137.094 6.44037 136.975 6.1288C136.855 5.81723 136.671 5.53427 136.435 5.29828C136.199 5.06229 135.917 4.87853 135.605 4.75893C135.293 4.63932 134.96 4.58653 134.627 4.60398H122.972C121.589 4.60398 120.668 5.52465 120.668 7.10689V10.4147C120.717 12.4841 120.555 14.553 120.183 16.5893C119.943 18.076 119.378 19.4915 118.529 20.7351H117.978C116.324 20.7351 115.541 21.7881 115.541 23.238V27.913C115.523 28.2463 115.576 28.5795 115.696 28.8911C115.815 29.2027 115.999 29.4856 116.235 29.7216C116.471 29.9576 116.754 30.1414 117.066 30.261C117.377 30.3806 117.71 30.4334 118.044 30.4159C118.378 30.4387 118.714 30.3896 119.028 30.2719C119.342 30.1542 119.627 29.9706 119.864 29.7335C120.101 29.4964 120.285 29.2112 120.403 28.8972C120.52 28.5832 120.569 28.2476 120.547 27.913V25.6747H135.889V27.913C135.872 28.2448 135.924 28.5766 136.043 28.887C136.162 29.1974 136.344 29.4795 136.578 29.7152C136.812 29.951 137.093 30.1351 137.403 30.2558C137.712 30.3764 138.044 30.431 138.376 30.4159C138.71 30.4387 139.046 30.3896 139.36 30.2719C139.674 30.1542 139.959 29.9706 140.196 29.7335C140.433 29.4964 140.617 29.2112 140.735 28.8972C140.852 28.5832 140.901 28.2476 140.879 27.913V23.238C140.945 21.7881 140.156 20.7351 138.442 20.7351M104.261 21.0658C100.904 21.0658 98.5331 18.5629 98.5331 15.1394C98.5038 14.3731 98.631 13.6089 98.9067 12.8934C99.1825 12.1779 99.6012 11.526 100.137 10.9777C100.673 10.4293 101.315 9.99585 102.024 9.70381C102.733 9.41176 103.494 9.26723 104.261 9.27902C107.619 9.27902 109.989 11.7819 109.989 15.1394C109.989 18.4968 107.751 21.0658 104.261 21.0658ZM104.261 4.47167C102.839 4.43723 101.425 4.69084 100.103 5.21722C98.7817 5.74361 97.5803 6.53191 96.5714 7.53467C95.5624 8.53744 94.7667 9.73395 94.2323 11.0522C93.6978 12.3705 93.4355 13.7832 93.4612 15.2055C93.4722 21.3966 98.1307 25.9118 104.272 25.9118C105.696 25.9334 107.11 25.6687 108.431 25.1336C109.751 24.5985 110.95 23.8038 111.957 22.7966C112.964 21.7894 113.759 20.5902 114.294 19.2702C114.829 17.9501 115.094 16.536 115.072 15.1118C115.072 8.92067 110.397 4.4441 104.272 4.4441M83.3999 20.7075H75.1304C75.6859 19.5755 76.1059 18.382 76.3818 17.1516C76.7195 15.4366 76.904 13.695 76.9331 11.9473L76.9993 9.51057H83.4495L83.3999 20.7075ZM89.7895 20.7075H88.4719V7.10689C88.4893 6.77361 88.4365 6.44037 88.3169 6.1288C88.1973 5.81723 88.0136 5.53427 87.7776 5.29828C87.5416 5.06229 87.2586 4.87853 86.9471 4.75893C86.6355 4.63932 86.3023 4.58653 85.969 4.60398H74.3145C72.9307 4.60398 72.01 5.52465 72.01 7.10689V10.4147C72.01 12.7853 72.01 14.6266 71.5469 16.6058C71.3071 18.0925 70.7424 19.5081 69.893 20.7516H69.3417C67.6878 20.7516 66.905 21.8046 66.905 23.2545V27.9296C66.8892 28.2664 66.9451 28.6028 67.0691 28.9164C67.193 29.2301 67.3822 29.5138 67.624 29.7489C67.8658 29.9839 68.1548 30.1649 68.4718 30.2799C68.7889 30.3949 69.1267 30.4413 69.463 30.4159C69.7976 30.4387 70.1332 30.3896 70.4472 30.2719C70.7612 30.1542 71.0463 29.9706 71.2835 29.7335C71.5206 29.4964 71.7042 29.2112 71.8219 28.8972C71.9396 28.5832 71.9887 28.2476 71.9659 27.913V25.6747H87.3086V27.913C87.2912 28.2463 87.344 28.5795 87.4636 28.8911C87.5832 29.2027 87.767 29.4856 88.0029 29.7216C88.2389 29.9576 88.5219 30.1414 88.8335 30.261C89.145 30.3806 89.4783 30.4334 89.8115 30.4159C90.1461 30.4387 90.4817 30.3896 90.7957 30.2719C91.1097 30.1542 91.3949 29.9706 91.632 29.7335C91.8692 29.4964 92.0527 29.2112 92.1705 28.8972C92.2882 28.5832 92.3373 28.2476 92.3145 27.913V23.238C92.3145 21.7881 91.5261 20.7351 89.8115 20.7351M72.44 49.8658C73.9837 49.8658 74.6452 48.9397 75.1965 48.9397C75.4997 48.9397 75.7037 49.1712 75.7037 49.5351C75.7037 50.1856 74.2428 50.9629 72.44 50.9629C69.463 50.9629 67.9304 48.4049 67.9304 45.7311C67.9304 43.0573 69.463 40.4992 72.5117 40.4992C74.331 40.4992 75.4887 41.4806 75.4887 42.0043C75.4963 42.0785 75.4887 42.1534 75.4665 42.2246C75.4443 42.2958 75.4078 42.3617 75.3594 42.4184C75.3109 42.4751 75.2515 42.5214 75.1847 42.5544C75.1178 42.5875 75.045 42.6066 74.9705 42.6107C74.4192 42.6107 74.105 41.6018 72.5117 41.6018C70.2293 41.6018 69.2866 43.7685 69.2866 45.7366C69.2866 47.7047 70.2569 49.8658 72.44 49.8658ZM80.5442 49.8658C82.2367 49.8658 82.6667 48.8239 83.1463 48.8239C83.213 48.8294 83.2779 48.8481 83.3374 48.8789C83.3968 48.9096 83.4496 48.9519 83.4926 49.0031C83.5357 49.0544 83.5682 49.1136 83.5882 49.1775C83.6082 49.2413 83.6154 49.3085 83.6094 49.3752C83.6094 49.9982 82.0327 50.9519 80.5331 50.9519C78.0743 50.9519 77.0048 49.061 77.0048 47.0211C77.0048 44.9813 78.3059 43.0904 80.4615 43.0904C82.6171 43.0904 83.7693 44.9813 83.7693 46.8337C83.7693 47.2802 83.6094 47.5118 83.0636 47.5118H78.2838C78.263 47.8184 78.3064 48.1259 78.4114 48.4147C78.5163 48.7035 78.6805 48.9672 78.8933 49.1888C79.1061 49.4104 79.3629 49.5852 79.6472 49.7018C79.9315 49.8183 80.237 49.8742 80.5442 49.8658ZM80.456 44.1985C78.8792 44.1433 78.3169 45.4003 78.2507 46.5691H82.4682C82.4958 45.472 81.8618 44.1985 80.4615 44.1985H80.456ZM84.7506 43.7685C84.7497 43.6885 84.7662 43.6094 84.7989 43.5365C84.8316 43.4636 84.8798 43.3986 84.9401 43.3462C85.0004 43.2938 85.0714 43.2551 85.1482 43.2328C85.2249 43.2105 85.3056 43.2052 85.3846 43.2172H89.8612C89.9402 43.2052 90.0209 43.2105 90.0976 43.2328C90.1744 43.2551 90.2453 43.2938 90.3056 43.3462C90.366 43.3986 90.4141 43.4636 90.4469 43.5365C90.4796 43.6094 90.4961 43.6885 90.4952 43.7685C90.502 43.8515 90.4899 43.9351 90.4597 44.0128C90.4296 44.0905 90.3823 44.1604 90.3212 44.2172C90.2602 44.274 90.1871 44.3162 90.1074 44.3406C90.0277 44.3651 89.9435 44.3711 89.8612 44.3583H88.2624V50.2132C88.2624 50.6763 88.0143 50.9629 87.6284 50.9629C87.2425 50.9629 87.0054 50.6763 87.0054 50.2132V44.3583H85.3846C85.3022 44.3711 85.218 44.3651 85.1383 44.3406C85.0586 44.3162 84.9855 44.274 84.9245 44.2172C84.8635 44.1604 84.8161 44.0905 84.786 44.0128C84.7559 43.9351 84.7438 43.8515 84.7506 43.7685ZM97.9267 48.5813C97.9267 49.7942 97.0446 50.8802 94.9938 50.8802H92.6673C92.1766 50.8802 91.9451 50.6487 91.9451 50.2132V43.8511C91.9451 43.3881 92.1766 43.1014 92.5681 43.1014C92.9595 43.1014 93.202 43.3881 93.202 43.8511V46.31H95.2805C97.1053 46.31 97.9267 47.2637 97.9267 48.5813ZM96.6697 48.5813C96.6697 47.8315 96.1791 47.4126 95.0158 47.4126H93.2076V49.7391H95.0158C95.9255 49.7501 96.6697 49.4579 96.6697 48.5923V48.5813ZM104.388 50.9629C103.997 50.9629 103.765 50.6763 103.765 50.2132V43.8677C103.765 43.4046 103.997 43.1896 104.399 43.1896H109.228C109.375 43.1896 109.515 43.2477 109.618 43.3511C109.722 43.4544 109.78 43.5947 109.78 43.7409V50.2132C109.78 50.6763 109.548 50.9629 109.146 50.9629C108.743 50.9629 108.523 50.6763 108.523 50.2132V44.3473H104.994V50.2132C105.022 50.6763 104.774 50.9629 104.388 50.9629ZM112.652 50.9629C112.288 50.9629 112.062 50.759 112.062 50.2242V43.8511C112.062 43.3715 112.294 43.1014 112.685 43.1014C113.076 43.1014 113.319 43.377 113.319 43.8511V48.7522L116.903 43.592C117.118 43.3054 117.305 43.1014 117.669 43.1014C118.033 43.1014 118.275 43.3495 118.275 43.807V50.2132C118.275 50.6763 118.044 50.9629 117.641 50.9629C117.239 50.9629 117.018 50.6763 117.018 50.2132V45.2515L113.374 50.4557C113.159 50.792 113.016 50.9629 112.652 50.9629ZM120.525 50.3289V43.8511C120.525 43.3881 120.756 43.1014 121.148 43.1014C121.539 43.1014 121.782 43.3881 121.782 43.8511V49.7225H125.31V43.8511C125.31 43.3881 125.541 43.1014 125.933 43.1014C126.324 43.1014 126.567 43.3881 126.567 43.8511V49.7225H127.173C127.256 49.7194 127.338 49.7334 127.415 49.7636C127.492 49.7938 127.562 49.8396 127.621 49.8981C127.679 49.9566 127.725 50.0265 127.755 50.1035C127.785 50.1805 127.799 50.2628 127.796 50.3455V52.2806C127.796 52.7712 127.565 53.0303 127.19 53.0303C126.815 53.0303 126.583 52.7712 126.583 52.2806V50.8747H121.103C121.029 50.8785 120.955 50.8671 120.885 50.8414C120.816 50.8157 120.752 50.7762 120.698 50.7252C120.644 50.6743 120.6 50.6129 120.571 50.5448C120.541 50.4767 120.525 50.4033 120.525 50.3289ZM129.395 50.3289V43.8511C129.395 43.3881 129.627 43.1014 130.018 43.1014C130.409 43.1014 130.652 43.3881 130.652 43.8511V49.7225H134.18V43.8511C134.18 43.3881 134.412 43.1014 134.803 43.1014C135.195 43.1014 135.437 43.3881 135.437 43.8511V49.7225H136.044C136.126 49.7194 136.209 49.7334 136.286 49.7636C136.363 49.7938 136.433 49.8396 136.491 49.8981C136.55 49.9566 136.595 50.0265 136.626 50.1035C136.656 50.1805 136.67 50.2628 136.667 50.3455V52.2806C136.667 52.7712 136.435 53.0303 136.06 53.0303C135.685 53.0303 135.454 52.7712 135.454 52.2806V50.8747H129.974C129.9 50.8785 129.825 50.8671 129.756 50.8414C129.686 50.8157 129.622 50.7762 129.568 50.7252C129.514 50.6743 129.471 50.6129 129.441 50.5448C129.411 50.4767 129.396 50.4033 129.395 50.3289ZM141.347 49.8658C143.04 49.8658 143.47 48.8239 143.949 48.8239C144.016 48.8294 144.081 48.8481 144.14 48.8789C144.2 48.9096 144.253 48.9519 144.296 49.0031C144.339 49.0544 144.371 49.1136 144.391 49.1775C144.411 49.2413 144.419 49.3085 144.412 49.3752C144.412 49.9982 142.836 50.9519 141.336 50.9519C138.877 50.9519 137.808 49.061 137.808 47.0211C137.808 44.9813 139.109 43.0904 141.265 43.0904C143.42 43.0904 144.572 44.9813 144.572 46.8337C144.572 47.2802 144.412 47.5118 143.861 47.5118H139.076C139.055 47.8193 139.099 48.1278 139.204 48.4174C139.31 48.707 139.475 48.9712 139.689 49.193C139.903 49.4148 140.161 49.5893 140.447 49.7052C140.732 49.8211 141.039 49.8758 141.347 49.8658ZM141.259 44.1985C139.682 44.1433 139.12 45.4003 139.054 46.5691H143.277C143.299 45.472 142.659 44.1985 141.259 44.1985ZM147.053 43.1014C147.141 43.0977 147.229 43.113 147.311 43.1464C147.392 43.1798 147.466 43.2305 147.526 43.2949C147.586 43.3592 147.632 43.4359 147.66 43.5195C147.687 43.6032 147.697 43.6918 147.687 43.7795V44.1544H147.715C147.917 43.798 148.218 43.5085 148.583 43.3214C148.947 43.1343 149.358 43.0578 149.766 43.1014C151.85 43.1014 153.073 44.9923 153.073 47.0322C153.073 49.072 151.872 50.9629 149.766 50.9629C149.366 50.965 148.971 50.8715 148.614 50.6903C148.257 50.5091 147.949 50.2453 147.715 49.921H147.687V53.317C147.695 53.4056 147.685 53.4949 147.657 53.5793C147.629 53.6637 147.583 53.7413 147.523 53.807C147.463 53.8728 147.39 53.9253 147.309 53.9613C147.227 53.9973 147.139 54.0158 147.05 54.0158C146.961 54.0158 146.873 53.9973 146.792 53.9613C146.711 53.9253 146.638 53.8728 146.578 53.807C146.518 53.7413 146.472 53.6637 146.444 53.5793C146.416 53.4949 146.405 53.4056 146.414 53.317V43.7795C146.404 43.6914 146.414 43.6022 146.442 43.5181C146.47 43.4341 146.516 43.3572 146.577 43.2927C146.638 43.2282 146.712 43.1777 146.794 43.1446C146.876 43.1116 146.965 43.0969 147.053 43.1014ZM149.672 49.8658C151.232 49.8658 151.783 48.3332 151.783 47.0322C151.783 45.7311 151.232 44.1985 149.672 44.1985C148.112 44.1985 147.56 45.7311 147.56 47.0322C147.56 48.3332 148.112 49.8658 149.672 49.8658ZM155.565 50.9629C155.201 50.9629 154.97 50.759 154.97 50.2242V43.8511C154.97 43.3715 155.201 43.1014 155.593 43.1014C155.984 43.1014 156.227 43.377 156.227 43.8511V48.7522L159.81 43.592C159.884 43.4505 159.994 43.3308 160.128 43.2447C160.263 43.1586 160.417 43.1092 160.577 43.1014C160.924 43.1014 161.183 43.3495 161.183 43.807V50.2132C161.183 50.6763 160.952 50.9629 160.549 50.9629C160.147 50.9629 159.926 50.6763 159.926 50.2132V45.2515L156.282 50.4557C156.073 50.792 155.913 50.9629 155.565 50.9629ZM164.033 50.9629C163.669 50.9629 163.438 50.759 163.438 50.2242V43.8511C163.438 43.3715 163.669 43.1014 164.061 43.1014C164.452 43.1014 164.695 43.377 164.695 43.8511V48.7522L168.278 43.592C168.352 43.4505 168.462 43.3308 168.596 43.2447C168.731 43.1586 168.885 43.1092 169.045 43.1014C169.392 43.1014 169.651 43.3495 169.651 43.807V50.2132C169.651 50.6763 169.42 50.9629 169.017 50.9629C168.615 50.9629 168.394 50.6763 168.394 50.2132V45.2515L164.75 50.4557C164.535 50.792 164.381 50.9629 164.033 50.9629ZM165.103 40.2842C165.549 40.2842 165.797 41.1057 166.608 41.1057C167.418 41.1057 167.661 40.2842 168.113 40.2842C168.177 40.2869 168.24 40.3027 168.298 40.3306C168.355 40.3585 168.407 40.398 168.449 40.4465C168.49 40.4951 168.522 40.5518 168.541 40.613C168.56 40.6742 168.566 40.7387 168.559 40.8025C168.559 41.657 167.402 42.2028 166.608 42.2028C165.814 42.2028 164.656 41.6515 164.656 40.8025C164.649 40.7387 164.656 40.6742 164.675 40.613C164.694 40.5518 164.725 40.4951 164.767 40.4465C164.809 40.398 164.86 40.3585 164.918 40.3306C164.976 40.3027 165.039 40.2869 165.103 40.2842ZM183.119 50.9629C182.789 50.9629 182.629 50.8031 182.37 50.4116L177.441 42.9525H177.413V50.1966C177.413 50.7038 177.182 50.9629 176.779 50.9629C176.377 50.9629 176.145 50.7038 176.145 50.1966V41.2214C176.134 41.1312 176.141 41.0396 176.168 40.9526C176.194 40.8656 176.239 40.7852 176.299 40.7168C176.359 40.6485 176.433 40.5937 176.516 40.5562C176.599 40.5187 176.688 40.4993 176.779 40.4992C177.143 40.4992 177.331 40.6867 177.573 41.0505L182.441 48.438H182.48V41.2711C182.48 40.7639 182.711 40.5047 183.114 40.5047C183.516 40.5047 183.748 40.7639 183.748 41.2711V50.2132C183.742 50.7755 183.483 50.9629 183.119 50.9629ZM190.286 43.3329C190.308 43.6973 190.255 44.0622 190.131 44.4053C190.006 44.7484 189.812 45.0623 189.562 45.3278C189.312 45.5933 189.009 45.8047 188.674 45.9489C188.339 46.0932 187.977 46.1673 187.612 46.1666C185.892 46.1666 184.955 44.7663 184.955 43.3054C184.955 41.8444 185.892 40.4606 187.612 40.4606C189.333 40.4606 190.286 41.8609 190.286 43.3329ZM190.082 47.7433C190.078 47.8216 190.058 47.8983 190.024 47.9687C189.99 48.0392 189.941 48.102 189.882 48.1534C189.823 48.2049 189.754 48.2439 189.68 48.2681C189.605 48.2924 189.526 48.3014 189.448 48.2946H185.788C185.641 48.2946 185.501 48.2366 185.398 48.1332C185.294 48.0298 185.236 47.8895 185.236 47.7433C185.236 47.5971 185.294 47.4569 185.398 47.3535C185.501 47.2501 185.641 47.192 185.788 47.192H189.432C189.514 47.1819 189.597 47.1893 189.676 47.2137C189.755 47.2382 189.828 47.2791 189.89 47.3338C189.952 47.3885 190.002 47.4558 190.036 47.5311C190.07 47.6065 190.088 47.6882 190.088 47.7709L190.082 47.7433ZM186.135 43.2778C186.135 44.2315 186.615 45.1853 187.607 45.1853C188.599 45.1853 189.095 44.2591 189.095 43.3329C189.095 42.4067 188.632 41.4089 187.623 41.4089C186.615 41.4089 186.141 42.3516 186.141 43.3054L186.135 43.2778ZM196.091 41.1387C196.091 40.9925 196.15 40.8523 196.253 40.7489C196.356 40.6455 196.497 40.5874 196.643 40.5874H198.848C199.096 40.5874 199.239 40.615 199.239 40.9348V50.3069C199.248 50.3955 199.237 50.4848 199.209 50.5692C199.181 50.6536 199.135 50.7312 199.075 50.7969C199.015 50.8627 198.942 50.9152 198.861 50.9512C198.78 50.9871 198.692 51.0057 198.603 51.0057C198.514 51.0057 198.426 50.9871 198.344 50.9512C198.263 50.9152 198.19 50.8627 198.13 50.7969C198.07 50.7312 198.024 50.6536 197.996 50.5692C197.968 50.4848 197.958 50.3955 197.966 50.3069V41.6845H196.637C196.493 41.6831 196.355 41.6251 196.253 41.5231C196.151 41.421 196.093 41.2831 196.091 41.1387ZM207.018 43.1896H209.224C210.668 43.1896 211.682 43.7409 211.682 45.1247C211.691 45.4853 211.581 45.8389 211.37 46.1315C211.159 46.4242 210.858 46.6398 210.514 46.7455V46.773C211.798 46.9329 212.305 47.6717 212.305 48.6364C212.305 49.91 211.307 50.8747 209.372 50.8747H207.046C206.555 50.8747 206.324 50.6432 206.324 50.2077V43.8401C206.296 43.4046 206.528 43.1896 207.018 43.1896ZM210.414 45.2735C210.414 44.5954 209.863 44.2646 209.058 44.2646H207.553V46.3761H208.838C209.78 46.3706 210.414 46.1225 210.414 45.268V45.2735ZM211.021 48.653C211.021 47.9032 210.53 47.4401 209.246 47.4401H207.553V49.8107H209.361C210.343 49.8052 211.021 49.4469 211.021 48.653ZM218.926 50.9629C218.84 50.9634 218.755 50.9457 218.676 50.9109C218.597 50.8761 218.526 50.825 218.469 50.761C218.411 50.697 218.367 50.6214 218.341 50.5394C218.314 50.4573 218.305 50.3706 218.314 50.2848V41.2821C218.304 41.1898 218.315 41.0965 218.345 41.0087C218.375 40.921 218.425 40.8411 218.49 40.7746C218.554 40.7082 218.633 40.657 218.72 40.6246C218.807 40.5923 218.9 40.5796 218.993 40.5874H221.507C221.943 40.5613 222.381 40.6262 222.791 40.7782C223.201 40.9302 223.575 41.1658 223.889 41.4702C224.203 41.7745 224.451 42.1409 224.616 42.5461C224.781 42.9513 224.86 43.3863 224.847 43.8236C224.848 44.2536 224.763 44.6795 224.596 45.0757C224.428 45.472 224.183 45.8305 223.874 46.1299C223.566 46.4294 223.2 46.6636 222.799 46.8186C222.398 46.9736 221.969 47.0462 221.54 47.0322H219.571V50.2848C219.581 50.3734 219.572 50.4631 219.543 50.5476C219.515 50.632 219.468 50.7093 219.407 50.7739C219.345 50.8385 219.27 50.8888 219.187 50.9215C219.104 50.9542 219.015 50.9683 218.926 50.9629ZM223.552 43.796C223.57 43.508 223.526 43.2195 223.423 42.9498C223.321 42.6802 223.161 42.4358 222.956 42.2331C222.75 42.0303 222.504 41.874 222.233 41.7746C221.962 41.6752 221.673 41.6351 221.385 41.657H219.566V45.9075H221.446C221.722 45.9142 221.997 45.865 222.254 45.7629C222.511 45.6608 222.744 45.5078 222.94 45.3132C223.136 45.1185 223.291 44.8862 223.395 44.6303C223.5 44.3743 223.551 44.0999 223.546 43.8236L223.552 43.796ZM229.412 43.1014C231.579 43.1014 232.792 44.9923 232.792 47.0322C232.792 49.072 231.579 50.9629 229.412 50.9629C227.246 50.9629 226.033 49.0665 226.033 47.0322C226.033 44.9979 227.246 43.1014 229.412 43.1014ZM229.412 49.8658C230.972 49.8658 231.524 48.3332 231.524 47.0322C231.524 45.7311 230.972 44.1985 229.412 44.1985C227.852 44.1985 227.301 45.7311 227.301 47.0322C227.301 48.3332 227.852 49.8658 229.412 49.8658ZM237.853 43.1014C239.154 43.1014 239.92 43.5479 239.92 44.0717C239.92 44.2123 239.867 44.3478 239.77 44.4503C239.674 44.5527 239.542 44.6145 239.402 44.623C238.911 44.623 238.724 44.2205 237.858 44.2205C236.281 44.2205 235.653 45.7531 235.653 47.0542C235.653 48.3553 236.276 49.8879 237.858 49.8879C238.757 49.8879 238.961 49.4524 239.391 49.4524C239.461 49.4489 239.532 49.4614 239.597 49.4888C239.663 49.5162 239.721 49.5579 239.768 49.6107C239.815 49.6636 239.85 49.7263 239.869 49.7943C239.889 49.8623 239.893 49.9339 239.881 50.0037C239.881 50.4833 239.176 51.0015 237.858 51.0015C235.515 51.0015 234.39 49.1106 234.39 47.0707C234.39 45.0309 235.51 43.1014 237.853 43.1014ZM244.849 43.1014C246.15 43.1014 246.916 43.5479 246.916 44.0717C246.916 44.2123 246.863 44.3478 246.766 44.4503C246.67 44.5527 246.538 44.6145 246.398 44.623C245.907 44.623 245.72 44.2205 244.854 44.2205C243.277 44.2205 242.649 45.7531 242.649 47.0542C242.649 48.3553 243.272 49.8879 244.854 49.8879C245.753 49.8879 245.957 49.4524 246.387 49.4524C246.457 49.4489 246.528 49.4614 246.593 49.4888C246.659 49.5162 246.717 49.5579 246.764 49.6107C246.811 49.6636 246.846 49.7263 246.865 49.7943C246.885 49.8623 246.889 49.9339 246.877 50.0037C246.877 50.4833 246.172 51.0015 244.854 51.0015C242.511 51.0015 241.386 49.1106 241.386 47.0707C241.386 45.0309 242.506 43.1014 244.849 43.1014ZM249.298 50.9629C248.934 50.9629 248.702 50.759 248.702 50.2242V43.8511C248.702 43.3715 248.934 43.1014 249.325 43.1014C249.717 43.1014 249.959 43.377 249.959 43.8511V48.7522L253.543 43.592C253.617 43.4505 253.726 43.3308 253.861 43.2447C253.995 43.1586 254.15 43.1092 254.309 43.1014C254.656 43.1014 254.915 43.3495 254.915 43.807V50.2132C254.915 50.6763 254.684 50.9629 254.281 50.9629C253.879 50.9629 253.658 50.6763 253.658 50.2132V45.2515L250.014 50.4557C249.799 50.792 249.645 50.9629 249.298 50.9629ZM257.766 50.9629C257.402 50.9629 257.17 50.759 257.17 50.2242V43.8511C257.17 43.3715 257.402 43.1014 257.793 43.1014C258.185 43.1014 258.427 43.377 258.427 43.8511V48.7522L262.011 43.592C262.085 43.4505 262.194 43.3308 262.329 43.2447C262.463 43.1586 262.618 43.1092 262.777 43.1014C263.124 43.1014 263.383 43.3495 263.383 43.807V50.2132C263.383 50.6763 263.152 50.9629 262.749 50.9629C262.347 50.9629 262.126 50.6763 262.126 50.2132V45.2515L258.482 50.4557C258.267 50.792 258.107 50.9629 257.766 50.9629Z" fill="#424242"/>
<path fill-rule="evenodd" clip-rule="evenodd" d="M39.9149 20.5305C40.2457 21.1039 40.9844 21.1039 41.0671 20.4478C41.2325 17.4101 39.1761 13.0549 35.3997 13.0549C34.5783 13.0549 33.1008 13.2202 32.4447 13.3029C31.061 13.5731 29.7378 16.4233 29.4071 17.9835C29.4119 18.0321 29.4263 18.0793 29.4494 18.1223C29.4726 18.1653 29.5041 18.2033 29.542 18.234C29.5799 18.2648 29.6236 18.2877 29.6705 18.3015C29.7173 18.3153 29.7665 18.3196 29.815 18.3143C30.5435 18.3143 31.2962 18.2874 32.0434 18.2608C33.151 18.2213 34.2467 18.1822 35.2343 18.2316C37.4506 18.397 38.8453 18.7222 39.9149 20.5305ZM19.7096 35.3406C19.7096 35.3328 19.7096 35.3249 19.7096 35.317C22.4999 36.0119 25.3778 36.2887 28.2493 36.1384C32.0082 35.8847 35.6451 34.7014 38.8335 32.6947C38.8301 32.7034 38.8267 32.712 38.8232 32.7206C38.8324 32.7149 38.8416 32.7091 38.8509 32.7033C37.646 35.7583 33.1615 37.6852 28.8223 38.2329C28.7139 38.2481 28.6056 38.2625 28.4974 38.2761C28.4969 38.398 28.4765 38.4987 28.4561 38.5994C28.4354 38.7014 28.4147 38.8034 28.4147 38.9275C31.4159 38.7801 34.2859 37.8537 35.921 36.9555C36.1167 36.8476 36.2946 36.7402 36.4527 36.6346C36.4525 36.6351 36.4524 36.6356 36.4523 36.6362C36.4561 36.6336 36.4599 36.6311 36.4637 36.6285C36.3992 36.8673 36.3143 37.0949 36.2109 37.3118C35.0116 39.933 31.2441 40.9951 27.7563 41.1494C27.6632 41.374 27.5534 41.5914 27.4279 41.7997C29.2919 41.8267 31.1497 41.5778 32.9409 41.061C32.7545 41.4065 32.5024 41.7405 32.1932 42.0578C30.4736 43.8409 26.9872 45.0668 23.238 44.9262C23.2434 44.9215 23.2489 44.9168 23.2543 44.9121C21.3787 44.8395 19.4268 44.4226 17.5761 43.5529C18.5027 41.7342 19.1387 39.7871 19.4659 37.7823C19.4645 37.782 19.463 37.7817 19.4616 37.7813C19.4698 37.7404 19.4779 37.6995 19.4857 37.6586C19.6057 36.8928 19.6807 36.1188 19.7096 35.3406ZM38.8335 32.6947C38.8375 32.6922 38.8414 32.6898 38.8453 32.6873L38.8343 32.6928C38.834 32.6934 38.8338 32.6941 38.8335 32.6947ZM37.9368 11.9654C38.8251 12.3041 39.6379 12.8148 40.3283 13.4683V13.4849C43.1179 16.1091 42.9525 19.891 42.4619 22.7633C42.2138 24.1581 38.9887 24.5826 38.4374 22.9287C38.3996 22.8657 38.3639 22.7877 38.3235 22.6995C38.0986 22.2082 37.7289 21.4008 36.0558 21.1204C34.4967 21.0354 32.9342 21.0354 31.3752 21.1204C32.0313 22.1072 32.77 24.7369 32.8527 26.2971C32.8527 26.8705 32.77 27.3611 32.5219 27.5265C32.1084 27.8794 31.3476 27.3832 30.7963 26.9752C30.5714 26.8209 30.3355 26.6426 30.0789 26.4488C28.9328 25.5829 27.3754 24.4062 24.5556 23.6674C19.2962 21.9418 18.3921 23.3421 18.5574 26.2144C19.0244 28.4098 19.354 30.6322 19.5443 32.8686C26.6891 35.0022 32.6873 34.3461 39.5014 30.2389C39.9976 29.9908 40.3228 29.9908 40.4055 30.3216C40.6236 31.2436 40.6256 32.2035 40.4114 33.1263C40.1971 34.0492 39.7725 34.9101 39.1706 35.6417C39.0395 36.842 38.6393 37.9973 37.9997 39.0215C37.3602 40.0457 36.4979 40.9125 35.4769 41.5572C32.1691 47.638 24.5611 49.5235 16.1813 45.8297C14.0112 48.6562 11.2317 50.957 8.04963 52.5611H6.15867C5.10556 52.5303 4.07068 52.2786 3.121 51.8224C21.4352 44.4294 17.6423 30.4705 15.6796 24.8086V24.7259C15.5267 24.3089 15.3713 23.8943 15.2164 23.4808C14.4558 21.4509 13.7057 19.449 13.298 17.333C12.9446 16.2082 12.8498 15.0181 13.0207 13.8516C13.1915 12.6851 13.6237 11.5722 14.2849 10.5961C15.5198 8.87048 17.5706 8.21443 19.2962 8.04904C19.1839 7.68596 19.0206 7.34069 18.811 7.02362C18.7021 6.86912 18.5515 6.74875 18.3768 6.67653C18.2021 6.6043 18.0105 6.58319 17.8242 6.61565C17.7571 6.63335 17.6944 6.66511 17.6404 6.70882C17.5865 6.75253 17.5424 6.8072 17.5111 6.86921C17.4799 6.93123 17.4621 6.99917 17.4591 7.06856C17.456 7.13794 17.4677 7.20718 17.4934 7.2717C17.5091 7.47884 17.5969 7.67393 17.7415 7.823C17.709 7.85443 17.6698 7.87816 17.6268 7.89247C17.5839 7.90678 17.5383 7.9113 17.4934 7.9057L17.0855 7.49774C16.8326 7.24289 16.506 7.07387 16.1519 7.01453C15.7978 6.95518 15.434 7.00849 15.1118 7.16695C15.0036 7.27475 14.9388 7.41853 14.9296 7.57099C14.9205 7.72345 14.9677 7.87395 15.0622 7.99391C15.1172 8.10029 15.243 8.20912 15.3698 8.31876C15.4335 8.37389 15.4975 8.42923 15.5528 8.48457C15.5115 8.48457 15.4908 8.50524 15.4702 8.52591C15.4495 8.54659 15.4288 8.56726 15.3875 8.56726C14.6941 8.25324 13.9433 8.08618 13.1823 8.0766C12.9101 8.04715 12.6348 8.08165 12.3783 8.17736C12.1217 8.27307 11.8911 8.42735 11.7048 8.6279C11.4346 8.95317 11.6 9.52653 12.2561 9.85731L12.7467 10.1054C12.7054 10.1054 12.6847 10.1261 12.664 10.1467C12.6434 10.1674 12.6227 10.1881 12.5813 10.1881C10.117 9.94 8.22605 10.8441 8.30875 11.7483C8.39144 12.487 9.70354 12.6524 10.7731 12.487C10.7731 12.5284 10.7524 12.5697 10.7317 12.6111C10.711 12.6524 10.6904 12.6938 10.6904 12.7351C9.54366 13.2258 7.48731 14.7032 7.73539 15.8555C7.90078 16.4288 9.04749 16.925 10.7731 15.1167L10.9385 15.2821C10.6845 17.0187 11.033 19.1611 11.3921 21.369C11.6099 22.7079 11.8316 24.0709 11.9253 25.382C12.1734 28.8552 11.9253 32.7749 7.16204 33.2656C5.41441 33.431 2.70752 32.9348 -0.00488281 32.2788V29.7317C0.447185 29.8558 0.919926 29.9784 1.39267 30.1011C1.86541 30.2238 2.33815 30.3464 2.79022 30.4705C5.9161 31.1872 7.55898 30.8013 7.96694 30.6359C10.7642 29.4273 10.0713 25.3109 9.38375 21.2259C9.18372 20.0375 8.98414 18.8517 8.87107 17.7409C6.07597 18.4025 4.51579 15.1167 7.88424 13.2258C5.34274 12.9005 5.99879 9.44934 9.8579 9.36665C8.95928 7.23311 11.0101 6.41167 12.5703 6.90233C12.6475 5.34215 14.7865 4.92867 16.1813 5.75011C17.6423 4.51519 20.1231 4.84597 21.1872 7.22209C22.3915 7.51577 23.459 8.73916 24.4751 9.90368C25.538 11.1219 26.5448 12.2757 27.5933 12.2334C29.1163 12.192 30.3907 12.007 31.5929 11.8326C32.7928 11.6584 33.9206 11.4947 35.1516 11.4947C36.1019 11.4667 37.0484 11.6267 37.9368 11.9654ZM0.000630204 38.106C1.28569 38.0239 2.57468 38.0239 3.85974 38.106L3.61166 39.0928C3.61166 39.0928 2.20584 39.3409 0.000630204 39.8316V38.106ZM16.6775 16.1813C18.3314 18.6456 21.5234 19.4671 24.3957 20.1231L24.3902 20.0845C28.4974 20.9887 30.0576 22.9568 29.9749 23.1222C29.9071 23.2577 29.7838 23.1156 29.696 23.0143C29.6766 22.992 29.659 22.9717 29.6441 22.9568C28.3624 21.763 25.9362 21.2402 23.3815 20.6897C18.7277 19.6869 13.6477 18.5923 14.2848 13.1822C14.5274 11.3188 15.856 9.26247 18.0612 8.77181C17.8622 9.07102 17.7236 9.40625 17.6533 9.75864L17.9841 9.84134C19.0536 8.03307 21.7605 8.03307 22.0086 9.92403C22.0086 9.92403 24.1476 12.1292 24.6107 12.5648C24.6934 12.6475 24.6934 12.7302 24.6934 12.8129C24.6934 12.8956 24.3902 12.8956 24.1421 12.8129L24.0594 13.0609C24.4729 13.3862 25.9504 13.717 28.4147 13.5516C29.212 13.5704 30.0093 13.515 30.7963 13.3862C29.6528 14.6052 28.8587 16.1096 28.4974 17.7415C28.4866 17.8168 28.461 17.8893 28.4222 17.9547C28.3834 18.0201 28.332 18.0773 28.2711 18.1228C28.2102 18.1684 28.1408 18.2015 28.0671 18.2203C27.9934 18.239 27.9166 18.2431 27.8413 18.2322C23.0064 18.6401 18.8882 18.0668 17.4934 15.4371C17.4565 15.3845 17.4313 15.3246 17.4196 15.2615C17.408 15.1983 17.4101 15.1334 17.4258 15.0711C17.4415 15.0089 17.4704 14.9507 17.5106 14.9006C17.5508 14.8506 17.6014 14.8098 17.6588 14.781C18.0234 14.6278 18.4283 14.5987 18.811 14.6983L18.8937 14.4502C18.0723 13.9596 16.8374 13.8769 16.1813 14.6983C15.7127 15.2772 15.856 16.0159 16.264 16.672L16.5121 16.5893C16.446 16.464 16.4173 16.3224 16.4294 16.1813C16.4294 16.1594 16.4381 16.1383 16.4536 16.1228C16.4691 16.1073 16.4902 16.0986 16.5121 16.0986C16.5948 16.0986 16.6775 16.0986 16.6775 16.1813ZM21.8707 11.3795C21.4573 10.4753 20.5311 9.90198 19.9798 10.0674L19.9302 10.0839C19.73 10.1686 19.5593 10.3105 19.4395 10.4919L19.5222 10.5746C19.7703 10.5746 20.0129 10.7344 20.1782 11.0652C20.3436 11.396 20.4263 11.7213 20.1782 11.8867C20.08 11.9126 19.9766 11.9108 19.8793 11.8816C19.782 11.8524 19.6947 11.797 19.6269 11.7213H19.5442C19.5863 11.8025 19.607 11.8639 19.628 11.9263C19.6483 11.9866 19.669 12.0479 19.7096 12.1292C20.1231 13.0609 21.0438 13.6729 21.6227 13.4303C22.2015 13.1877 22.2842 12.2836 21.8707 11.3795Z" fill="#424242"/>
</g>
<defs>
<clipPath id="clip0_99_2763">
<rect width="293.469" height="54" fill="white"/>
</clipPath>
</defs>
</svg>
