<svg width="138" height="40" viewBox="0 0 138 40" fill="none" xmlns="http://www.w3.org/2000/svg">
<g clip-path="url(#clip0_94_1840)">
<path d="M18.0386 15.5417L28.681 30.9095H22.7229L13.5598 17.8017H9.16316V30.9095H3.94468V6.62509H0L2.62979 1.73535H9.16316V13.2818H13.5598L22.271 1.73535H28.1881L18.0386 15.5417ZM27.0786 20.3904C27.0786 18.1168 27.599 16.1306 28.6401 14.4322C29.6535 12.8434 31.0369 11.6244 32.7901 10.7753C34.5433 9.92603 36.4335 9.50147 38.4606 9.50147C40.5426 9.50147 42.419 9.91232 44.09 10.7342C45.8432 11.5833 47.2266 12.8434 48.2401 14.5145C49.2537 16.1581 49.7605 18.1168 49.7605 20.3904C49.7605 22.6915 49.2537 24.6775 48.2401 26.3485C47.2266 27.9922 45.8432 29.266 44.09 30.1699C42.3642 31.0465 40.4878 31.4848 38.4606 31.4848C36.4609 31.4848 34.5845 31.0465 32.8312 30.1699C31.0506 29.2933 29.6398 28.0194 28.5989 26.3485C27.5853 24.6501 27.0786 22.6641 27.0786 20.3904ZM115.711 10.1589H120.354V12.9941C121.066 11.8983 122.011 11.0629 123.189 10.4875C124.394 9.8849 125.942 9.58358 127.832 9.58358C129.777 9.58358 131.503 10.0219 133.01 10.8985C134.461 11.8025 135.584 13.09 136.379 14.761C137.202 16.4047 137.611 18.2948 137.611 20.4315C137.611 22.5956 137.202 24.5131 136.379 26.1841C135.584 27.8278 134.461 29.1016 133.01 30.0056C132.325 30.4713 131.517 30.8137 130.585 31.0328C129.681 31.2794 128.764 31.4026 127.832 31.4026C126.216 31.4026 125.011 31.2794 124.216 31.0328C122.573 30.5397 121.408 29.718 120.724 28.5674V38.2647H115.711V10.1589ZM52.4314 10.1589H57.4033V18.0482H65.9091V10.1589H70.8399V30.9095H65.9091V22.1573H57.4033V30.9095H52.4314V10.1589ZM73.0176 10.1589H92.1247V14.1035H85.0571V30.9095H80.0031V14.1035H73.0176V10.1589ZM98.9868 10.1589C100.85 15.2541 102.548 20.2945 104.082 25.2802C105.534 20.3492 107.177 15.3089 109.013 10.1589H114.026L106.383 31.3204C105.753 33.0462 105.15 34.3748 104.575 35.3062C103.945 36.2376 103.164 36.9361 102.233 37.4019C101.329 37.8949 100.124 38.1415 98.617 38.1415C97.7678 38.1415 97.3021 38.1278 97.22 38.1003L95.5352 34.1556C96.0557 34.2653 96.6994 34.32 97.4665 34.32C98.3978 34.32 99.1511 34.1831 99.7265 33.9092C100.247 33.69 100.644 33.3886 100.918 33.0052C101.192 32.649 101.425 32.1971 101.617 31.6491L93.7272 10.1589H98.9868ZM32.1326 20.3492C32.1326 22.623 32.6806 24.3625 33.7763 25.5678C34.8721 26.7458 36.3924 27.3347 38.3374 27.3347C40.3097 27.3347 41.8437 26.7458 42.9394 25.5678C44.0626 24.3625 44.6242 22.623 44.6242 20.3492C44.6242 18.1305 44.0763 16.4594 42.9806 15.3362C41.8848 14.1858 40.3371 13.6105 38.3374 13.6105C36.365 13.6105 34.831 14.1858 33.7352 15.3362C32.6669 16.4594 32.1326 18.1305 32.1326 20.3492ZM120.6 20.3904C120.655 22.4449 121.203 24.0886 122.244 25.3213C123.285 26.554 124.751 27.1703 126.641 27.1703C128.531 27.1703 129.983 26.554 130.996 25.3213C132.037 24.0886 132.571 22.4449 132.599 20.3904C132.571 18.3632 132.037 16.747 130.996 15.5417C129.983 14.309 128.531 13.6927 126.641 13.6927C124.751 13.6927 123.285 14.2953 122.244 15.5006C121.203 16.706 120.655 18.3358 120.6 20.3904Z" fill="#424242"/>
</g>
<defs>
<clipPath id="clip0_94_1840">
<rect width="137.611" height="40" fill="white"/>
</clipPath>
</defs>
</svg>
