<svg width="180" height="40" viewBox="0 0 180 40" fill="none" xmlns="http://www.w3.org/2000/svg">
<g clip-path="url(#clip0_96_2367)">
<path d="M76.4346 25.5545V3.27507H68.3267V5.90821C68.3267 10.5285 68.1141 13.8567 67.8974 15.6803C67.6275 19.0616 67.1451 23.1422 64.0826 25.023C62.6883 25.8244 61.29 25.9879 59.7853 26.0983L59.0371 22.8764C59.5768 22.7701 60.9179 22.5534 61.7193 22.1241C62.8478 21.5353 63.7064 19.9244 64.1398 17.1277C64.3525 15.7334 64.6755 13.1575 64.6755 5.69559V0H80.2453V25.5545H76.4346Z" fill="#424242"/>
<path d="M126.489 25.5545V13.5296H115.425V25.5545H111.782V0H115.425V10.414H126.489V0H130.14V25.5545H126.489Z" fill="#424242"/>
<path d="M153.822 25.5545V5.3685H153.765L143.457 25.5545H139.111V0H142.758V20.2433H142.868L153.176 0H157.526V25.5545H153.822Z" fill="#424242"/>
<path d="M172.507 3.11152V25.5545H168.852V3.11152H161.873V0H179.487V3.11152H172.507Z" fill="#424242"/>
<path d="M92.5197 0.044976L84.4199 25.5545H87.9689L90.0256 18.9962H100.669L102.652 25.5545H106.585L98.2807 0.044976H92.5197ZM90.9087 15.9419L95.2141 1.25524H95.2918L99.7158 15.9419H90.9046" fill="#424242"/>
<path d="M45.7159 22.8764C41.9215 22.8764 38.5606 24.7326 36.4876 27.5866C36.2586 26.4376 35.9765 25.3051 35.6331 24.2011C38.213 21.6211 41.7784 20.0265 45.7159 20.0224L48.5861 20.002V17.1726H45.7159C41.4636 17.1726 37.5793 18.7304 34.5863 21.294C34.2102 20.3822 33.7972 19.4909 33.3475 18.62C36.7493 15.9296 41.0424 14.3187 45.7159 14.3187H48.5657L48.5943 11.4688H45.7159C40.5314 11.4688 35.7516 13.1983 31.9205 16.1136C31.4135 15.304 30.8779 14.5149 30.3055 13.7544C34.5986 10.5284 39.9344 8.61489 45.7159 8.6108H48.5943V5.76096H45.7159C39.2434 5.75687 33.282 7.91572 28.4941 11.5465C27.8563 10.831 27.1898 10.1441 26.4988 9.48579C31.8101 5.36435 38.4747 2.90294 45.7159 2.90294H48.5943V0.0530993H45.7159C37.6161 0.0530993 30.1746 2.87023 24.3155 7.57226C18.4522 2.87023 11.0148 0.0490106 2.91099 0.0449219H0.0366161V2.90703H2.91099C10.1521 2.90703 16.8167 5.36435 22.128 9.48579C21.4329 10.1441 20.7665 10.831 20.1327 11.5465C15.3489 7.91163 9.38344 5.75687 2.91099 5.75278H0.0366161V8.6108H2.91099C8.69245 8.6108 14.0282 10.5202 18.3214 13.7462C17.749 14.5067 17.2134 15.2959 16.7064 16.1054C12.8752 13.1902 8.09549 11.4566 2.91099 11.4566H0.0366161L0.0652371 14.3105H2.91099C7.5844 14.3105 11.8776 15.9214 15.2794 18.6118C14.8296 19.4827 14.4167 20.3741 14.0405 21.2858C11.0476 18.7181 7.16326 17.1644 2.91099 17.1644H0.0366161L0.0407048 19.9979L2.91099 20.0183C6.84843 20.0183 10.4097 21.617 12.9938 24.197C12.6544 25.301 12.3682 26.4335 12.1433 27.5825C10.0703 24.7326 6.70942 22.8764 2.91508 22.8723L0.00390625 22.8845V25.7303H2.91099C7.63756 25.7303 11.4646 29.5614 11.4646 34.288L11.4728 39.9795L14.3308 39.9999V38.4708V34.288C14.3308 31.7857 14.6334 29.357 15.1853 27.0264C16.4447 29.1526 17.1725 31.6344 17.1725 34.288L17.1438 39.9795H20.0428L20.0305 36.2915L20.0387 34.288C20.0387 31.5445 20.4721 28.9031 21.2694 26.4254C22.3038 28.8377 22.8803 31.4954 22.8803 34.288V39.9795H22.913H25.7465V34.288C25.7465 31.4954 26.3189 28.8377 27.3534 26.4254C28.1507 28.9031 28.5841 31.5445 28.5841 34.288L28.5923 36.271L28.58 39.9795H31.4789L31.4503 34.288C31.4503 31.6344 32.1781 29.1526 33.4374 27.0264C33.9894 29.357 34.292 31.7857 34.292 34.288V38.4912V39.9999L37.1459 39.9795L37.1541 34.288C37.1541 29.5614 40.9852 25.7303 45.7077 25.7262H48.6189V22.8845L45.7077 22.8723L45.7159 22.8764ZM29.7371 17.9985C29.0216 18.7018 28.3551 19.45 27.7377 20.2391C27.243 19.3641 26.7033 18.5219 26.1186 17.7082C26.7442 16.9682 27.4147 16.2649 28.1221 15.5984C28.6945 16.3712 29.2383 17.1726 29.7412 17.9985H29.7371ZM24.3114 11.3462C25.0065 11.9963 25.6729 12.675 26.3067 13.3823C25.6075 14.0324 24.941 14.7194 24.3114 15.4349C23.6817 14.7194 23.0153 14.0324 22.3161 13.3823C22.9498 12.6709 23.6163 11.9922 24.3114 11.3462ZM20.5048 15.5984C21.2121 16.2649 21.8786 16.9682 22.5083 17.7082C21.9277 18.5219 21.3839 19.3682 20.8891 20.2391C20.2717 19.45 19.6053 18.6977 18.8897 17.9985C19.3926 17.1726 19.9324 16.3712 20.5089 15.5984H20.5048ZM18.2274 26.6543C17.6713 25.5422 17.0007 24.4955 16.2239 23.5387C16.5878 22.5411 17.0007 21.568 17.4587 20.6194C18.1865 21.3962 18.8611 22.2263 19.4581 23.1135C18.9715 24.2584 18.5626 25.44 18.2233 26.6543H18.2274ZM24.3114 26.3559C23.8657 25.1579 23.3219 24.013 22.6922 22.9213C23.1747 21.9482 23.7144 21.0078 24.3114 20.1124C24.9083 21.0119 25.448 21.9482 25.9305 22.9213C25.3009 24.013 24.757 25.162 24.3114 26.36V26.3559ZM30.3954 26.6543C30.0601 25.44 29.6513 24.2543 29.1606 23.1135C29.7617 22.2263 30.4322 21.3962 31.16 20.6194C31.6179 21.568 32.0309 22.5411 32.3948 23.5387C31.6179 24.4996 30.9474 25.5422 30.3913 26.6543H30.3954Z" fill="#424242"/>
</g>
<defs>
<clipPath id="clip0_96_2367">
<rect width="179.487" height="40" fill="white"/>
</clipPath>
</defs>
</svg>
