<svg width="89" height="54" viewBox="0 0 89 54" fill="none" xmlns="http://www.w3.org/2000/svg">
<g clip-path="url(#clip0_99_2762)">
<path d="M7.82216 52.8431L13.1995 47.4561L11.394 45.6474L8.02348 49.0249L1.89933 42.8859L-0.107422 44.902L7.82216 52.8431ZM10.0367 37.9786L11.394 39.3334L14.1801 36.533L15.7972 38.1536L13.0046 40.9541L14.7321 42.6784L18.1806 39.2232L19.7977 40.8439L14.3425 46.3152L6.40639 38.374L11.8681 32.8962L13.4852 34.5169L10.0367 37.9786ZM27.6948 32.9481L22.298 31.3988C22.5986 30.7543 22.6882 30.0317 22.5542 29.3335C22.4201 28.6354 22.0692 27.9971 21.5512 27.5092C21.2413 27.2205 20.8767 26.9965 20.4789 26.8503C20.081 26.7041 19.6579 26.6388 19.2344 26.6581C18.8109 26.6775 18.3956 26.781 18.0128 26.9628C17.6299 27.1446 17.2874 27.4009 17.0051 27.7167L12.9852 31.7423L20.9537 39.69L22.9669 37.6739L16.5505 31.2432L17.8494 29.9467C17.9814 29.8092 18.1393 29.6992 18.3139 29.6228C18.4886 29.5464 18.6767 29.5053 18.8674 29.5017C19.0581 29.498 19.2476 29.5321 19.4251 29.6018C19.6026 29.6714 19.7645 29.7754 19.9016 29.9078C20.171 30.1855 20.3189 30.5587 20.3128 30.9452C20.3067 31.3318 20.1471 31.7001 19.8691 31.9692L18.6872 33.1555L25.5452 35.1003L27.6948 32.9481ZM24.0645 20.333C26.5453 17.8502 29.825 18.0901 32.1434 20.4173C34.4619 22.7445 34.7087 26.0312 32.2279 28.514C29.747 30.9969 26.4739 30.757 24.1489 28.4103C21.8239 26.0636 21.5837 22.7964 24.0645 20.3136M25.6361 21.9277C24.3762 23.1854 24.7983 24.7217 26.331 26.2581C27.8637 27.7945 29.3898 28.2029 30.6497 26.9517C31.9096 25.7006 31.4875 24.1577 29.9548 22.6214C28.4222 21.085 26.896 20.6312 25.6361 21.9277ZM34.5334 16.1583L33.0526 11.6723L35.4036 9.31915L37.3714 17.014L40.4757 20.1256L38.4689 22.1417L35.3776 19.043L28.0195 16.7158L30.2341 14.4987L34.4879 16.1518L34.5334 16.1583ZM71.2198 43.5406L79.1559 35.5995L77.0388 33.4797L69.1092 41.4208L71.2198 43.5406ZM40.8783 13.1374L47.0479 10.1878L42.4889 14.7515L44.3268 16.5926L52.2499 8.64497L49.7366 6.12325L43.7683 9.0404L46.7557 3.13479L44.158 0.535278L36.2284 8.47642L38.0598 10.3175L42.6188 5.75374L39.6769 11.9316L40.8783 13.1374ZM54.6268 14.2654L53.2695 15.6202L56.3153 18.667L54.6983 20.2877L51.6589 17.2408L49.9314 18.9652L53.6332 22.6732L52.0161 24.2939L46.3011 18.5698L54.2307 10.6221L59.9457 16.3463L58.3286 17.9669L54.6268 14.2654ZM62.2771 34.5882L67.6545 39.9817L69.4664 38.1666L66.0958 34.7956L72.22 28.6566L70.2067 26.647L62.2771 34.5882ZM83.6435 40.0919L81.0977 48.5127H81.0912L86.5724 43.0285L88.4558 44.9149L80.5262 52.8561L78.0389 50.3668L80.208 41.6866H80.2145L74.7982 47.1125L72.9668 45.2779L80.8899 37.3368L83.6435 40.0919ZM60.777 33.0842L62.3031 27.6778C62.9484 27.9821 63.674 28.0732 64.3746 27.938C65.0753 27.8028 65.7146 27.4482 66.1997 26.9258C66.4862 26.6152 66.7083 26.2512 66.8532 25.8546C66.9982 25.4581 67.0632 25.0368 67.0445 24.6151C67.0258 24.1934 66.9238 23.7795 66.7442 23.3973C66.5647 23.0151 66.3112 22.6721 65.9984 22.388L61.7316 18.1095L53.7955 26.0766L55.8088 28.0927L62.2382 21.662L63.7644 23.2243C63.8974 23.3566 64.003 23.5139 64.0752 23.687C64.1473 23.8601 64.1846 24.0457 64.1849 24.2332C64.1852 24.4208 64.1485 24.6065 64.0769 24.7798C64.0053 24.9532 63.9002 25.1108 63.7676 25.2436C63.635 25.3764 63.4775 25.4818 63.304 25.5538C63.1306 25.6259 62.9446 25.6631 62.7568 25.6634C62.5689 25.6637 62.3829 25.6271 62.2092 25.5556C62.0355 25.4841 61.8777 25.3792 61.7446 25.2468L60.2899 23.8012L58.6014 30.932L60.777 33.0842Z" fill="#424242"/>
<path d="M9.32812 54.3664H79.0318L44.1767 19.4448L9.32812 54.3664Z" fill="#B5B5B5"/>
</g>
<defs>
<clipPath id="clip0_99_2762">
<rect width="89" height="54" fill="white"/>
</clipPath>
</defs>
</svg>
