<svg width="190" height="40" viewBox="0 0 190 40" fill="none" xmlns="http://www.w3.org/2000/svg">
<path d="M3.55543 3.55181C1.25997 5.84365 0 8.88494 0 12.1109V27.98L1.0898 27.8134C3.76542 27.4043 5.83277 25.1921 6.1188 22.4477L6.15501 12.1145C6.15501 10.5359 6.77775 9.04063 7.90737 7.90738C9.037 6.77776 10.5323 6.15502 12.1109 6.15502H40.08V7.78131e-06H12.1109C8.88856 -0.00361281 5.84726 1.25635 3.55543 3.55181Z" fill="#424242"/>
<path d="M33.9358 18.081L33.9286 27.8892C33.9286 29.4714 33.3059 30.9631 32.1762 32.0927C31.0466 33.2223 29.5549 33.845 27.9727 33.845H0V40H27.9727C31.1987 40 34.24 38.7365 36.5318 36.4446C38.8272 34.1528 40.0872 31.1151 40.0872 27.8892V12.0201L38.9974 12.1867C36.1118 12.6247 33.9358 15.1592 33.9358 18.081Z" fill="#424242"/>
<path d="M28.5154 27.9975V12.3348H23.9426L20.0432 17.3711L16.1402 12.3348H11.5674V27.9975H16.3973V20.0395L20.0432 24.395L23.6891 20.0395V27.9975H28.5154Z" fill="#424242"/>
<path fill-rule="evenodd" clip-rule="evenodd" d="M65.8804 16.5593L59.9607 8.91626H54.1895V31.1431H60.0403V17.9352L65.8804 24.912L71.724 17.9352V31.1431H77.5749V8.91626H71.8036L65.8804 16.5593ZM111.203 31.1431H105.348V8.91628H119.385V14.0792H111.203V31.1431ZM128.346 17.2147H137.039V8.91628H142.89V31.1431H137.039V22.4392H128.346V31.1431H122.495V8.91628H128.346V17.2147ZM170.011 14.0792H176.847V31.1431H182.701V14.0792H189.57V8.91628H170.011V14.0792ZM153.049 8.92396V21.4548L162.206 8.92396H167.256V31.1435H161.402V18.4787L152.09 31.1435H147.195V8.92396H153.049ZM79.7418 31.1469L88.7426 8.92012H94.1554L103.156 31.1469H97.1714L95.9548 28.0296H86.849L85.6325 31.1469H79.7418ZM91.4001 16.3568L88.6811 23.3301H94.1192L91.4001 16.3568Z" fill="#424242"/>
</svg>
