<svg width="54" height="54" viewBox="0 0 54 54" fill="none" xmlns="http://www.w3.org/2000/svg">
<g clip-path="url(#clip0_94_1844)">
<path fill-rule="evenodd" clip-rule="evenodd" d="M0 0H54V54H0V0ZM46.2343 46.9094C46.5546 46.6001 46.7534 46.1914 46.8308 45.6944V45.7054H49.8681C49.7908 46.7327 49.4375 47.6163 48.83 48.3122C48.2667 48.9528 47.5045 49.4167 46.5436 49.7039C45.6158 49.98 44.3897 50.1236 43.0092 50.1236C41.5512 50.1236 40.292 49.9137 39.2537 49.5051C38.2045 49.0853 37.3871 48.3895 36.8238 47.4285C36.2826 46.5117 36.0065 45.2748 35.9844 43.7726V43.64V43.629L36.1501 43.618L35.9844 43.6069V43.4633C36.0065 41.9611 36.2826 40.724 36.8238 39.8074C37.3871 38.8464 38.2045 38.1506 39.2537 37.7309C40.292 37.3222 41.5512 37.1123 43.0092 37.1123C44.3897 37.1123 45.6158 37.2559 46.5436 37.532C47.5045 37.8192 48.2777 38.2831 48.83 38.9238C49.4375 39.6307 49.7798 40.5031 49.8681 41.5304H46.8308C46.7534 41.0333 46.5546 40.6246 46.2343 40.3154C45.9361 40.0171 45.5274 39.8184 45.0193 39.6969C44.5223 39.5865 43.7823 39.5202 43.0092 39.5202C42.2028 39.5202 41.4849 39.6196 40.8884 39.8295C40.303 40.0283 39.8502 40.3816 39.5188 40.8676C39.1874 41.3647 39.0218 42.0716 39.0218 42.9773V44.2475C39.0218 45.1643 39.1874 45.8711 39.5188 46.3571C39.8391 46.8431 40.303 47.1966 40.8884 47.3954C41.4959 47.6052 42.2028 47.7047 43.0092 47.7047C43.7823 47.7047 44.5223 47.6384 45.0193 47.5279C45.5274 47.4064 45.9361 47.1966 46.2343 46.9094ZM16.4356 4.15295L12.4593 12.3927L8.49409 4.15295H4.15332V16.612H7.20179V7.69847L11.0787 15.2313H13.851L17.7278 7.69847V16.612H20.7653V4.15295H16.4356ZM35.9736 6.63813V4.15295H49.8686V6.63813H44.4454V16.612H41.4079V6.63813H35.9736Z" fill="#424242"/>
</g>
<defs>
<clipPath id="clip0_94_1844">
<rect width="54" height="54" fill="white"/>
</clipPath>
</defs>
</svg>
