<svg width="130" height="54" viewBox="0 0 130 54" fill="none" xmlns="http://www.w3.org/2000/svg">
<g clip-path="url(#clip0_94_1851)">
<path d="M27.2803 20.25L38.9718 27L46.7651 0L27.2803 20.25Z" fill="#424242"/>
<path d="M38.9718 27.0007L27.2803 33.7507L46.7651 54.0001L38.9718 27.0007Z" fill="#7E7E7E"/>
<path d="M46.7658 53.9996L0.000976562 27.0002L27.281 33.7502L46.7658 53.9996Z" fill="#B5B5B5"/>
<path d="M27.28 20.25L0 27L46.7649 0L27.28 20.25Z" fill="#8D8D8D"/>
<path d="M46.766 53.9994L38.9727 27L46.766 0V53.9994Z" fill="#8E8E8E"/>
<path d="M0.000976562 26.9996L27.281 33.7496V20.2496L0.000976562 26.9996Z" fill="#7A7A7A"/>
<path d="M55.2766 24.1658L57.6534 31.9667H59.4822L61.859 24.1658V31.9667H63.6268V22.0322H60.9452L58.5678 29.7118L56.252 22.0322H53.5094V31.9667H55.2766V24.1658ZM72.0373 18.3143C72.2202 18.4972 72.464 18.6185 72.7688 18.6185H75.9381C76.1819 18.6185 76.4867 18.4965 76.6696 18.3143L77.9498 17.0341L76.9744 15.8759L75.8771 16.9116C75.8162 16.9726 75.7552 16.9726 75.6333 16.9726H73.134C73.073 16.9726 73.012 16.9726 72.9511 16.9116L72.3421 16.3026C72.2812 16.2417 72.2812 16.1807 72.2812 16.1198V11.2436C72.2812 11.1827 72.2812 11.1217 72.3421 11.0607L72.9511 10.4518C73.012 10.3908 73.073 10.3908 73.134 10.3908H75.4498C75.5717 10.3908 75.6327 10.3908 75.6936 10.4518L76.7909 11.4875L77.9491 10.2689L76.669 8.98876C76.4861 8.80588 76.1813 8.68396 75.9375 8.68396H72.7682C72.4634 8.68396 72.2196 8.80588 72.0367 8.98876L70.8175 10.2073C70.5737 10.4512 70.4517 10.695 70.4517 10.9388V16.363C70.4517 16.6068 70.5737 16.8506 70.8175 17.0945L72.0373 18.3143ZM69.2948 36.9038L68.0762 35.6846C67.8933 35.5017 67.6495 35.3798 67.3447 35.3798H63.6268C63.383 35.3798 63.1391 35.5017 62.8953 35.6846L61.6761 36.9038C61.4932 37.1476 61.3719 37.3915 61.3719 37.6353V43.0594C61.3719 43.3033 61.4939 43.5471 61.6761 43.7903L62.8953 45.0095C63.1391 45.1924 63.383 45.3143 63.6268 45.3143H67.3447C67.6495 45.3143 67.8933 45.1924 68.0762 45.0095L69.2948 43.7903C69.5386 43.5465 69.6605 43.3026 69.6605 43.0594V37.6359C69.6605 37.3915 69.5386 37.1476 69.2948 36.9038ZM67.7714 42.7553C67.7714 42.8162 67.7714 42.8766 67.7105 42.9375L67.1015 43.5471C67.0405 43.6087 66.9796 43.6087 66.9186 43.6087H64.1145C63.9926 43.6087 63.9316 43.6087 63.8706 43.5471L63.322 42.9375C63.261 42.8766 63.2001 42.8162 63.2001 42.7553V37.9395C63.2001 37.8785 63.261 37.8182 63.322 37.7572L63.8706 37.1476C63.9316 37.086 63.9926 37.086 64.1145 37.086H66.9186C66.9796 37.086 67.0405 37.086 67.1015 37.1476L67.7105 37.7572C67.7714 37.8182 67.7714 37.8785 67.7714 37.9395V42.7553ZM83.3739 45.3149H85.1411V37.086H89.3467V45.3149H91.1145V35.3798H83.3739V45.3149ZM100.317 36.9038L99.0983 35.6846C98.8544 35.5017 98.6106 35.3798 98.3674 35.3798H95.1372C94.8927 35.3798 94.6495 35.5017 94.4057 35.6846L93.1865 36.9038C93.0042 37.1476 92.8823 37.3915 92.8823 37.6353V45.3149H94.6501V42.267H98.8551V45.3149H100.623V37.6359C100.623 37.3915 100.501 37.1476 100.317 36.9038ZM98.8551 40.6826H94.6501V37.9395C94.6501 37.8785 94.7111 37.8182 94.7714 37.7572L95.3194 37.1476C95.381 37.086 95.4413 37.086 95.5639 37.086H97.9407C98.0626 37.086 98.1236 37.086 98.1845 37.1476L98.7325 37.7572C98.7941 37.8182 98.8544 37.8785 98.8544 37.9395L98.8551 40.6826ZM90.1391 26.1159H85.8726V22.0322H84.1054V31.9667H85.8726V27.8227H90.1391V31.9667H91.9063V22.0322H90.1391V26.1159ZM113.91 43.0601V35.3798H112.142V45.3149H114.58L118.115 37.6353V45.3149H119.882V35.3798H117.444L113.91 43.0601ZM101.111 23.5562L99.8914 22.3376C99.7085 22.1548 99.4647 22.0328 99.1599 22.0328H95.9912C95.6865 22.0328 95.4426 22.1548 95.2597 22.3376L94.0405 23.5562C93.7973 23.8 93.6754 24.0439 93.6754 24.2877V31.9667H95.4426V28.9194H99.6482V31.9667H101.415V24.2877C101.415 24.0439 101.354 23.7994 101.111 23.5562ZM99.6475 27.3344H95.442V24.5919C95.442 24.5309 95.442 24.4699 95.5036 24.409L96.1125 23.7994C96.1735 23.7384 96.2344 23.7384 96.2954 23.7384H98.7947C98.8557 23.7384 98.9167 23.7384 98.9776 23.7994L99.5866 24.409C99.6482 24.4699 99.6482 24.5309 99.6482 24.5919L99.6475 27.3344ZM60.7007 9.96411L59.7254 8.98876C59.5425 8.80588 59.2987 8.68396 59.0548 8.68396H53.5088V18.6185H55.276V15.2663H59.0555C59.2993 15.2663 59.5431 15.1444 59.726 14.9615L60.7014 13.9862C60.9452 13.7423 61.0671 13.5595 61.0671 13.2547V10.695C61.0665 10.3908 60.9452 10.147 60.7007 9.96411ZM64.2358 14.8402C64.4186 15.145 64.7234 15.145 64.7844 15.145H65.0282L63.2604 18.6191H65.2111L70.0872 8.6846H68.1365L65.8817 13.4388H65.6988C65.5769 13.4388 65.5159 13.3169 65.455 13.195L63.5049 8.6846H61.3103L64.2358 14.8402ZM81.7286 30.2598V22.0322H76.6093C76.3045 22.0322 76.0606 22.1541 75.8778 22.337L74.6592 23.5556C74.4154 23.7994 74.3544 24.0432 74.3544 24.2871V30.2598H73.1962V31.9667H82.7649V30.2598H81.7286ZM76.121 30.2598V24.6528C76.121 24.5919 76.121 24.5309 76.1819 24.4699L76.9134 23.7384C76.9744 23.6775 77.0354 23.6775 77.0963 23.6775H79.9608V30.2598H76.121ZM67.1009 24.1658L67.4666 23.8C67.5276 23.7391 67.5885 23.7391 67.6495 23.7391H71.9764V22.0322H67.2831C67.0393 22.0322 66.7954 22.1541 66.6126 22.337L65.6372 23.3123C65.3934 23.4952 65.2714 23.7391 65.2714 24.0439V29.9557C65.2714 30.2598 65.3934 30.5043 65.6372 30.6865L66.6126 31.6619C66.7954 31.8448 67.0393 31.9661 67.2831 31.9661H71.9764V30.2592H67.6495C67.5885 30.2592 67.5276 30.2592 67.4666 30.1982L67.1009 29.8325C67.0399 29.7715 67.0399 29.7112 67.0399 29.6502V27.7618H71.9764V26.1159H67.0399V24.348C67.0399 24.2877 67.0399 24.2261 67.1009 24.1658ZM108.424 39.4635H104.157V35.3792H102.39V45.3143H104.157V41.1697H108.424V45.3143H110.191V35.3798H108.424V39.4635ZM55.2766 10.3908H58.6288C58.7507 10.3908 58.8116 10.3908 58.8726 10.4518L59.2384 10.8175C59.2993 10.8785 59.2993 10.9395 59.2993 11.0004V12.9505C59.2993 13.0115 59.2993 13.0724 59.2384 13.1334L58.8726 13.4991C58.8116 13.5601 58.7507 13.5601 58.6288 13.5601H55.2766V10.3908ZM55.2766 41.2916H55.8253C55.9472 41.2916 56.0081 41.3526 56.0691 41.4135L58.9336 45.3149H61.3103L57.5315 40.3778L61.1275 35.3798H58.9336L56.191 39.2812C56.0081 39.525 55.9472 39.6463 55.8253 39.6463H55.2766V35.3798H53.5094V45.3149H55.2766V41.2916ZM123.661 35.3798C123.417 35.3798 123.173 35.5017 122.991 35.6846L121.954 36.6593C121.771 36.8428 121.649 37.086 121.649 37.3908V39.9505C121.649 40.2553 121.771 40.4382 121.954 40.682L122.991 41.6567C123.173 41.8396 123.356 41.9615 123.6 41.9615H123.844L121.223 45.3137H123.295L125.734 42.0828C125.795 42.0218 125.855 41.9615 125.978 41.9615H127.318V45.3137H129.086V35.3798H123.661ZM127.318 40.4388H124.149C124.028 40.4388 123.967 40.4388 123.905 40.3778L123.478 39.9511C123.417 39.8902 123.417 39.8298 123.417 39.7689V37.6963C123.417 37.6353 123.417 37.5743 123.478 37.5127L123.844 37.1476C123.905 37.086 123.966 37.086 124.088 37.086H127.318V40.4388ZM73.0736 37.5127L75.4504 45.3149H77.2786L79.656 37.5127V45.3149H81.4232V35.3798H78.7416L76.3648 43.0601L74.049 35.3798H71.3064V45.3149H73.0743L73.0736 37.5127ZM103.487 10.2079L102.268 8.98939C102.085 8.80651 101.841 8.6846 101.537 8.6846H98.368C98.0639 8.6846 97.8194 8.80651 97.6372 8.98939L96.418 10.2079C96.1735 10.4518 96.0522 10.6956 96.0522 10.9395V18.6191H97.8194V15.5718H102.025V18.6191H103.792V10.9395C103.792 10.6956 103.731 10.4518 103.487 10.2079ZM102.024 13.9868H97.8188V11.2443C97.8188 11.1833 97.8188 11.1223 97.8797 11.0614L98.49 10.4524C98.5509 10.3915 98.6112 10.3915 98.6722 10.3915H101.172C101.232 10.3915 101.293 10.3915 101.354 10.4524L101.964 11.0614C102.025 11.1223 102.025 11.1833 102.025 11.2443L102.024 13.9868ZM105.011 22.0322C104.767 22.0322 104.523 22.1541 104.34 22.337L103.304 23.3123C103.121 23.4952 102.999 23.7391 102.999 24.0439V26.6035C102.999 26.9077 103.121 27.0912 103.304 27.3344L104.34 28.3104C104.523 28.4926 104.706 28.6146 104.95 28.6146H105.194L102.572 31.9661H104.645L107.083 28.7365C107.144 28.6749 107.205 28.6146 107.327 28.6146H108.668V31.9661H110.435V22.0322H105.011ZM108.668 27.0912H105.498C105.377 27.0912 105.316 27.0912 105.255 27.0302L104.828 26.6035C104.767 26.5426 104.767 26.4816 104.767 26.4207V24.348C104.767 24.2871 104.767 24.2261 104.828 24.1651L105.194 23.7994C105.255 23.7384 105.316 23.7384 105.437 23.7384H108.668V27.0912ZM107.388 8.6846C107.144 8.6846 106.9 8.80651 106.717 8.98939L105.681 9.96475C105.498 10.1476 105.376 10.3915 105.376 10.6963V13.2559C105.376 13.5607 105.498 13.7436 105.681 13.9874L106.717 14.9628C106.9 15.1457 107.083 15.2676 107.327 15.2676H107.57L104.95 18.6197H107.022L109.46 15.3895C109.522 15.3286 109.582 15.2676 109.704 15.2676H111.044V18.6197H112.812V8.6846H107.388ZM111.044 13.7436H107.876C107.754 13.7436 107.693 13.7436 107.631 13.6826L107.205 13.2559C107.144 13.195 107.144 13.134 107.144 13.073V11.0011C107.144 10.9401 107.144 10.8791 107.205 10.8182L107.57 10.4524C107.631 10.3915 107.692 10.3915 107.815 10.3915H111.044V13.7436ZM89.3467 14.5964H89.8953C90.0172 14.5964 90.0782 14.6574 90.1391 14.7183L93.0042 18.6191H95.381L91.6022 13.6826L95.1981 8.6846H93.0042L90.2617 12.5854C90.0788 12.8292 90.0178 12.9511 89.8959 12.9511H89.3473V8.6846H87.5801V18.6191H89.3473L89.3467 14.5964ZM80.5704 18.3143C80.7533 18.4972 80.9971 18.6185 81.3019 18.6185H84.4712C84.7144 18.6185 85.0198 18.4965 85.2027 18.3143L86.4828 17.0341L85.5075 15.8759L84.4102 16.9116C84.3492 16.9726 84.2883 16.9726 84.1664 16.9726H81.6677C81.6067 16.9726 81.5457 16.9726 81.4848 16.9116L80.8752 16.3026C80.8142 16.2417 80.8142 16.1807 80.8142 16.1198V11.2436C80.8142 11.1827 80.8142 11.1217 80.8752 11.0607L81.4848 10.4518C81.5457 10.3908 81.6067 10.3908 81.6677 10.3908H83.9835C84.1054 10.3908 84.1664 10.3908 84.2273 10.4518L85.3246 11.4875L86.4822 10.2689L85.202 8.98876C85.0192 8.80588 84.7137 8.68396 84.4705 8.68396H81.3013C80.9965 8.68396 80.7526 8.80588 80.5697 8.98876L79.3512 10.2073C79.1074 10.4512 78.9854 10.695 78.9854 10.9388V16.363C78.9854 16.6068 79.1074 16.8506 79.3512 17.0945L80.5704 18.3143Z" fill="#424242"/>
</g>
<defs>
<clipPath id="clip0_94_1851">
<rect width="129.086" height="54" fill="white"/>
</clipPath>
</defs>
</svg>
