<svg width="122" height="54" viewBox="0 0 122 54" fill="none" xmlns="http://www.w3.org/2000/svg">
<g clip-path="url(#clip0_94_1819)">
<path d="M9.94704 15.6095C14.9528 15.6095 19.9258 17.0534 19.9258 23.7299C19.9258 28.9923 16.2362 31.3986 11.3266 31.3986H6.96302V38.4577H0V15.6095H9.94704ZM6.96022 26.0699H10.3288C12.0294 26.0699 13.2176 25.5248 13.2176 23.6636C13.2176 22.0274 12.2543 21.2247 10.2009 21.2247H6.96022V26.0699Z" fill="#424242"/>
<path d="M45.0813 27.0322C45.0813 34.1875 40.4602 39 33.5942 39C26.5995 39 21.9148 34.2192 21.9148 27.0005C21.9148 19.749 26.5668 15 33.6586 15C40.4928 15 45.0813 19.8442 45.0813 27.0322ZM29.0375 26.9034C29.0375 30.9776 30.7063 33.3204 33.5942 33.3204C36.4494 33.3204 37.9895 31.0429 37.9895 26.7102C37.9895 22.8917 36.3533 20.6134 33.5615 20.6134C30.7381 20.6134 29.0375 22.9897 29.0375 26.9034Z" fill="#424242"/>
<path d="M68.3766 15.6095V38.4549H61.4136V21.4814H57.2134V22.8273C57.2134 29.3087 57.374 38.8712 49.2563 38.8712C48.301 38.885 47.3523 38.7103 46.4646 38.3569V32.934C46.8865 33.1683 47.3616 33.2902 47.8441 33.2877C50.2187 33.2877 50.3148 29.1482 50.3148 25.4259V15.6095H68.3766Z" fill="#424242"/>
<path d="M78.6802 22.6995H82.5621C88.7869 22.6995 91.5795 25.6191 91.5795 30.3998C91.5795 35.3412 88.406 38.4213 82.1459 38.4213H71.6855V15.5768H78.6802V22.6995ZM78.6802 32.9666H81.892C83.3994 32.9666 84.7799 32.4533 84.7799 30.4633C84.7799 28.5032 83.5926 27.8965 81.9247 27.8965H78.684L78.6802 32.9666Z" fill="#424242"/>
<path d="M110.83 36.2419V38.4558H103.964V36.2419C97.5139 36.2419 93.5032 32.2946 93.5032 26.937C93.5032 22.6687 96.4555 17.8832 103.964 17.8832V15.6058H110.83V17.8832C117.472 17.8832 121.191 21.9584 121.191 26.867C121.191 32.2573 117.533 36.2372 110.83 36.2372M104.124 22.8273C101.332 22.8273 100.498 25.2336 100.498 26.9342C100.498 28.955 101.364 31.266 104.124 31.266V22.8273ZM110.67 22.8273V31.2333C113.657 31.2333 114.199 28.506 114.199 26.9342C114.199 25.3941 113.525 22.8273 110.67 22.8273Z" fill="#424242"/>
</g>
<defs>
<clipPath id="clip0_94_1819">
<rect width="121.191" height="54" fill="white"/>
</clipPath>
</defs>
</svg>
