<svg width="289" height="54" viewBox="0 0 289 54" fill="none" xmlns="http://www.w3.org/2000/svg">
<g clip-path="url(#clip0_94_1821)">
<path d="M64.9873 31.4918L63.8962 16.4476C63.8453 15.7633 63.6109 15.1067 63.2189 14.5502C62.8269 13.9936 62.2924 13.5589 61.6743 13.2937C61.0263 12.9989 60.3118 12.8913 59.6084 12.9826C58.9049 13.074 58.2393 13.3607 57.6837 13.8118L44.7351 24.2963L43.2259 23.0483L46.9085 19.5609C47.3146 19.1776 47.6316 18.7061 47.8364 18.181C48.0413 17.6558 48.1288 17.0904 48.0925 16.5262C48.0562 15.9619 47.8971 15.4131 47.6268 14.92C47.3564 14.427 46.9817 14.0021 46.5301 13.6766L32.7765 3.70571C32.2686 3.33607 31.6784 3.10271 31.0597 3.02698C30.4411 2.95125 29.8138 3.03556 29.2352 3.27221C28.6566 3.50886 28.1452 3.89029 27.7477 4.38162C27.3502 4.87294 27.0794 5.45847 26.9599 6.08467L24.7336 17.4433H24.6853C24.3126 17.5457 23.9579 17.7068 23.6337 17.9209L22.7537 18.5156L22.8373 18.1011C22.9483 17.5505 22.9376 16.9815 22.8058 16.4358C22.6741 15.8901 22.4248 15.3815 22.0761 14.9472C21.7259 14.5088 21.2848 14.1557 20.7849 13.9133C20.2849 13.671 19.7386 13.5455 19.1855 13.5459H3.73342C3.0019 13.5419 2.28552 13.7592 1.67417 14.1706C1.06281 14.582 0.583737 15.1691 0.297051 15.8583C0.0103637 16.5475 -0.0711588 17.308 0.0627142 18.0446C0.196587 18.781 0.539894 19.4606 1.04955 19.998L8.60838 27.9459L5.00936 30.3429C4.48636 30.6909 4.05752 31.1684 3.7625 31.7311C3.46748 32.2938 3.31581 32.9237 3.32151 33.5624C3.32721 34.2011 3.4901 34.828 3.79512 35.3851C4.10014 35.9423 4.53744 36.4116 5.06656 36.7498L26.4496 50.4153C27.0413 50.796 27.7256 50.9986 28.4244 51C29.1232 51.0015 29.8083 50.8017 30.4015 50.4234C30.9948 50.0452 31.4722 49.5039 31.7793 48.8611C32.0864 48.2183 32.2109 47.5 32.1384 46.7883L30.8757 34.7808L32.2881 33.4292L33.9512 45.2519C34.0409 45.8821 34.2674 46.4837 34.614 47.0125C34.9607 47.5413 35.4186 47.9838 35.9542 48.3075C36.4898 48.6312 37.0894 48.828 37.709 48.8832C38.3285 48.9383 38.9524 48.8507 39.5346 48.6265L56.3769 42.1701C56.9718 41.9422 57.5076 41.5776 57.943 41.104C58.3784 40.6305 58.7017 40.0609 58.888 39.4391C59.0741 38.8173 59.1184 38.16 59.0171 37.518C58.9159 36.8759 58.6719 36.2662 58.3041 35.736L58.216 35.6099L61.2255 35.5829C61.756 35.5754 62.2794 35.4577 62.7642 35.237C63.249 35.0163 63.685 34.6971 64.0457 34.2987C64.3844 33.9234 64.6429 33.48 64.8051 32.9967C64.9671 32.5135 65.0292 32.0009 64.9873 31.4918ZM44.5107 28.6127L47.5685 30.9421L43.0368 30.9691C42.9331 30.97 42.8318 30.9374 42.7473 30.8759C42.6627 30.8144 42.5993 30.7272 42.566 30.6267C42.5306 30.5266 42.5273 30.4176 42.5566 30.3156C42.5859 30.2134 42.6462 30.1236 42.7287 30.059L44.5107 28.6127ZM24.8524 33.4381L26.6344 22.7554L27.4219 32.4695L27.3955 32.4966L26.5816 33.2759L25.8468 33.9878C25.7535 34.077 25.6346 34.133 25.5079 34.1476C25.3811 34.1623 25.2531 34.1346 25.1428 34.0689C25.0327 34.0083 24.9449 33.9127 24.8925 33.7965C24.8402 33.6803 24.8261 33.5498 24.8524 33.4246V33.4381ZM6.2853 18.0921C6.18089 17.9841 6.11044 17.8466 6.08299 17.6973C6.05555 17.5479 6.07238 17.3935 6.1313 17.2541C6.18824 17.1122 6.28524 16.9909 6.40987 16.9059C6.5345 16.8207 6.68109 16.7757 6.83087 16.7764H18.8687C18.9902 16.7643 19.1128 16.7822 19.2262 16.8284C19.3396 16.8747 19.4406 16.9481 19.5207 17.0425C19.6007 17.1368 19.6576 17.2494 19.6866 17.3709C19.7155 17.4924 19.7157 17.6191 19.6871 17.7407L19.0007 20.9982L12.8894 25.0533L6.2853 18.0921ZM18.2395 25.301L17.5795 28.1126C17.5501 28.2648 17.4803 28.4059 17.3779 28.5203C17.2755 28.6347 17.1443 28.7181 16.9988 28.7613C16.8525 28.8039 16.6977 28.8054 16.5507 28.7658C16.4037 28.7262 16.2697 28.6469 16.1629 28.536L15.1421 27.4367L18.2395 25.301ZM28.2358 44.986C28.0923 45.0765 27.9271 45.1244 27.7585 45.1244C27.5899 45.1244 27.4246 45.0765 27.2811 44.986L8.94718 33.24C8.81222 33.1524 8.70103 33.0313 8.62409 32.8879C8.54716 32.7445 8.50693 32.5836 8.50719 32.4199C8.5056 32.2536 8.5451 32.0895 8.62203 31.943C8.69895 31.7965 8.81082 31.6722 8.94718 31.5819L10.8655 30.3068L13.8222 33.4201C14.2949 33.9182 14.891 34.275 15.5468 34.4523C16.2026 34.6296 16.893 34.6208 17.5442 34.4267C18.1954 34.2327 18.7827 33.8608 19.2431 33.3509C19.7036 32.841 20.0198 32.2123 20.1578 31.5323L21.8649 22.9716L23.9285 21.5974L21.4294 34.3033C21.2788 35.0945 21.3764 35.9143 21.7083 36.6453C22.0402 37.3764 22.5894 37.9811 23.2773 38.3731C23.9653 38.7651 24.7566 38.9241 25.5382 38.8276C26.3198 38.7311 27.0515 38.3839 27.6287 37.8357L27.9631 37.5157L28.6583 44.1029C28.6763 44.2741 28.6461 44.4469 28.5712 44.601C28.4964 44.7551 28.38 44.884 28.2358 44.9725V44.986ZM32.7412 17.8668C31.2277 18.7679 30.6161 20.1197 30.8406 22.0616C30.9901 23.3366 31.5665 28.3919 31.5665 28.3919L31.5357 28.4234C31.1617 28.7974 30.7965 29.1579 30.4269 29.5138L30.3125 29.6219L29.3754 20.6873C29.3232 20.1664 29.1646 19.6625 28.9099 19.2085C28.6552 18.7544 28.3101 18.3602 27.8971 18.0515L27.8575 18.0245L29.6614 8.75648C29.6774 8.58779 29.7361 8.4263 29.8318 8.28801C29.9276 8.14971 30.0568 8.0394 30.2069 7.96801C30.3718 7.91541 30.547 7.90727 30.7159 7.94437C30.8847 7.98147 31.0413 8.06254 31.1705 8.17977L42.2316 16.2898C42.3452 16.374 42.4394 16.4825 42.5078 16.6078C42.5762 16.7331 42.6171 16.8721 42.6276 17.0153C42.6401 17.1582 42.6209 17.3021 42.5714 17.4363C42.5218 17.5705 42.4432 17.6915 42.3416 17.7903L39.9041 20.1962L39.8557 20.2413L37.4402 18.2498C36.7908 17.6981 35.991 17.3653 35.1499 17.2968C34.3089 17.2282 33.4676 17.4273 32.7412 17.8668ZM34.708 25.3146L34.5936 25.4227L34.0656 21.6605C34.0511 21.5514 34.0597 21.4403 34.0907 21.3349C34.1216 21.2294 34.1743 21.132 34.2452 21.0492C34.3161 20.9663 34.4035 20.8999 34.5016 20.8546C34.5996 20.8094 34.706 20.7861 34.8136 20.7864C34.9849 20.787 35.151 20.8473 35.2843 20.9577L37.3742 22.6878L37.3082 22.7509L36.701 23.3547L35.5747 24.463L34.708 25.3146ZM53.9834 37.2093C53.9532 37.416 53.8695 37.6107 53.7411 37.7731C53.6127 37.9355 53.4442 38.0598 53.2531 38.133L38.7074 43.7515C38.5333 43.8207 38.346 43.8485 38.1599 43.8329C37.9737 43.8174 37.7935 43.7588 37.6326 43.6617C37.4717 43.5646 37.3344 43.4314 37.2309 43.2721C37.1275 43.1129 37.0606 42.9317 37.0355 42.7422L35.3195 30.5366L40.7049 25.4588L42.0248 26.5356L39.0813 29.212C37.5546 30.4464 37.2906 32.0189 37.7086 33.222C38.2234 34.7223 39.6005 35.6505 41.3296 35.6505H53.0419L53.5963 36.101C53.7525 36.2329 53.8712 36.4054 53.9401 36.6004C54.0089 36.7953 54.0255 37.0056 53.9879 37.2093H53.9834ZM59.7427 30.6086C59.6688 30.6896 59.5796 30.7546 59.4806 30.7995C59.3816 30.8444 59.2747 30.8684 59.1664 30.87L52.6986 30.906L47.243 26.4004L57.8729 17.7857C57.9692 17.6815 58.0908 17.6052 58.2253 17.5649C58.3598 17.5245 58.5024 17.5214 58.6384 17.5559C58.942 17.6821 58.9508 17.9614 58.9727 18.2228L59.9451 30.0139C59.9534 30.1217 59.9402 30.23 59.9061 30.3322C59.8721 30.4345 59.818 30.5286 59.7471 30.6086H59.7427Z" fill="#424242"/>
<path d="M137.29 26.3808C137.967 25.8453 138.51 25.1719 138.883 24.4093C139.255 23.6468 139.446 22.8143 139.441 21.9722C139.441 19.9239 138.719 18.2826 137.299 17.0874C135.878 15.8921 133.949 15.3032 131.549 15.3032C129.675 15.2718 127.826 15.7202 126.192 16.6023C124.913 17.3359 123.83 18.3494 123.036 19.5601C124.353 20.6167 125.809 21.7903 126.535 22.4053C127.052 21.6474 127.758 21.0254 128.589 20.5951C129.42 20.165 130.349 19.9402 131.292 19.9412C132.101 19.8923 132.901 20.1244 133.547 20.5951C133.807 20.8113 134.012 21.0818 134.147 21.3857C134.281 21.6897 134.341 22.0192 134.323 22.349C134.336 22.6652 134.276 22.9804 134.148 23.2717C134.019 23.5631 133.825 23.8233 133.579 24.0335C132.986 24.4945 132.235 24.7262 131.472 24.6832H128.551V28.8491H131.82C132.754 28.7875 133.683 29.0251 134.463 29.5248C134.749 29.7339 134.978 30.0067 135.13 30.3198C135.283 30.6328 135.354 30.9767 135.337 31.3219C135.35 31.7166 135.257 32.1078 135.069 32.4586C134.88 32.8095 134.602 33.1084 134.259 33.3269C133.415 33.8665 132.414 34.1349 131.401 34.0935C130.253 34.0862 129.125 33.8054 128.119 33.2763C127.112 32.7472 126.258 31.9864 125.633 31.062C124.51 31.9758 123.107 33.0975 122.12 33.8856C122.945 35.32 124.155 36.5163 125.624 37.35C127.402 38.2813 129.403 38.7486 131.428 38.7055C134.133 38.7055 136.324 38.0429 137.958 36.7394C138.758 36.1138 139.397 35.3197 139.828 34.4186C140.258 33.5176 140.466 32.5336 140.437 31.5428C140.446 29.1913 139.396 27.459 137.29 26.3808ZM85.1883 15.6929H76.4131V38.3028H81.8244V31.703H85.1704C88.539 31.703 94.2341 30.0097 94.2341 23.6785C94.2341 17.3472 88.5569 15.6929 85.1883 15.6929ZM85.062 27.3031H81.8244V20.1231H85.0441C86.6137 20.1231 88.9537 21.0715 88.9537 23.6785C88.9717 26.541 86.5143 27.3031 85.062 27.3031ZM108.429 15C105.958 15 103.542 15.7039 101.487 17.0227C99.432 18.3414 97.831 20.2159 96.885 22.4089C95.9389 24.6018 95.6926 27.0148 96.1746 29.3427C96.6574 31.6706 97.8481 33.8087 99.5959 35.4868C101.344 37.1649 103.571 38.3074 105.994 38.7699C108.419 39.2325 110.932 38.9942 113.214 38.0853C115.498 37.1764 117.449 35.6377 118.822 33.6637C120.194 31.6897 120.926 29.3692 120.925 26.9957C120.921 23.8149 119.602 20.7657 117.26 18.517C114.917 16.2682 111.742 15.0034 108.429 15ZM113.39 32.0625C112.068 33.3299 110.278 34.0419 108.41 34.0419C106.542 34.0419 104.75 33.3299 103.429 32.0625C102.157 30.6576 101.458 28.859 101.458 26.9978C101.458 25.1367 102.157 23.3381 103.429 21.9332C104.082 21.3025 104.857 20.802 105.712 20.4604C106.567 20.1188 107.483 19.943 108.41 19.943C109.335 19.943 110.252 20.1188 111.107 20.4604C111.962 20.802 112.738 21.3025 113.39 21.9332C114.669 23.3319 115.374 25.1298 115.374 26.9914C115.374 28.8528 114.669 30.6508 113.39 32.0495V32.0625ZM152.022 15.6929L141.799 38.3374H147.751L149.046 35.4489H158.196L159.489 38.3374H165.442L155.201 15.6929H152.022ZM150.701 31.2483L153.582 23.9686L156.459 31.2483H150.701ZM279.367 15.6929H270.591V38.3028H276.003V31.703H279.349C282.717 31.703 288.413 30.0097 288.413 23.6785C288.413 17.3472 282.736 15.6929 279.367 15.6929ZM279.241 27.3031H276.021V20.1231H279.241C280.814 20.1231 283.151 21.0715 283.151 23.6785C283.151 26.541 280.688 27.3031 279.241 27.3031ZM254.633 15C252.161 15 249.745 15.7039 247.691 17.0227C245.636 18.3414 244.034 20.2159 243.089 22.4089C242.143 24.6018 241.895 27.0148 242.378 29.3427C242.86 31.6706 244.051 33.8087 245.799 35.4868C247.547 37.1649 249.774 38.3074 252.198 38.7699C254.622 39.2325 257.135 38.9942 259.418 38.0853C261.701 37.1764 263.653 35.6377 265.025 33.6637C266.398 31.6897 267.13 29.3692 267.129 26.9957C267.123 23.8149 265.805 20.7657 263.463 18.517C261.121 16.2682 257.945 15.0034 254.633 15ZM259.593 32.0625C258.272 33.3299 256.48 34.0419 254.612 34.0419C252.745 34.0419 250.954 33.3299 249.632 32.0625C248.361 30.6576 247.661 28.859 247.661 26.9978C247.661 25.1367 248.361 23.3381 249.632 21.9332C250.284 21.3025 251.061 20.802 251.916 20.4604C252.77 20.1188 253.687 19.943 254.612 19.943C255.539 19.943 256.455 20.1188 257.31 20.4604C258.165 20.802 258.94 21.3025 259.593 21.9332C260.873 23.3319 261.578 25.1298 261.578 26.9914C261.578 28.8528 260.873 30.6508 259.593 32.0495V32.0625ZM197.594 15.6929H191.19L186.893 22.6002L182.578 15.6929H176.152L183.506 26.6709L175.566 38.3028H182.384L186.893 31.0274L191.402 38.3028H198.193L190.325 26.6709L197.594 15.6929ZM221.75 20.3483H229.006V38.3028H234.417V20.3483H241.727V15.6929H221.75V20.3483ZM210.5 27.1689L204.79 15.6929H198.743L207.862 32.8852C207.512 33.3122 207.064 33.6556 206.554 33.8885C206.043 34.1214 205.482 34.2375 204.917 34.2277H203.424L203.659 38.424C204.369 38.586 205.094 38.6689 205.823 38.6708C207.753 38.6276 209.345 38.1035 210.414 37.1595C211.483 36.2155 212.461 34.7387 213.467 32.5951L221.079 15.7059H215.027L210.5 27.1689Z" fill="#424242"/>
</g>
<defs>
<clipPath id="clip0_94_1821">
<rect width="288.413" height="54" fill="white"/>
</clipPath>
</defs>
</svg>
