<svg width="299" height="40" viewBox="0 0 299 40" fill="none" xmlns="http://www.w3.org/2000/svg">
<g clip-path="url(#clip0_99_2758)">
<path d="M114.307 12.0932L119.647 8.16958H101.783V31.7467H119.647V27.8232H106.88V21.7846H117.771V17.8567H106.88V12.0924H114.307V12.0932ZM88.296 17.3582H82.0931V12.0932H91.9981L97.3381 8.16458H76.996V31.7467H87.6396C93.6124 31.7467 97.0353 29.046 97.0353 24.3396C97.0353 19.8396 93.9296 17.3582 88.296 17.3582ZM87.4103 27.8232H82.0931V21.2867H87.4103C90.6446 21.2867 92.1538 22.381 92.1538 24.5553C92.1538 26.776 90.5574 27.8232 87.4103 27.8232ZM134.122 8.16958H124.396V31.7467H129.492V25.0674H134.122C140.329 25.0674 144.187 21.8124 144.187 16.6067C144.182 11.4017 140.329 8.16958 134.122 8.16958ZM134.012 21.1439H129.492V12.0932H134.012C137.278 12.0932 139.076 13.7003 139.076 16.616C139.076 19.5324 137.278 21.1439 134.012 21.1439ZM68.2431 26.6424C66.936 27.361 65.4124 27.741 63.8431 27.741C59.2467 27.741 55.9117 24.4674 55.9117 19.9582C55.9117 15.4489 59.2467 12.171 63.8438 12.171C65.5824 12.171 67.1417 12.661 68.4817 13.6174L72.1381 10.9303L71.8946 10.7196C69.7617 8.84673 66.9081 7.85815 63.646 7.85815C60.1088 7.85815 56.8974 9.04815 54.6038 11.2096C52.2967 13.3839 51.0303 16.4467 51.0303 19.8253C51.0303 23.2224 52.2967 26.326 54.5946 28.5696C56.8974 30.8174 60.1046 32.0582 63.6188 32.0582C67.2931 32.0582 70.5046 30.781 72.6796 28.451L69.381 26.0239L68.2431 26.6424Z" fill="#424242"/>
<path d="M177.677 14.0287L170.089 26.5451H167.965L160.207 14.1937V31.723H155.991V8.17297H161.318L169.139 20.9923L176.897 8.17297H181.888V31.7287H177.673V14.0287H177.677ZM208.937 31.728H204.451L202.193 26.1423H191.371L189.146 31.728H184.866L194.44 8.17297H199.23L208.937 31.728ZM200.643 22.2694L196.766 12.6094L192.89 22.2694H200.643ZM216.149 24.3887V31.723H211.933V8.17297H219.791C227.242 8.17297 230.412 10.833 230.412 16.1487C230.412 21.633 226.705 24.3937 219.791 24.3937H216.149V24.3887ZM216.149 12.0415V20.5201H220.094C224.008 20.5201 226.03 19.243 226.03 16.043C226.03 13.1501 224.278 12.0373 220.163 12.0373H216.149V12.0415ZM238.945 31.728H234.729V8.17297H238.945V18.0665H242.487L250.075 8.17369H255.199L246.198 19.3808L256.653 31.7323H251.253L242.688 21.5365H238.945V31.728ZM274.719 21.5323H263.86V27.8594H276.339V31.728H259.649V8.17297H275.972V12.0415H263.865V17.6594H274.724V21.5323H274.719ZM298.561 12.0415H290.602V31.7273H286.385V12.0415H278.564V8.17297H298.561V12.0415Z" fill="#424242"/>
<path d="M36.101 7.77148C37.0576 8.99794 37.8681 10.3317 38.516 11.7458L20.1539 25.1772L12.4824 20.4043V14.6622L20.1539 19.4358L36.101 7.77148Z" fill="#424242"/>
<path d="M4.65571 19.9997C4.65571 19.7425 4.66214 19.4861 4.675 19.2318L0.025 19.0004C0.00928572 19.3318 0 19.6647 0 19.9989C0 25.5204 2.255 30.5218 5.90286 34.1418L9.19929 30.8704C6.395 28.0847 4.65571 24.2397 4.65571 19.9989V19.9997Z" fill="#424242"/>
<path d="M20.1514 4.61932C20.4114 4.61932 20.6692 4.62861 20.9257 4.64075L21.1585 0.0250368C20.823 0.00880861 20.4872 0.000472969 20.1514 3.67543e-05C14.8133 -0.0101472 9.68895 2.09636 5.90137 5.85789L9.19708 9.12932C12.1079 6.23568 16.047 4.6139 20.1514 4.61932Z" fill="#424242"/>
<path d="M20.1529 35.3799C19.8936 35.3799 19.6358 35.3742 19.3793 35.3613L19.1465 39.9756C19.4801 39.9913 19.8158 40.0006 20.1529 40.0006C25.7172 40.0006 30.7558 37.7628 34.4029 34.1428L31.1072 30.8713C28.1955 33.7634 24.2568 35.3845 20.1529 35.3799Z" fill="#424242"/>
<path d="M28.8905 7.30314L32.8105 4.43671C29.2215 1.55648 24.7551 -0.00904023 20.1533 0.000285566V4.621C23.2692 4.6155 26.3143 5.55029 28.8905 7.30314Z" fill="#424242"/>
<path d="M40.3059 19.9998C40.3059 18.7762 40.1945 17.5798 39.983 16.4155L35.6452 19.5884C35.648 19.7248 35.6516 19.8612 35.6516 19.9984C35.6516 24.5134 33.6802 28.5812 30.5459 31.397L33.6745 34.8291C37.7466 31.1712 40.3059 25.8812 40.3059 19.9998Z" fill="#424242"/>
<path d="M20.1548 35.3798C15.6048 35.3798 11.5069 33.4226 8.66906 30.3134L5.21191 33.4184C7.10607 35.4965 9.41385 37.1556 11.9871 38.2892C14.5604 39.4227 17.3422 40.0056 20.1541 40.0005V35.3791L20.1548 35.3798Z" fill="#424242"/>
<path d="M9.76071 8.59962L6.63214 5.16748C2.55857 8.82677 0 14.1168 0 19.9982H4.65571C4.65714 15.4818 6.62714 11.4153 9.76071 8.59962Z" fill="#424242"/>
</g>
<defs>
<clipPath id="clip0_99_2758">
<rect width="298.571" height="40" fill="white"/>
</clipPath>
</defs>
</svg>
