<svg width="194" height="40" viewBox="0 0 194 40" fill="none" xmlns="http://www.w3.org/2000/svg">
<path d="M149.825 9V25.5974C149.825 26.3424 149.475 26.9146 148.736 26.9146C147.693 26.9146 147.647 25.7896 147.647 25.0461H142C142 28.6445 144.187 32 148.908 32C153.015 32 155.843 28.8486 155.843 24.976V14.0512H163.982V31.4308H170V9H149.825Z" fill="#424242"/>
<path d="M176.094 9V23.8786C176.094 25.2552 175.254 26.0707 173.752 26.0707H172V31H175.151C179.29 31 182.039 28.5594 182.039 24.0788V13.9527H188.055V30.9985H194V9H176.094Z" fill="#424242"/>
<path d="M135.648 9L125.863 21.7151V9H120V31H125.349L135.137 18.2966V31H141V9H135.648Z" fill="#424242"/>
<path d="M15.6582 31H0V9H14.1879C19.0279 9 21.6549 11.8543 21.6549 15.2318C21.6549 16.7474 20.8472 18.2966 19.6102 19.4687C21.4356 20.3807 23 22.4356 23 24.5782C22.9985 28.3474 19.8897 31 15.6582 31ZM5.74652 26.5746H14.8767C16.2697 26.5746 17.1855 25.5997 17.1855 24.4028V24.3677C17.1855 23.1707 16.2697 22.1959 14.8767 22.1959H5.74652V26.5746ZM5.74652 17.769H13.4405C14.9447 17.769 15.8404 16.7942 15.8404 15.5972C15.8404 14.4003 15.0003 13.4254 13.4405 13.4254H5.74652V17.769Z" fill="#424242"/>
<path d="M87.6906 22.8475C86.7897 24.9411 84.8541 26.4142 82.156 26.4142C78.3464 26.4142 76.0542 23.4771 76.0542 20.0076V19.997C76.0542 16.5259 78.348 13.5889 82.156 13.5889C84.8634 13.5889 86.8051 15.0741 87.7014 17.1783H94C92.8224 11.9474 88.3747 8 82.156 8C74.8612 8 70 13.4326 70 19.9954V20.0046C70 26.5674 74.8612 32 82.156 32C88.3655 32 92.8085 28.0632 93.9954 22.8445H87.6906V22.8475Z" fill="#424242"/>
<path d="M71 9L63.0136 25.5638C61.5348 28.7156 58.4894 32 53.303 32C48.8879 32 44.7379 29.3623 44 23.5535H49.5955C50.0091 25.8737 51.6894 26.905 53.5636 26.905C55.1712 26.905 56.2515 25.9676 56.55 25.4311L47.0379 9H53.6742L59.7167 19.8592L64.7 9H71Z" fill="#424242"/>
<path d="M45 31L36.7822 19.7537L44.7528 9H38.1091L31.7748 17.8114V9H26V31H31.7748V21.9738L38.1349 31H45Z" fill="#424242"/>
<path d="M109.473 31H97V9H107.966C112.928 9 115.621 11.8543 115.621 15.2318C115.621 16.7474 114.793 18.2966 113.525 19.4687C115.396 20.3807 117 22.4356 117 24.5782C116.997 28.3474 113.81 31 109.473 31ZM102.89 26.5746H108.67C110.098 26.5746 111.037 25.5997 111.037 24.4028V24.3677C111.037 23.1707 110.098 22.1959 108.67 22.1959H102.89V26.5746ZM102.89 17.769H107.198C108.74 17.769 109.658 16.7942 109.658 15.5972C109.658 14.4003 108.797 13.4254 107.198 13.4254H102.89V17.769Z" fill="#424242"/>
</svg>
