<svg width="61" height="40" viewBox="0 0 61 40" fill="none" xmlns="http://www.w3.org/2000/svg">
<path d="M44.8668 15.6314C42.4672 6.44991 34.858 0 19.0664 0H0L2.58858 17.1849C4.53544 32.6924 10.5747 37.6802 21.2625 39.5189C21.3131 39.525 21.6526 39.5731 21.6562 39.1832C21.6557 39.116 21.6354 39.0504 21.5976 38.9947C21.5599 38.939 21.5066 38.8958 21.4443 38.8703C14.2203 35.8836 13.3944 26.0897 11.8509 16.2596L10.6577 8.4258H21.5418C31.5759 8.4258 39.3248 8.27057 44.2298 15.8769C44.3021 15.9852 44.4165 16.0634 44.5513 16.0634C44.6036 16.0637 44.6551 16.0516 44.7018 16.028C44.7484 16.0045 44.7888 15.9703 44.8196 15.9281C44.8504 15.8859 44.8708 15.837 44.879 15.7854C44.8871 15.7338 44.883 15.6811 44.8668 15.6314Z" fill="#B5B5B5"/>
<path d="M38.1896 39.6328L33.6867 32.284L29.2777 39.6328H23.9994L30.7803 28.5645L23.8682 18.288H29.3824L33.8107 25.1482L38.0343 18.2892H43.3138L36.5125 28.899L43.5005 39.6328H38.1896ZM60.661 32.3767C60.661 37.0721 57.0586 39.9999 52.339 39.9999C48.178 39.9999 44.6744 37.7436 44.3324 32.834H48.8353C49.146 34.9687 50.8857 35.8832 52.7796 35.8832C55.1395 35.8832 56.158 34.3285 56.158 32.3165C56.158 30.2119 54.5736 28.9014 52.3691 28.9014C50.5378 28.9014 49.3266 29.7558 48.7667 30.6704H44.4637L45.9506 18.2904H60.1071L59.6339 22.4371H49.5084L49.1062 26.5345C49.1062 26.5345 50.1694 25.3034 53.3925 25.3034C57.2753 25.3034 60.661 27.863 60.661 32.3767Z" fill="#424242"/>
</svg>
