<svg width="127" height="40" viewBox="0 0 127 40" fill="none" xmlns="http://www.w3.org/2000/svg">
<path d="M121.441 33.6608C123.927 33.6608 125.688 33.2016 127 32.2125V27.7266C125.653 28.6803 124.03 29.2808 121.751 29.2808C117.919 29.2808 116.33 26.243 116.33 21.4391C116.33 16.3879 118.264 13.8094 121.786 13.8094C123.858 13.8094 125.895 14.5512 126.965 15.2576V10.595C125.826 9.9592 123.858 9.5 121.164 9.5C114.293 9.5 110.736 14.5512 110.736 21.6157C110.771 29.3514 114.258 33.6608 121.441 33.6608ZM87.8431 31.6121V27.1261C86.1856 28.2917 83.3542 29.3161 80.7645 29.3161C76.828 29.3161 75.3432 27.4086 75.1015 23.5231H88.0848V20.6267C88.0848 12.5378 84.5973 9.5 79.2451 9.5C72.6844 9.5 69.5768 14.6218 69.5768 21.651C69.5768 29.74 73.4786 33.6608 80.3156 33.6608C83.734 33.6608 86.2547 32.7071 87.8431 31.6121ZM38.5689 9.92387V19.1078H31.3867V9.92387H26V33.2016H31.3867V23.4878H38.5689V33.2016H43.9556V9.92387H38.5689ZM68.2301 28.8216H65.8475V9.92387H50.1709V11.9019C50.1709 17.5889 49.8256 24.9361 47.9265 28.8216H46.2V38.5H51.1723V33.2016H63.2233V38.5H68.1956V28.8216H68.2301ZM105.004 33.2016H111.116L102.484 20.662L110.08 9.92387H104.659L97.0626 20.662V9.92387H91.6759V33.2016H97.0626V21.757L105.004 33.2016ZM79.107 13.8094C81.7658 13.8094 82.5945 16.07 82.5945 19.0018V19.461H75.1015C75.2397 15.7521 76.5518 13.8094 79.107 13.8094ZM60.4609 28.8216H52.8643C54.3491 25.3246 54.7634 18.9665 54.7634 14.9397V14.2333H60.4609V28.8216Z" fill="#424242"/>
<path d="M21 33.5H15.481V5.82527H13.0165C8.50413 5.82527 6.1438 8.11099 6.1438 11.522C6.1438 15.3901 7.77521 17.1835 11.1421 19.4692L13.919 21.3681L5.93554 33.5H0L7.18512 22.6692C3.05455 19.6802 0.728926 16.7615 0.728926 11.8385C0.728926 5.68462 4.96364 1.5 12.9818 1.5H20.9653L21 33.5Z" fill="#B5B5B5"/>
</svg>
