<?xml version="1.0" encoding="UTF-8"?> <svg xmlns="http://www.w3.org/2000/svg" width="150" height="19" viewBox="0 0 150 19" fill="none"> <g clip-path="url(#clip0_7433_781)"> <path d="M5.35759 16.168L5.46099 15.8999C5.56821 15.5016 5.66778 15.0995 5.77118 14.6974C6.41454 12.2082 7.06173 9.71904 7.70509 7.23369C8.21824 5.25383 8.7314 3.27397 9.24072 1.29793L9.32497 1.02604L9.7692 0.960938C9.79217 0.960938 9.93004 0.964767 10.1981 0.972426L10.3857 0.983914L10.5351 0.999232L10.6079 1.07199L10.627 1.18305V1.55834C10.6308 7.03072 10.6308 12.5069 10.627 17.9793L10.6155 18.4312L10.5198 18.5346C10.2326 18.5346 9.94152 18.5346 9.65431 18.5308L9.55857 18.435L9.55091 18.0597C9.54708 15.4365 9.54708 12.8133 9.54708 10.1901C9.54708 8.43233 9.55091 6.67458 9.54708 4.91683L9.53942 4.54154L9.4973 4.49941L9.4705 4.51856L9.3939 4.77131C8.58204 7.90385 7.77402 11.0326 6.96599 14.1651C6.6175 15.5131 6.26902 16.8611 5.9167 18.2091L5.83245 18.4618C5.53758 18.5078 5.24654 18.4772 4.96315 18.481L4.80997 18.4503C4.72955 18.1555 4.65296 17.8644 4.57637 17.5734C3.80281 14.5978 3.02925 11.6261 2.25568 8.65061L1.25235 4.79428L1.17959 4.54154L1.13746 4.49175L1.09534 4.57217L1.09151 4.94746V18.0138L1.08385 18.4312L0.991942 18.5308C0.716216 18.5346 0.440492 18.5346 0.160937 18.5346L0.065199 18.435L0.0537109 18.0597C0.0537109 16.639 0.0537109 15.2221 0.0537109 13.8013V1.52005L0.0575384 1.14475L0.0920055 1.02604L0.21838 0.983914C0.474958 0.960937 0.76983 0.953278 1.08768 0.983914L1.35574 1.01455L1.46297 1.32857C1.84593 2.81059 2.22888 4.29262 2.61183 5.77464C3.20157 8.05703 3.79515 10.3394 4.38872 12.6218C4.67594 13.7247 4.95932 14.8314 5.24271 15.9344L5.35759 16.168Z" fill="#333333"></path> <path d="M101.076 9.75926C101.076 11.1647 101.072 12.5701 101.076 13.9756C101.076 14.4542 101.091 14.9291 101.191 15.4001C101.264 15.7601 101.371 16.1048 101.547 16.4264C101.888 17.0507 102.416 17.4145 103.106 17.56C103.63 17.671 104.155 17.6672 104.676 17.5562C105.377 17.4106 105.92 17.0392 106.257 16.392L106.464 15.9095C106.594 15.5418 106.667 15.1589 106.69 14.7683C106.705 14.4696 106.713 14.1632 106.713 13.8645C106.717 11.1915 106.717 8.51849 106.717 5.84166L106.713 5.35148C106.705 4.94938 106.694 4.55111 106.613 4.15284C106.537 3.76989 106.426 3.39843 106.231 3.0576C105.97 2.5904 105.591 2.25723 105.089 2.06576C104.806 1.95853 104.515 1.8896 104.209 1.88194L103.649 1.87811C103.424 1.87428 103.201 1.91258 102.983 1.97002C102.37 2.12703 101.892 2.46786 101.578 3.02314L101.356 3.498C101.225 3.85414 101.145 4.22178 101.114 4.6009C101.091 4.9379 101.076 5.27872 101.076 5.61572C101.072 6.99817 101.076 8.3768 101.076 9.75926ZM107.801 9.75543C107.801 11.0996 107.801 12.4399 107.801 13.7841C107.801 14.2245 107.778 14.6649 107.736 15.1014C107.686 15.5533 107.59 15.9937 107.425 16.4188L107.207 16.8975C106.79 17.6787 106.154 18.1995 105.311 18.4561C104.752 18.6284 104.178 18.682 103.6 18.6476C103.224 18.6246 102.853 18.5748 102.489 18.4638C101.647 18.1957 101.015 17.6787 100.59 16.9013C100.375 16.503 100.23 16.0741 100.145 15.6299C100.054 15.1589 100.008 14.6878 99.9999 14.2092L99.9961 13.719C99.9961 11.0728 99.9999 8.42276 99.9961 5.77273C99.9961 5.30553 100.008 4.84216 100.065 4.38262C100.126 3.86946 100.241 3.36779 100.448 2.89676C100.689 2.34531 101.034 1.87428 101.528 1.51814C101.964 1.20412 102.455 1.0203 102.975 0.924559C103.358 0.855628 103.749 0.828824 104.14 0.851801C104.614 0.882437 105.086 0.955196 105.537 1.13135C106.219 1.39176 106.744 1.83216 107.123 2.45637C107.406 2.9274 107.571 3.43673 107.667 3.97286C107.77 4.52814 107.801 5.0949 107.801 5.65784V9.75543Z" fill="#333333"></path> <path d="M73.1865 9.7658C73.1865 8.38334 73.1865 7.00471 73.1827 5.62226C73.1827 5.3427 73.1712 5.07081 73.1674 4.79125C73.1597 4.52702 73.1138 4.26661 73.0563 4.0062C72.9989 3.73814 72.9185 3.4739 72.7959 3.22115C72.4666 2.53184 71.9266 2.10676 71.176 1.94209C70.8391 1.86933 70.502 1.86933 70.1651 1.8655C69.9238 1.8655 69.6902 1.89997 69.4566 1.95741C68.8439 2.11442 68.3652 2.45525 68.0512 3.0067L67.829 3.48539C67.6988 3.8377 67.6146 4.20534 67.5916 4.58446C67.5648 4.92146 67.5495 5.26229 67.5495 5.59928C67.5457 7.90848 67.5495 10.2177 67.5495 12.5269C67.5495 13.0285 67.5457 13.5302 67.5495 14.0357C67.5533 14.4876 67.5725 14.9395 67.6605 15.3837C67.7371 15.7552 67.8444 16.1113 68.0358 16.4445C68.3269 16.9615 68.752 17.3099 69.3187 17.4823C69.5983 17.5665 69.8817 17.6125 70.1689 17.6278C70.4944 17.6393 70.8199 17.6163 71.1416 17.5512C71.8424 17.4019 72.3862 17.0342 72.7232 16.3909L72.9338 15.9083C73.0678 15.5292 73.1444 15.131 73.1636 14.7327C73.1789 14.4416 73.1827 14.1544 73.1827 13.8672C73.1865 12.5001 73.1865 11.1329 73.1865 9.7658ZM74.2626 9.75814V14.051C74.2626 14.5565 74.2243 15.0544 74.1324 15.5484C74.0558 15.9581 73.9371 16.3526 73.7571 16.7279C73.2938 17.6967 72.5279 18.2941 71.4824 18.5277C70.9501 18.6426 70.4178 18.6771 69.874 18.6273C69.4834 18.5928 69.1081 18.5162 68.7366 18.3784C68.0971 18.1333 67.5878 17.7235 67.2087 17.1491C66.9023 16.6781 66.7223 16.1611 66.6113 15.6173C66.5155 15.1463 66.4772 14.6752 66.4657 14.1965V13.8174C66.4657 11.1061 66.4657 8.39483 66.4619 5.68353C66.4619 5.22782 66.4811 4.77976 66.5347 4.33171C66.5998 3.80707 66.7223 3.29774 66.9483 2.81522C67.4001 1.8387 68.1431 1.22214 69.1924 0.973225C69.7936 0.827704 70.4063 0.797068 71.0229 0.885146C71.3599 0.931101 71.6892 1.00003 72.007 1.12258C72.7155 1.39447 73.2516 1.86167 73.6269 2.52035C73.8797 2.96075 74.0329 3.43561 74.1286 3.92961C74.2243 4.42362 74.2626 4.92529 74.2626 5.42695V9.75814Z" fill="#333333"></path> <path d="M53.0278 10.3401L52.9282 10.4014L52.7597 10.6503C52.5568 10.9528 52.3576 11.2592 52.1585 11.5617C51.9785 11.8298 51.9938 11.7647 51.99 12.1208V12.3468V18.0336L51.9823 18.4127L51.8598 18.5276C51.5841 18.5276 51.3083 18.5276 51.0288 18.5276L50.9139 18.4051L50.9062 18.0298V13.4344V1.49394L50.9139 1.08035L51.0135 0.980781C51.3007 0.976951 51.5917 0.976951 51.8789 0.980781L51.9785 1.07269L51.99 1.44798V5.62599V9.35594L51.9938 9.65847L52.0474 9.78101L52.1317 9.71591L52.3193 9.43253C53.5218 7.60968 54.7204 5.783 55.9229 3.96014C56.5088 3.0717 57.0947 2.17942 57.6807 1.28714L57.8032 1.0995L58.0521 0.961635C58.347 0.942487 58.6074 0.961635 58.8831 0.961635L59.0401 1.01908L58.9942 1.15311C58.6649 1.65861 58.3355 2.1641 58.0062 2.66577C56.6429 4.7452 55.2834 6.8208 53.9201 8.90022L53.6903 9.29849L53.9239 9.67762C55.7123 12.4847 57.4969 15.2879 59.2814 18.0911L59.4767 18.4127L59.4116 18.5161C59.0976 18.5161 58.7874 18.5161 58.4695 18.52L58.2781 18.4242L58.1096 18.1715C56.4973 15.6746 54.8813 13.1778 53.2652 10.681L53.0278 10.3401Z" fill="#333333"></path> <path d="M91.0126 9.74991V18.0293L91.0049 18.4046L90.8824 18.5195C90.6067 18.5195 90.3271 18.5157 90.0514 18.5157L89.9556 18.4199L89.9441 18.0064C89.9403 15.5823 89.9403 13.162 89.9403 10.7418L89.9327 10.3626L89.8101 10.2477L89.6225 10.2439H84.6556L84.3952 10.2631L84.3416 10.309L84.3263 10.3856L84.3224 10.7609V18.0255L84.3148 18.4046L84.1922 18.5157C83.9165 18.5157 83.6408 18.5118 83.365 18.5118L83.2693 18.4161L83.2578 18.0791V14.8776V1.52028L83.2616 1.10669L83.4072 0.972656C83.6714 0.972656 83.9318 0.972657 84.196 0.976487L84.3109 1.0952L84.3186 1.47049V8.70062L84.3224 9.07592L84.4909 9.23293L84.6786 9.23676C86.3214 9.23676 87.9681 9.23676 89.611 9.23293L89.8369 9.22144L89.9365 9.1257L89.948 8.75041C89.9518 7.20711 89.948 5.66382 89.948 4.12052C89.948 3.21675 89.948 2.31299 89.9518 1.40922L89.9595 1.07222L90.059 0.980317C90.3386 0.980317 90.6105 0.980317 90.89 0.980317L91.0126 1.0952L91.0202 1.47049V9.74991H91.0126Z" fill="#333333"></path> <path d="M25.6926 13.4833L25.6428 13.2306C24.808 9.8759 23.9731 6.52124 23.1345 3.17041L23.0617 3.18573L23.0119 3.28147C22.7055 4.53755 22.403 5.7898 22.1005 7.04589C21.6831 8.76534 21.2657 10.4771 20.8482 12.1966C20.7678 12.5221 20.6874 12.8514 20.6108 13.1808L20.584 13.468L20.6568 13.4948C22.2728 13.4986 23.8889 13.4986 25.5088 13.5025L25.6926 13.4833ZM23.6055 0.960783L23.6897 1.02971L23.751 1.20587C24.0267 2.33941 24.3063 3.46912 24.5858 4.60265C25.0492 6.47529 25.5088 8.34792 25.9721 10.2244C26.4125 12.0128 26.8529 13.8012 27.2971 15.5895C27.5078 16.455 27.7222 17.3205 27.9367 18.1821L27.9635 18.5115L27.8563 18.5344C27.5805 18.5344 27.301 18.5344 27.0252 18.5306L26.9525 18.5038L26.8453 18.1515C26.5695 17.0448 26.2938 15.938 26.0181 14.8275L25.9645 14.6475L25.8304 14.5364L25.4896 14.5288H22.403H20.6721L20.3427 14.5441L20.224 14.8236C20.0938 15.3444 19.9636 15.8653 19.8334 16.3899C19.6802 17.0103 19.527 17.6307 19.37 18.2511L19.2896 18.4961L19.2475 18.5153C18.9488 18.5459 18.6463 18.5383 18.3476 18.523L18.2939 18.4425C18.3629 18.1362 18.428 17.8298 18.5046 17.5273C19.0254 15.3559 19.55 13.1884 20.0708 11.0209C20.5878 8.88788 21.101 6.75484 21.618 4.6218C21.8822 3.53805 22.1388 2.45046 22.3992 1.36671L22.4873 1.0412L22.5983 0.953125" fill="#333333"></path> <path d="M34.6496 14.0302V13.3524L34.6611 13.1647L34.7607 13.0652C35.0364 13.0613 35.3121 13.0613 35.584 13.0652L35.6836 13.1647L35.6989 13.4673C35.7027 13.854 35.7027 14.2447 35.7104 14.6353C35.7181 14.9914 35.7832 15.3361 35.8712 15.6769C35.9363 15.9335 36.0359 16.1747 36.1699 16.4045C36.5759 17.0862 37.1695 17.4768 37.9545 17.5763C38.3068 17.6223 38.6553 17.6223 39.0076 17.5725C39.7161 17.4729 40.2752 17.1283 40.6811 16.5347C40.8611 16.2743 40.9837 15.9833 41.0602 15.6807C41.156 15.3169 41.2211 14.9455 41.2287 14.5663C41.2326 14.3557 41.2402 14.1413 41.2287 13.9268C41.2058 13.3754 41.0449 12.866 40.7347 12.4103C40.4131 11.9393 40.0301 11.5295 39.5897 11.1657C39.1225 10.7828 38.6285 10.4381 38.1115 10.1318C37.6137 9.83305 37.1465 9.49989 36.7022 9.12842C36.1661 8.6842 35.7066 8.1787 35.3313 7.58896C34.9713 7.02219 34.7798 6.40947 34.7415 5.74696C34.7071 5.18019 34.7262 4.62108 34.8258 4.05814C34.933 3.47605 35.1207 2.92077 35.427 2.40379C35.8521 1.68767 36.4725 1.2243 37.269 1.01367C38.0579 0.803051 38.8544 0.780075 39.651 0.990699C40.4092 1.18983 41.0143 1.60342 41.4662 2.25061C41.7917 2.72164 41.9985 3.24245 42.121 3.79773C42.2282 4.28025 42.2895 4.76277 42.2819 5.25295L42.2742 5.81972L42.1517 5.9346C41.8759 5.93843 41.6002 5.9346 41.3245 5.9346L41.2287 5.82738L41.2173 5.3372C41.2173 4.88532 41.1675 4.43726 41.0717 3.99687C40.999 3.6637 40.8841 3.34585 40.7194 3.04715C40.3977 2.46506 39.9152 2.10126 39.268 1.95191L38.7855 1.8868C38.4217 1.87915 38.0579 1.87149 37.7018 1.95957C37.1273 2.10509 36.6754 2.41911 36.3614 2.92078C36.101 3.3267 35.9632 3.78242 35.8789 4.25728C35.81 4.64023 35.7947 5.02701 35.7985 5.42145C35.81 6.09545 35.9938 6.70434 36.3997 7.24813C36.6793 7.61959 36.9895 7.96425 37.3494 8.26295C37.8511 8.68803 38.3834 9.05949 38.9387 9.40415C39.5284 9.76795 40.0837 10.1701 40.6045 10.6296C41.0488 11.024 41.4279 11.4759 41.7419 11.9814C42.0674 12.5022 42.2474 13.0728 42.2933 13.6817C42.3546 14.5051 42.2819 15.3131 42.0559 16.1058C41.941 16.4926 41.7764 16.8564 41.5466 17.1896C41.0756 17.8865 40.4207 18.3269 39.6127 18.5337C39.111 18.6601 38.5979 18.6907 38.0809 18.6448C37.7669 18.6141 37.4567 18.5758 37.1541 18.4801C36.4112 18.2427 35.8215 17.7946 35.3926 17.1436C35.1207 16.73 34.9483 16.2743 34.8334 15.7956C34.6918 15.2097 34.6458 14.6238 34.6496 14.0302Z" fill="#333333"></path> <path d="M142.523 9.74387C142.523 8.28866 142.523 6.83344 142.523 5.37439C142.523 4.85741 142.577 4.34808 142.684 3.84259C142.768 3.44814 142.895 3.06902 143.078 2.70905C143.415 2.0542 143.906 1.5487 144.568 1.21554C144.886 1.0547 145.219 0.955128 145.568 0.897685C145.866 0.851731 146.165 0.832585 146.468 0.836414C146.805 0.840244 147.142 0.890028 147.471 0.974277C148.31 1.19256 148.964 1.66742 149.439 2.3912C149.696 2.78564 149.864 3.21455 149.979 3.67026C150.117 4.22171 150.175 4.78465 150.186 5.34759C150.198 5.81479 150.19 6.27816 150.186 6.74153L150.163 6.92535L150.113 6.97896L150.041 6.99428C149.776 6.99811 149.512 6.99811 149.248 6.99428L149.106 6.85642L149.102 6.55388V5.34759C149.102 4.84209 149.056 4.34425 148.926 3.8579C148.85 3.56686 148.742 3.28348 148.585 3.0269C148.244 2.46013 147.754 2.10016 147.111 1.94697L146.59 1.87804C146.242 1.87038 145.889 1.86272 145.545 1.95463C144.974 2.10398 144.518 2.41418 144.185 2.90435C144.005 3.16476 143.883 3.45197 143.798 3.75834C143.668 4.20639 143.611 4.66593 143.588 5.1293L143.58 5.61948V13.8683C143.58 14.2589 143.595 14.6457 143.649 15.0286C143.714 15.4537 143.814 15.8673 144.005 16.2541C144.277 16.8055 144.695 17.2076 145.273 17.4297L145.817 17.5676C146.169 17.6212 146.514 17.6212 146.866 17.5714C147.62 17.4604 148.202 17.0889 148.593 16.434C148.811 16.0741 148.93 15.6796 149.007 15.2699C149.083 14.8716 149.102 14.4733 149.106 14.0712C149.106 13.5083 149.106 12.9453 149.106 12.3786L149.118 12.0799L149.217 11.9803C149.504 11.9803 149.792 11.9803 150.083 11.9841L150.182 12.0799L150.19 12.3058C150.194 12.8956 150.198 13.4853 150.19 14.0751C150.182 14.7567 150.109 15.4269 149.907 16.0817C149.761 16.5528 149.547 16.9931 149.24 17.3799C148.781 17.962 148.183 18.3411 147.471 18.5211C146.969 18.6475 146.456 18.6858 145.939 18.636C145.637 18.6054 145.342 18.5671 145.051 18.4713C144.358 18.2492 143.802 17.8433 143.373 17.2612C143.017 16.7787 142.81 16.2311 142.684 15.649C142.573 15.1435 142.523 14.6342 142.523 14.1172C142.523 12.6543 142.523 11.1991 142.523 9.74387Z" fill="#333333"></path> <path d="M116.663 9.71529V1.47034C116.663 0.899742 116.594 0.972503 117.164 0.964844L117.54 0.968674L117.727 1.141V1.55459V16.9607L117.739 17.3743L117.835 17.4739L118.21 17.4816C119.78 17.4854 121.346 17.4854 122.92 17.4854H123.257L123.445 17.6539C123.445 17.8913 123.445 18.1326 123.445 18.37L123.284 18.527L123.02 18.5308H117.069L116.766 18.5194L116.67 18.4198L116.663 18.3087V17.9717V9.71529Z" fill="#333333"></path> <path d="M131.72 9.75416V1.47474C131.72 0.904142 131.659 0.969243 132.214 0.965414L132.666 0.969244L132.8 1.11476L132.807 1.4173V18.0489C132.804 18.5774 132.842 18.5161 132.348 18.5199L131.858 18.5161L131.724 18.3706L131.72 17.9953V9.75416Z" fill="#333333"></path> </g> <defs> <clipPath id="clip0_7433_781"> <rect width="150" height="19" fill="white"></rect> </clipPath> </defs> </svg> 