<svg width="325" height="271" viewBox="0 0 325 271" fill="none" xmlns="http://www.w3.org/2000/svg">
<path d="M192.791 226.197C265.702 201.871 311.203 141.374 294.421 91.0751C277.638 40.7757 204.927 19.7206 132.017 44.0473C59.1059 68.374 13.6048 128.87 30.3872 179.17C47.1695 229.469 119.88 250.524 192.791 226.197Z" fill="#D54426"/>
<path d="M206.584 55.1954C275.554 89.6554 313.684 153.175 291.754 197.085" stroke="white" stroke-width="1.3535" stroke-miterlimit="10"/>
<path d="M41.9842 72.3054C63.9242 28.3954 137.614 20.7354 206.584 55.1954" stroke="white" stroke-width="1.3535" stroke-miterlimit="10"/>
<path d="M127.144 214.195C58.1742 179.735 20.0442 116.215 41.9842 72.3054" stroke="white" stroke-width="1.3535" stroke-miterlimit="10"/>
<path d="M291.754 197.085C269.814 240.995 196.124 248.655 127.154 214.195" stroke="white" stroke-width="1.3535" stroke-miterlimit="10"/>
<path d="M125.314 112.605V86.9354H135.594C137.484 86.9354 139.054 87.2154 140.324 87.7754C141.584 88.3354 142.534 89.1054 143.174 90.1054C143.814 91.1054 144.124 92.2354 144.124 93.5254C144.124 94.5254 143.924 95.4054 143.524 96.1654C143.124 96.9254 142.574 97.5354 141.874 98.0254C141.174 98.5054 140.384 98.8454 139.484 99.0454V99.2954C140.464 99.3354 141.384 99.6154 142.234 100.125C143.084 100.635 143.784 101.345 144.324 102.265C144.864 103.185 145.124 104.265 145.124 105.535C145.124 106.895 144.784 108.115 144.114 109.175C143.444 110.235 142.444 111.085 141.134 111.705C139.824 112.325 138.204 112.635 136.284 112.635H125.314V112.605ZM130.744 97.6754H134.764C135.504 97.6754 136.174 97.5454 136.754 97.2854C137.334 97.0254 137.794 96.6454 138.134 96.1654C138.474 95.6854 138.644 95.0954 138.644 94.4254C138.644 93.4954 138.314 92.7454 137.664 92.1854C137.004 91.6154 136.084 91.3354 134.874 91.3354H130.754V97.6754H130.744ZM130.744 108.175H135.164C136.674 108.175 137.784 107.885 138.474 107.305C139.164 106.725 139.514 105.945 139.514 104.975C139.514 104.265 139.344 103.635 139.004 103.095C138.664 102.555 138.174 102.125 137.544 101.815C136.914 101.505 136.164 101.355 135.294 101.355H130.744V108.175Z" fill="white"/>
<path d="M148.644 112.605V86.9354H165.944V91.4154H154.074V97.5354H165.054V102.015H154.074V108.145H165.994V112.625H148.644V112.605Z" fill="white"/>
<path d="M183.874 86.9354V112.605H178.444V86.9354H183.874Z" fill="white"/>
<path d="M209.824 86.9354V112.605H205.134L193.974 96.4554H193.784V112.615H188.354V86.9354H193.114L204.194 103.085H204.424V86.9354H209.824Z" fill="white"/>
<path d="M125.324 182.785V173.975H130.694V174.925H126.404V177.675H128.664C129.304 177.675 129.844 177.775 130.284 177.985C130.724 178.195 131.054 178.485 131.284 178.855C131.514 179.235 131.624 179.675 131.624 180.185C131.624 180.695 131.514 181.145 131.284 181.535C131.054 181.925 130.724 182.235 130.284 182.455C129.844 182.675 129.304 182.785 128.664 182.785H125.324ZM126.404 181.855H128.664C129.074 181.855 129.414 181.775 129.694 181.615C129.974 181.455 130.194 181.245 130.334 180.985C130.484 180.725 130.554 180.455 130.554 180.165C130.554 179.745 130.394 179.375 130.064 179.075C129.734 178.765 129.264 178.615 128.664 178.615H126.404V181.855Z" fill="white"/>
<path d="M133.984 185.245C133.814 185.245 133.654 185.235 133.524 185.205C133.384 185.175 133.294 185.155 133.244 185.125L133.504 184.225C133.874 184.315 134.194 184.315 134.434 184.215C134.684 184.115 134.904 183.815 135.084 183.325L135.274 182.805L132.804 176.155H133.914L135.754 181.425H135.824L137.664 176.155L138.784 176.175L135.944 183.735C135.814 184.075 135.654 184.345 135.474 184.575C135.284 184.795 135.064 184.965 134.824 185.075C134.574 185.195 134.294 185.245 133.984 185.245Z" fill="white"/>
<path d="M138.954 184.675V181.835H139.514C139.654 181.695 139.764 181.545 139.864 181.375C139.964 181.205 140.044 181.015 140.124 180.795C140.194 180.565 140.264 180.295 140.314 179.965C140.364 179.635 140.414 179.245 140.454 178.785L140.684 176.165H144.924V181.825H145.954V184.665H144.924V182.775H139.984V184.665H138.954V184.675ZM140.674 181.835H143.894V177.115H141.634L141.464 178.785C141.394 179.475 141.304 180.085 141.194 180.595C141.084 181.115 140.914 181.525 140.674 181.835Z" fill="white"/>
<path d="M148.264 178.565H150.174C150.954 178.565 151.554 178.765 151.964 179.155C152.374 179.545 152.584 180.045 152.584 180.645C152.584 181.045 152.494 181.405 152.304 181.725C152.114 182.045 151.844 182.305 151.484 182.495C151.124 182.685 150.684 182.785 150.164 182.785H147.364V176.175H148.394V181.835H150.164C150.574 181.835 150.904 181.725 151.164 181.515C151.424 181.305 151.554 181.035 151.554 180.695C151.554 180.345 151.424 180.055 151.164 179.835C150.904 179.615 150.574 179.505 150.164 179.505H148.254V178.565H148.264Z" fill="white"/>
<path d="M157.744 182.785V176.175H160.474C161.194 176.175 161.764 176.335 162.184 176.655C162.604 176.975 162.814 177.405 162.814 177.925C162.814 178.325 162.694 178.635 162.454 178.855C162.214 179.075 161.904 179.225 161.524 179.305C161.774 179.335 162.014 179.425 162.244 179.565C162.474 179.705 162.674 179.895 162.824 180.135C162.974 180.375 163.054 180.665 163.054 181.015C163.054 181.355 162.964 181.655 162.794 181.925C162.624 182.195 162.374 182.405 162.044 182.555C161.714 182.705 161.334 182.785 160.874 182.785H157.744ZM158.714 178.945H160.474C160.744 178.945 160.984 178.905 161.184 178.835C161.384 178.755 161.534 178.645 161.634 178.505C161.734 178.365 161.794 178.195 161.794 177.995C161.794 177.715 161.674 177.495 161.444 177.335C161.214 177.175 160.884 177.095 160.474 177.095H158.714V178.945ZM158.714 181.855H160.884C161.234 181.855 161.514 181.775 161.714 181.605C161.914 181.435 162.014 181.215 162.014 180.925C162.014 180.585 161.914 180.315 161.714 180.115C161.514 179.915 161.234 179.825 160.884 179.825H158.714V181.855Z" fill="white"/>
<path d="M168.344 182.785V173.975H171.354C172.054 173.975 172.624 174.095 173.064 174.345C173.504 174.595 173.834 174.925 174.054 175.345C174.264 175.765 174.374 176.235 174.374 176.755C174.374 177.275 174.264 177.745 174.054 178.175C173.844 178.595 173.514 178.935 173.074 179.185C172.634 179.435 172.064 179.565 171.374 179.565H169.214V178.615H171.334C171.814 178.615 172.194 178.535 172.484 178.365C172.774 178.205 172.984 177.975 173.114 177.695C173.244 177.415 173.314 177.095 173.314 176.745C173.314 176.395 173.244 176.075 173.114 175.795C172.984 175.515 172.774 175.295 172.474 175.135C172.174 174.975 171.794 174.895 171.304 174.895H169.414V182.765H168.344V182.785Z" fill="white"/>
<path d="M178.694 182.925C178.094 182.925 177.564 182.785 177.114 182.495C176.664 182.215 176.304 181.815 176.054 181.305C175.804 180.795 175.674 180.195 175.674 179.515C175.674 178.825 175.804 178.225 176.054 177.715C176.304 177.205 176.664 176.805 177.114 176.515C177.564 176.235 178.094 176.085 178.694 176.085C179.294 176.085 179.824 176.225 180.274 176.515C180.724 176.795 181.084 177.195 181.334 177.715C181.584 178.235 181.714 178.825 181.714 179.515C181.714 180.195 181.584 180.795 181.334 181.305C181.084 181.815 180.724 182.215 180.274 182.495C179.824 182.775 179.294 182.925 178.694 182.925ZM178.694 182.005C179.154 182.005 179.524 181.885 179.824 181.655C180.124 181.425 180.334 181.115 180.484 180.735C180.624 180.355 180.694 179.945 180.694 179.505C180.694 179.065 180.624 178.655 180.484 178.265C180.344 177.885 180.124 177.575 179.824 177.335C179.524 177.105 179.154 176.985 178.694 176.985C178.234 176.985 177.864 177.105 177.564 177.335C177.274 177.575 177.054 177.875 176.904 178.265C176.764 178.645 176.694 179.055 176.694 179.505C176.694 179.955 176.764 180.355 176.904 180.735C177.044 181.115 177.264 181.415 177.564 181.655C177.854 181.895 178.234 182.005 178.694 182.005Z" fill="white"/>
<path d="M186.064 182.925C185.434 182.925 184.894 182.775 184.444 182.485C183.994 182.195 183.644 181.785 183.404 181.275C183.164 180.765 183.034 180.175 183.034 179.515C183.034 178.845 183.154 178.255 183.414 177.735C183.664 177.225 184.014 176.815 184.464 176.525C184.914 176.235 185.444 176.085 186.044 176.085C186.514 176.085 186.934 176.175 187.314 176.345C187.694 176.515 187.994 176.755 188.244 177.065C188.484 177.375 188.634 177.735 188.694 178.145H187.664C187.584 177.845 187.414 177.575 187.144 177.345C186.874 177.115 186.514 176.995 186.064 176.995C185.664 176.995 185.314 177.095 185.014 177.305C184.714 177.515 184.484 177.795 184.314 178.165C184.144 178.535 184.064 178.975 184.064 179.475C184.064 179.985 184.144 180.435 184.314 180.805C184.474 181.185 184.714 181.475 185.014 181.685C185.314 181.895 185.664 181.995 186.074 181.995C186.344 181.995 186.584 181.945 186.804 181.855C187.024 181.765 187.204 181.635 187.354 181.455C187.504 181.285 187.614 181.075 187.674 180.835H188.704C188.644 181.225 188.504 181.575 188.274 181.885C188.044 182.195 187.744 182.445 187.374 182.625C186.994 182.825 186.554 182.925 186.064 182.925Z" fill="white"/>
<path d="M192.974 182.925C192.344 182.925 191.804 182.775 191.354 182.485C190.904 182.195 190.554 181.785 190.314 181.275C190.074 180.765 189.944 180.175 189.944 179.515C189.944 178.845 190.064 178.255 190.324 177.735C190.574 177.225 190.924 176.815 191.374 176.525C191.824 176.235 192.354 176.085 192.954 176.085C193.424 176.085 193.844 176.175 194.224 176.345C194.604 176.515 194.904 176.755 195.154 177.065C195.394 177.375 195.544 177.735 195.604 178.145H194.574C194.494 177.845 194.324 177.575 194.054 177.345C193.784 177.115 193.424 176.995 192.974 176.995C192.574 176.995 192.224 177.095 191.924 177.305C191.624 177.515 191.394 177.795 191.224 178.165C191.054 178.535 190.974 178.975 190.974 179.475C190.974 179.985 191.054 180.435 191.224 180.805C191.384 181.185 191.624 181.475 191.924 181.685C192.224 181.895 192.574 181.995 192.984 181.995C193.254 181.995 193.494 181.945 193.714 181.855C193.934 181.765 194.114 181.635 194.264 181.455C194.414 181.285 194.524 181.075 194.584 180.835H195.614C195.554 181.225 195.414 181.575 195.184 181.885C194.954 182.195 194.654 182.445 194.284 182.625C193.894 182.825 193.464 182.925 192.974 182.925Z" fill="white"/>
<path d="M198.194 181.285L201.414 176.175H202.594V182.785H201.564V177.675L198.364 182.785H197.164V176.175H198.194V181.285Z" fill="white"/>
<path d="M205.564 181.285L208.784 176.175H209.964V182.785H208.934V177.675L205.734 182.785H204.534V176.175H205.564V181.285Z" fill="white"/>
<path d="M106.804 160.175V159.965L110.014 158.805C110.014 156.845 109.574 154.735 108.694 152.485C107.814 150.235 106.624 148.165 105.114 146.245C103.604 144.335 101.854 142.715 99.8742 141.405C97.8942 140.085 95.8142 139.375 93.6342 139.275V158.805L97.2642 159.965V160.175H86.2642V159.965C86.6142 159.825 87.1342 159.645 87.8142 159.415C88.4942 159.185 89.0342 158.985 89.4242 158.805V128.535C89.4242 126.745 89.7742 125.105 90.4742 123.615C91.1742 122.125 92.1242 120.845 93.3142 119.775C94.5042 118.705 95.8942 117.865 97.4742 117.245C99.0542 116.635 100.704 116.325 102.424 116.325H113.744C113.744 118.085 113.454 119.865 112.874 121.665C112.294 123.475 111.504 125.165 110.504 126.745C109.504 128.325 108.324 129.695 106.974 130.855C105.624 132.015 104.194 132.825 102.684 133.275C101.214 133.695 99.7142 133.965 98.1842 134.095C96.6542 134.215 95.1442 134.275 93.6342 134.275V137.855C97.2442 138.065 100.374 138.835 103.004 140.175C105.634 141.505 107.814 143.175 109.534 145.175C111.254 147.175 112.534 149.365 113.374 151.755C114.214 154.145 114.654 156.495 114.694 158.805C115.154 159.085 115.694 159.325 116.324 159.515C116.954 159.705 117.464 159.855 117.854 159.965V160.175H106.804ZM104.084 117.745C102.374 117.745 100.854 118.075 99.5442 118.725C98.2342 119.375 97.1342 120.255 96.2642 121.365C95.3942 122.475 94.7342 123.745 94.2942 125.165C93.8542 126.595 93.6342 128.095 93.6342 129.685V132.955C95.4142 132.955 97.2442 132.555 99.1142 131.745C100.984 130.935 102.704 129.835 104.254 128.445C105.814 127.055 107.074 125.435 108.054 123.585C109.034 121.735 109.524 119.795 109.524 117.745H104.084Z" fill="white"/>
<path d="M147.704 117.745V146.435C147.704 148.255 147.434 150.025 146.884 151.725C146.344 153.425 145.544 154.935 144.484 156.255C143.434 157.575 142.154 158.625 140.644 159.415C139.134 160.205 137.414 160.595 135.484 160.595C130.924 160.595 127.534 159.345 125.324 156.835C123.114 154.325 122.004 150.825 122.004 146.335V117.745L118.794 116.535V116.325H129.374V116.535L126.214 117.745V146.325C126.214 148.085 126.304 149.735 126.474 151.295C126.644 152.855 127.054 154.225 127.684 155.405C128.314 156.585 129.244 157.515 130.464 158.225C131.684 158.925 133.354 159.275 135.454 159.275C137.134 159.275 138.484 158.835 139.524 157.955C140.554 157.075 141.374 155.985 141.964 154.695C142.554 153.395 142.964 151.995 143.174 150.485C143.384 148.975 143.494 147.585 143.494 146.325V117.745L140.284 116.535V116.325H150.914V116.535L147.704 117.745Z" fill="white"/>
<path d="M93.6942 117.745L96.8542 116.535V116.325H86.2742V116.535L89.4842 117.745V141.355C90.8842 140.745 92.2942 140.145 93.6942 139.555V117.745Z" fill="white"/>
<path d="M168.604 130.745V130.275C169.554 130.025 170.264 129.745 170.734 129.405C171.204 129.075 171.554 128.695 171.764 128.275C171.974 127.855 172.084 127.395 172.084 126.905C172.084 126.415 172.084 125.885 172.084 125.325C172.084 124.345 171.944 123.395 171.664 122.485C171.384 121.575 170.924 120.755 170.294 120.035C169.664 119.315 168.844 118.735 167.844 118.295C166.844 117.855 165.644 117.635 164.234 117.635C162.194 117.635 160.524 118.065 159.204 118.925C157.884 119.785 156.894 120.835 156.234 122.085C155.564 123.325 155.214 124.615 155.184 125.945C155.144 127.275 155.394 128.415 155.924 129.365C156.554 130.525 157.534 131.495 158.844 132.285C160.164 133.075 161.614 133.825 163.214 134.545C164.814 135.265 166.444 136.025 168.114 136.835C169.784 137.645 171.304 138.635 172.694 139.805C174.084 140.975 175.214 142.405 176.094 144.085C176.974 145.765 177.414 147.855 177.414 150.345C177.414 150.945 177.274 151.795 176.994 152.895C176.714 153.995 176.164 155.095 175.334 156.185C174.514 157.275 173.334 158.205 171.804 158.995C170.274 159.785 168.264 160.175 165.774 160.175C164.054 160.175 162.514 159.915 161.144 159.385C159.774 158.855 158.604 158.155 157.614 157.275C156.634 156.395 155.854 155.425 155.294 154.355C154.734 153.285 154.404 152.245 154.294 151.225C154.224 150.485 154.114 149.855 153.974 149.325C153.834 148.795 153.654 148.335 153.444 147.935C153.234 147.535 152.974 147.165 152.684 146.825C152.384 146.495 152.044 146.155 151.654 145.795V145.375H161.394V145.795C161.004 146.045 160.614 146.275 160.214 146.505C159.814 146.735 159.454 147.045 159.134 147.425C158.814 147.815 158.584 148.315 158.424 148.925C158.264 149.535 158.244 150.355 158.344 151.375C158.484 152.495 158.714 153.515 159.024 154.425C159.344 155.335 159.794 156.125 160.394 156.795C160.994 157.465 161.764 157.975 162.714 158.325C163.664 158.675 164.824 158.855 166.184 158.855C167.794 158.855 169.204 158.605 170.394 158.095C171.584 157.585 172.574 156.925 173.344 156.115C174.114 155.305 174.684 154.395 175.054 153.375C175.424 152.355 175.604 151.335 175.604 150.315C175.604 148.525 175.204 147.075 174.394 145.965C173.584 144.855 172.554 143.915 171.284 143.145C170.024 142.375 168.604 141.695 167.024 141.115C165.444 140.535 163.884 139.865 162.344 139.115C160.804 138.355 159.344 137.435 157.974 136.345C156.604 135.255 155.514 133.835 154.714 132.075C153.874 130.285 153.454 128.455 153.474 126.595C153.494 124.735 153.914 123.035 154.734 121.505C155.554 119.975 156.774 118.725 158.364 117.765C159.964 116.795 161.914 116.315 164.234 116.315C166.514 116.315 168.404 116.595 169.894 117.155C171.384 117.715 172.574 118.445 173.474 119.335C174.364 120.225 175.004 121.255 175.364 122.415C175.734 123.575 175.914 124.765 175.914 125.995C175.914 126.455 176.014 126.895 176.204 127.335C176.394 127.775 176.634 128.185 176.914 128.575C177.194 128.965 177.504 129.285 177.834 129.545C178.164 129.805 178.474 129.995 178.754 130.095V130.725H168.604V130.745Z" fill="white"/>
<path d="M196.714 130.745V130.275C197.664 130.025 198.374 129.745 198.844 129.405C199.314 129.075 199.664 128.695 199.874 128.275C200.084 127.855 200.194 127.395 200.194 126.905C200.194 126.415 200.194 125.885 200.194 125.325C200.194 124.345 200.054 123.395 199.774 122.485C199.494 121.575 199.034 120.755 198.404 120.035C197.774 119.315 196.954 118.735 195.954 118.295C194.954 117.855 193.754 117.635 192.344 117.635C190.304 117.635 188.634 118.065 187.314 118.925C185.994 119.785 185.004 120.835 184.344 122.085C183.674 123.325 183.324 124.615 183.294 125.945C183.254 127.275 183.504 128.415 184.034 129.365C184.664 130.525 185.644 131.495 186.954 132.285C188.274 133.075 189.724 133.825 191.324 134.545C192.924 135.265 194.554 136.025 196.224 136.835C197.894 137.645 199.414 138.635 200.804 139.805C202.194 140.975 203.324 142.405 204.204 144.085C205.084 145.765 205.524 147.855 205.524 150.345C205.524 150.945 205.384 151.795 205.104 152.895C204.824 153.995 204.274 155.095 203.444 156.185C202.624 157.275 201.444 158.205 199.914 158.995C198.384 159.785 196.374 160.175 193.884 160.175C192.164 160.175 190.624 159.915 189.254 159.385C187.884 158.855 186.714 158.155 185.724 157.275C184.744 156.395 183.964 155.425 183.404 154.355C182.844 153.285 182.514 152.245 182.404 151.225C182.334 150.485 182.224 149.855 182.084 149.325C181.944 148.795 181.764 148.335 181.554 147.935C181.344 147.535 181.084 147.165 180.794 146.825C180.494 146.495 180.154 146.155 179.764 145.795V145.375H189.504V145.795C189.114 146.045 188.724 146.275 188.324 146.505C187.924 146.735 187.564 147.045 187.244 147.425C186.924 147.815 186.694 148.315 186.534 148.925C186.374 149.535 186.354 150.355 186.454 151.375C186.594 152.495 186.824 153.515 187.134 154.425C187.454 155.335 187.904 156.125 188.504 156.795C189.104 157.465 189.874 157.975 190.824 158.325C191.774 158.675 192.934 158.855 194.294 158.855C195.904 158.855 197.314 158.605 198.504 158.095C199.694 157.585 200.684 156.925 201.454 156.115C202.224 155.305 202.794 154.395 203.164 153.375C203.534 152.355 203.714 151.335 203.714 150.315C203.714 148.525 203.314 147.075 202.504 145.965C201.694 144.855 200.664 143.915 199.394 143.145C198.134 142.375 196.714 141.695 195.134 141.115C193.554 140.535 191.994 139.865 190.454 139.115C188.914 138.355 187.454 137.435 186.084 136.345C184.714 135.255 183.624 133.835 182.824 132.075C181.984 130.285 181.564 128.455 181.584 126.595C181.604 124.735 182.024 123.035 182.844 121.505C183.664 119.975 184.884 118.725 186.474 117.765C188.074 116.795 190.024 116.315 192.344 116.315C194.624 116.315 196.514 116.595 198.004 117.155C199.494 117.715 200.684 118.445 201.584 119.335C202.484 120.225 203.114 121.255 203.474 122.415C203.844 123.575 204.024 124.765 204.024 125.995C204.024 126.455 204.124 126.895 204.314 127.335C204.504 127.775 204.744 128.185 205.024 128.575C205.304 128.965 205.614 129.285 205.944 129.545C206.274 129.805 206.584 129.995 206.864 130.095V130.725H196.714V130.745Z" fill="white"/>
<path d="M207.814 160.175V159.965C208.204 159.825 208.704 159.655 209.344 159.465C209.974 159.275 210.524 159.035 210.974 158.755V137.805C210.274 137.415 209.704 136.875 209.264 136.175C208.824 135.475 208.604 134.685 208.604 133.805C208.604 132.925 208.824 132.135 209.264 131.435C209.704 130.735 210.274 130.195 210.974 129.805V117.745C210.694 117.535 210.444 117.365 210.234 117.245C210.024 117.125 209.794 117.025 209.554 116.955C209.304 116.885 209.054 116.825 208.794 116.775C208.534 116.725 208.204 116.645 207.824 116.535V116.325H218.404V116.535C218.054 116.645 217.754 116.715 217.514 116.745C217.264 116.785 217.034 116.835 216.804 116.905C216.574 116.975 216.334 117.075 216.094 117.195C215.844 117.315 215.554 117.505 215.204 117.745V129.795C215.944 130.185 216.524 130.725 216.964 131.425C217.404 132.125 217.624 132.915 217.624 133.795C217.624 134.675 217.404 135.465 216.964 136.165C216.524 136.865 215.934 137.415 215.204 137.795V158.745C215.624 159.025 216.154 159.275 216.784 159.485C217.414 159.695 217.964 159.855 218.414 159.955V160.165H207.814V160.175Z" fill="white"/>
<path d="M242.144 160.175V159.965C242.534 159.825 243.034 159.655 243.674 159.465C244.304 159.275 244.864 159.035 245.354 158.755V125.585L231.614 146.435C231.824 146.825 232.144 147.255 232.564 147.755C232.984 148.245 233.424 148.725 233.884 149.175C234.344 149.635 234.774 150.025 235.204 150.355C235.624 150.685 235.974 150.875 236.254 150.905V151.795H227.774L223.874 157.905C223.804 158.255 223.894 158.545 224.134 158.775C224.384 159.005 224.664 159.195 224.974 159.355C225.294 159.515 225.594 159.635 225.894 159.725C226.194 159.815 226.374 159.895 226.444 159.965V160.175H217.604V159.965C218.164 159.725 218.904 159.425 219.814 159.075C220.724 158.725 221.464 158.335 222.024 157.915L226.284 151.805H223.284V150.485H227.074L229.604 146.435C228.724 145.175 228.104 143.755 227.734 142.195C227.364 140.635 227.234 139.065 227.344 137.485C227.454 135.905 227.764 134.365 228.294 132.855C228.824 131.345 229.554 129.975 230.504 128.745C231.244 127.765 232.134 126.865 233.184 126.065C234.234 125.255 235.404 124.605 236.684 124.095C237.964 123.585 239.334 123.265 240.794 123.125C242.254 122.985 243.764 123.075 245.344 123.385V117.755C245.064 117.545 244.804 117.375 244.584 117.255C244.354 117.135 244.124 117.035 243.904 116.965C243.674 116.895 243.424 116.835 243.144 116.785C242.864 116.735 242.534 116.655 242.144 116.545V116.335H252.774V116.545C252.424 116.655 252.124 116.725 251.884 116.755C251.634 116.795 251.394 116.845 251.144 116.915C250.894 116.985 250.654 117.085 250.404 117.205C250.154 117.325 249.874 117.515 249.564 117.755V158.765C249.984 159.045 250.504 159.295 251.114 159.505C251.724 159.715 252.284 159.875 252.774 159.975V160.185H242.144V160.175ZM232.164 149.305C231.514 148.795 230.944 148.265 230.454 147.695L228.664 150.485H233.714C233.334 150.205 232.814 149.815 232.164 149.305ZM241.144 124.665C240.024 124.995 239.004 125.465 238.094 126.055C237.184 126.655 236.354 127.345 235.624 128.135C234.884 128.925 234.224 129.775 233.624 130.685C232.294 132.725 231.364 134.965 230.834 137.425C230.304 139.885 230.344 142.405 230.944 145.005L244.844 124.155C243.494 124.165 242.264 124.335 241.144 124.665Z" fill="white"/>
<path d="M213.364 135.065C214.049 135.065 214.604 134.51 214.604 133.825C214.604 133.141 214.049 132.585 213.364 132.585C212.679 132.585 212.124 133.141 212.124 133.825C212.124 134.51 212.679 135.065 213.364 135.065Z" fill="#D54426"/>
<path d="M95.6142 138.025C95.6142 138.025 93.5242 137.605 88.6242 138.425C81.5142 139.605 81.7542 143.005 81.7042 143.015C81.7042 143.015 83.2442 138.995 89.5642 139.065C104.584 139.225 104.484 143.585 104.484 143.585L95.6142 138.025Z" fill="white"/>
<path d="M233.874 149.175C233.874 149.175 237.024 152.175 244.824 152.985C247.574 153.275 250.034 153.115 251.954 152.285C256.234 150.445 255.454 150.485 254.734 151.145C252.894 152.845 251.214 153.455 244.824 153.575C237.634 153.705 233.224 150.125 233.224 150.125L233.874 149.175Z" fill="white"/>
<path d="M252.184 152.375C252.184 152.375 254.744 151.995 255.604 150.385C257.384 147.065 252.324 145.655 251.624 147.785C250.924 149.915 254.114 150.075 254.114 150.075C254.114 150.075 254.294 150.535 253.854 151.025C253.414 151.505 252.204 152.165 252.204 152.165L252.184 152.375Z" fill="white"/>
<path d="M84.6442 139.765C84.6442 139.765 82.1942 140.575 81.6142 142.305C80.4242 145.885 85.6442 146.405 85.9742 144.185C86.3042 141.965 83.1342 142.345 83.1342 142.345C83.1342 142.345 82.8742 141.915 83.2342 141.365C83.5942 140.815 84.6642 139.965 84.6642 139.965L84.6442 139.765Z" fill="white"/>
</svg>
