<svg width="135" height="32" viewBox="0 0 135 32" fill="none" xmlns="http://www.w3.org/2000/svg" data-v-b9a224dc><path fill-rule="evenodd" clip-rule="evenodd" d="M2.42273 10.4852C2.42273 8.30068 3.28608 6.24348 4.85617 4.69158C6.42489 3.1403 8.50461 2.28577 10.7114 2.28577H29.8513V6.45249H10.7114C9.62964 6.45249 8.60764 6.87358 7.83358 7.6376C7.06089 8.40354 6.63369 9.41524 6.63369 10.4852L6.60965 17.4791C6.41459 19.3367 4.99903 20.8349 3.16794 21.1113L2.42273 21.2244V10.4852Z" fill="#E6000E"></path><path fill-rule="evenodd" clip-rule="evenodd" d="M2.42273 29.7144V25.5473H21.5626C22.6444 25.5473 23.6664 25.1263 24.4377 24.3604C25.2138 23.5972 25.639 22.5864 25.639 21.5147L25.6424 14.877C25.6424 12.9002 27.1315 11.1859 29.1068 10.8877L29.8513 10.7758V21.5147C29.8513 23.6993 28.988 25.7558 27.4172 27.3076C25.8491 28.86 23.7715 29.7144 21.5626 29.7144H2.42273Z" fill="#E6000E"></path><path fill-rule="evenodd" clip-rule="evenodd" d="M18.6637 21.2246V15.9152L16.1361 18.8205L13.6079 15.9152V21.2246H10.2589V10.7758H13.4314L16.1361 14.1351L18.8402 10.7758H22.014V21.2246H18.6637Z" fill="#E6000E"></path><path fill-rule="evenodd" clip-rule="evenodd" d="M67.609 18.2251H64.0033L65.8064 13.5192L67.609 18.2251ZM68.822 21.3961L69.6263 23.4989H73.5922L67.6283 8.5H64.0423L58.0771 23.4989H61.9817L62.7878 21.3961H68.822ZM51.7557 23.4997V14.5856L47.8842 19.294L44.0144 14.5856V23.4997H40.137V8.50072H43.9613L47.8842 13.6581L51.8083 8.50072H55.6326V23.4997H51.7557ZM76.0584 8.50103V23.4999H79.9371V11.9843H85.3594V8.50103H76.0584ZM97.7352 17.6239V23.4999H101.613V8.50103H97.7352V14.0986H91.9754V8.50103H88.098V23.4999H91.9754V17.6239H97.7352ZM125.994 23.4999V11.9843H121.463V8.50103H134.423V11.9843H129.872V23.4999H125.994ZM114.858 14.9517V23.4999H118.738V8.50103H115.389L109.322 16.9592V8.50103H105.442V23.4999H108.686L114.858 14.9517Z" fill="#E6000E"></path></svg>