<?xml version="1.0" encoding="UTF-8"?> <svg xmlns="http://www.w3.org/2000/svg" xmlns:xlink="http://www.w3.org/1999/xlink" viewBox="0 0 486.75 60.59"> <defs> <style>.cls-1{fill:none;}.cls-2{fill:#231f20;}.cls-3{clip-path:url(#clip-path);}.cls-4{fill:url(#New_Gradient_Swatch_1);}</style> <clipPath id="clip-path"> <path class="cls-1" d="M18.39,0C7.77,0,0,6.65,0,15.9S7.77,31.74,18.39,31.74H99V18.45H19.28c-2.85,0-4.27-.59-4.33-2.55s1.54-2.61,4.33-2.61H99V0Zm84.9,0V13.29h8.19V31.74h13.35V13.29H133V0Zm34,0V31.74h13.35V13.29H217c2.79,0,4.27.59,4.33,2.61s-1.48,2.55-4.33,2.55H155.56V31.74h62.36c10.62,0,18.39-6.64,18.39-15.84S228.54,0,217.92,0ZM258.92,0c-10.62,0-18.39,6.65-18.39,15.9s7.77,15.84,18.39,15.84h62.36V18.45H259.81c-2.85,0-4.27-.59-4.33-2.55s1.54-2.61,4.33-2.61H326.2V31.74h13.35V0ZM369.4,0V9.67H359.07V0H345.72V31.74h13.35V22.61H369.4v9.14h13.35V0Zm35.3,0c-10.62,0-18.39,6.65-18.39,15.9s7.77,15.84,18.39,15.84h62.36V18.45H405.59c-2.85,0-4.27-.59-4.33-2.55s1.54-2.61,4.33-2.61H472V31.74h13.35V0Z"></path> </clipPath> <linearGradient id="New_Gradient_Swatch_1" x1="-177.42" y1="377.81" x2="-176.42" y2="377.81" gradientTransform="matrix(537.81, 0, 0, -537.81, 95367.33, 203209.12)" gradientUnits="userSpaceOnUse"> <stop offset="0" stop-color="#812990"></stop> <stop offset="0.58" stop-color="#c6168d"></stop> <stop offset="1" stop-color="#ed1c24"></stop> </linearGradient> </defs> <title>logo</title> <g id="Слой_2" data-name="Слой 2"> <g id="Layer_1" data-name="Layer 1"> <path class="cls-2" d="M338.4,60.59V56.51h-2V43.88H327.5c0,7.27-.38,10.33-2.42,12.63h-1.34v4.08h1.34V57.78h12v2.81ZM335,56.51H326.6c1.72-2.1,2.29-5.48,2.29-11.35H335Z"></path> <polygon class="cls-2" points="475.85 45.15 480.57 45.15 480.57 57.78 482.03 57.78 482.03 45.15 486.75 45.15 486.75 43.88 475.85 43.88 475.85 45.15"></polygon> <polygon class="cls-2" points="471.64 50 463.79 50 463.79 43.88 462.32 43.88 462.32 57.78 463.79 57.78 463.79 51.28 471.64 51.28 471.64 57.78 473.1 57.78 473.1 43.88 471.64 43.88 471.64 50"></polygon> <polygon class="cls-2" points="426.1 57.78 426.1 43.88 415.64 43.88 415.64 57.78 417.11 57.78 417.11 45.15 424.63 45.15 424.63 57.78 426.1 57.78"></polygon> <polygon class="cls-2" points="444.21 57.78 444.21 43.88 442.87 43.88 437.58 54.27 432.29 43.88 430.95 43.88 430.95 57.78 432.41 57.78 432.41 46.88 437.01 55.87 438.15 55.87 442.75 46.88 442.75 57.78 444.21 57.78"></polygon> <polygon class="cls-2" points="458.56 45.15 458.56 43.88 449.06 43.88 449.06 57.78 458.56 57.78 458.56 56.51 450.53 56.51 450.53 51.28 457.29 51.28 457.29 50.06 450.53 50.06 450.53 45.15 458.56 45.15"></polygon> <path class="cls-2" d="M367.36,47.45c0-2-1.15-3.57-4.72-3.57h-5.87v13.9h5.87c3.25,0,5-1.59,5-4a3.12,3.12,0,0,0-2.62-3.25,2.88,2.88,0,0,0,2.3-3.06m-1.15,6.25c0,1.72-1.15,2.81-3.44,2.81h-4.59V51.28h4.59c2.93,0,3.44,1,3.44,2.42m-3.7-3.64h-4.34V45.15h4.34c2.55,0,3.38.89,3.38,2.42s-.64,2.49-3.38,2.49"></path> <path class="cls-2" d="M395.87,57.78V43.88h-8.55c-.06,10.52-.57,12-3.51,12.5v1.4c3.89-.51,4.78-2.74,4.91-12.63h5.68V57.78Z"></path> <path class="cls-2" d="M412,50.89c0-3.25-1.21-7.21-6.25-7.21s-6.25,3.89-6.25,7.14S400.71,58,405.75,58,412,54.15,412,50.89m-11-.06c0-5.42,3.38-5.8,4.72-5.8s4.72.51,4.72,5.87-3.38,5.8-4.72,5.8S401,56.25,401,50.83"></path> <polygon class="cls-2" points="381.07 45.15 381.07 43.88 371.57 43.88 371.57 57.78 381.07 57.78 381.07 56.51 373.04 56.51 373.04 51.28 379.8 51.28 379.8 50 373.04 50 373.04 45.15 381.07 45.15"></polygon> <polygon class="cls-2" points="352.69 45.15 352.69 43.88 343.19 43.88 343.19 57.78 352.69 57.78 352.69 56.51 344.65 56.51 344.65 51.28 351.41 51.28 351.41 50 344.65 50 344.65 45.15 352.69 45.15"></polygon> <g class="cls-3"> <rect class="cls-4" width="485.33" height="31.74"></rect> </g> </g> </g> </svg> 