<svg width="118" height="48" viewBox="0 0 118 48" fill="none" xmlns="http://www.w3.org/2000/svg" class="h-11 w-[106px] md:h-12 md:w-[118px]"><g clip-path="url(#clip0_6045_106336)"><path d="M38.5379 20.1736C36.4778 12.1426 29.9417 6.5 16.3773 6.5H0.000366211L2.22369 21.5328C3.89613 35.0971 9.08388 39.461 18.2646 41.068C18.3072 41.0746 18.5983 41.116 18.6019 40.7758C18.6031 40.6534 18.5256 40.5477 18.4194 40.5021C12.2139 37.8894 11.5058 29.3213 10.1802 20.7233L9.15469 13.8709H18.5034C27.1225 13.8709 33.7775 13.7346 37.9907 20.3884C38.0531 20.482 38.1509 20.551 38.2667 20.551C38.4293 20.551 38.5505 20.419 38.5505 20.2564C38.5505 20.227 38.5463 20.1988 38.5385 20.1736H38.5379Z" fill="#5FAF2D"></path><path d="M32.8082 41.1672L28.9407 34.7391L25.1529 41.1672H20.6187L26.4437 31.4848L20.5065 22.4961H25.2436L29.0469 28.4976L32.6744 22.4961H37.2087L31.3674 31.7782L37.3689 41.1672H32.8077H32.8082Z" fill="black"></path><path d="M52.1092 34.8193C52.1092 38.9268 49.0152 41.4874 44.961 41.4874C41.3869 41.4874 38.378 39.5137 38.0846 35.2195H41.9522C42.2186 37.0864 43.7128 37.8869 45.3396 37.8869C47.3667 37.8869 48.2417 36.5265 48.2417 34.7664C48.2417 33.0064 46.8813 31.7792 44.9874 31.7792C43.414 31.7792 42.3734 32.5263 41.8933 33.3262H38.1968L39.4744 22.4971H51.6334L51.2277 26.1246H42.53L42.1844 29.7083C42.1844 29.7083 43.0977 28.6324 45.8665 28.6324C49.2018 28.6324 52.1092 30.8713 52.1092 34.8205V34.8193Z" fill="black"></path><path d="M56.278 22.5088H58.7035V31.5185L68.1399 22.5088H71.3119L62.5153 30.9592L71.9516 41.1685H68.7526L60.7024 32.5584L58.7035 34.4775V41.1685H56.278V22.5088Z" fill="black"></path><path d="M83.9489 29.4129H77.978V30.2393C77.978 34.0426 77.5958 36.8546 76.8318 38.6759C76.0679 40.4978 74.8768 41.4081 73.2601 41.4081C73.1179 41.4081 72.9889 41.4039 72.8737 41.3949C72.7579 41.3859 72.6558 41.3721 72.567 41.3547V39.1956C72.6378 39.2136 72.7224 39.222 72.8203 39.222H73.1005C73.562 39.222 73.967 39.0533 74.3133 38.7155C74.6601 38.3782 74.944 37.8448 75.166 37.1163C75.388 36.3878 75.5567 35.4594 75.6725 34.3307C75.7877 33.2025 75.8459 31.8379 75.8459 30.2387V27.3066H86.189V41.168H83.9495V29.4123L83.9489 29.4129Z" fill="black"></path><path d="M94.37 40.6616L88.1855 27.3066H90.8247L95.5162 37.7025L99.4084 27.3066H101.861L94.4769 46.4992H92.0243L94.37 40.6616Z" fill="black"></path><path d="M110.737 41.4075C109.634 41.4075 108.635 41.2251 107.738 40.8608C106.84 40.4965 106.072 39.9637 105.432 39.2616C104.792 38.5595 104.299 37.6935 103.953 36.6626C103.606 35.6322 103.433 34.4501 103.433 33.1173C103.433 31.4292 103.481 29.9986 103.579 28.8255C103.677 27.6523 103.842 26.6663 104.073 25.8664C104.304 25.0665 104.601 24.4184 104.965 23.9203C105.33 23.4229 105.779 23.0142 106.311 22.6944C106.809 22.3925 107.315 22.1789 107.831 22.0547C108.346 21.9305 108.866 21.8548 109.391 21.8278C109.914 21.8014 110.439 21.8014 110.963 21.8278C111.487 21.8542 112.017 21.868 112.549 21.868C113.402 21.868 113.984 21.8062 114.296 21.6814C114.606 21.5572 114.762 21.3172 114.762 20.9619H116.761C116.761 21.5308 116.695 22.0061 116.562 22.3877C116.428 22.77 116.202 23.0808 115.882 23.3209C115.562 23.5609 115.144 23.7301 114.629 23.8273C114.113 23.9251 113.483 23.9738 112.736 23.9738C112.345 23.9738 111.923 23.9563 111.47 23.9203C111.017 23.8849 110.559 23.8717 110.097 23.8801C109.635 23.8891 109.178 23.9377 108.724 24.0266C108.271 24.116 107.849 24.2756 107.458 24.5066C107.12 24.7023 106.841 24.9423 106.619 25.2261C106.396 25.5106 106.214 25.879 106.072 26.3327C105.929 26.7858 105.823 27.3456 105.752 28.0123C105.681 28.679 105.627 29.4916 105.593 30.4517C106.214 29.4922 107.023 28.772 108.018 28.2926C109.013 27.8125 110.097 27.5731 111.271 27.5731C112.23 27.5731 113.11 27.7291 113.91 28.0393C114.71 28.3502 115.393 28.7991 115.963 29.3853C116.531 29.9716 116.976 30.6827 117.295 31.518C117.615 32.3534 117.775 33.2955 117.775 34.3439C117.775 35.3922 117.606 36.2629 117.268 37.1163C116.931 37.9696 116.451 38.7155 115.829 39.3558C115.207 39.9955 114.465 40.4977 113.604 40.862C112.741 41.2263 111.786 41.4087 110.738 41.4087L110.737 41.4075ZM110.71 39.3018C111.491 39.3018 112.18 39.1776 112.775 38.9285C113.37 38.6795 113.864 38.338 114.254 37.9024C114.645 37.4673 114.938 36.956 115.134 36.3698C115.33 35.7835 115.427 35.1528 115.427 34.4771C115.427 33.8014 115.325 33.1443 115.121 32.558C114.916 31.9717 114.618 31.4652 114.228 31.0386C113.837 30.6119 113.352 30.2789 112.775 30.0388C112.198 29.7988 111.535 29.6788 110.789 29.6788C109.954 29.6788 109.226 29.803 108.604 30.052C107.982 30.3011 107.462 30.6251 107.044 31.0248C106.627 31.4244 106.311 31.8871 106.098 32.411C105.885 32.9355 105.778 33.4731 105.778 34.024C105.778 34.8059 105.898 35.5212 106.138 36.1699C106.378 36.8186 106.715 37.3743 107.151 37.8358C107.586 38.2984 108.106 38.6579 108.711 38.9153C109.315 39.1734 109.981 39.3018 110.71 39.3018H110.71Z" fill="black"></path></g><defs><clipPath id="clip0_6045_106336"><rect width="118" height="40" fill="white" transform="translate(0 6.5)"></rect></clipPath></defs></svg>