<?xml version="1.0" encoding="UTF-8"?>
<svg id="Layer_1" data-name="Layer 1" xmlns="http://www.w3.org/2000/svg" xmlns:xlink="http://www.w3.org/1999/xlink" version="1.1" viewBox="0 0 260.7 37.4">
  <defs>
    <style>
      .cls-1 {
        fill: #8e8e8e;
      }

      .cls-1, .cls-2, .cls-3 {
        stroke-width: 0px;
      }

      .cls-2 {
        fill: url(#linear-gradient);
      }

      .cls-3 {
        fill: #424242;
      }
    </style>
    <linearGradient id="linear-gradient" x1="0" y1="18.7" x2="36.7" y2="18.7" gradientTransform="translate(44.5 18.9) rotate(135)" gradientUnits="userSpaceOnUse">
      <stop offset="0" stop-color="#eee"/>
      <stop offset="1" stop-color="#7f7f7f"/>
    </linearGradient>
  </defs>
  <path class="cls-3" d="M54.5,17.8l-5.5-8.9h-4.8v19.5h4.2v-12.9h.2l4.5,7.5h2.3l4.5-7.5h.2v12.8h4.3V9h-4.7l-5.4,8.9ZM75,8.9l-8,19.5h4.8l1.5-3.9h8.4l1.5,3.9h4.8l-8.1-19.5h-4.8ZM74.6,20.8l2.6-7.5h.3l2.6,7.5h-5.5ZM103.6,22.1l-9.4-13.1h-3.9v19.5h4.3v-12.5l9,12.5h4.4V9h-4.2v13.1h0ZM121.4,21l3.5.2v3c-1,.5-2.2.8-3.6.8s-1.7-.1-2.5-.4c-.8-.2-1.4-.6-1.9-1.2-.6-.5-1-1.2-1.3-1.9-.3-.8-.5-1.6-.5-2.6s.2-1.8.4-2.5c.3-.8.7-1.4,1.3-2,.5-.5,1.2-.9,2-1.2.8-.3,1.6-.4,2.5-.4s2,.1,2.8.4c.9.3,1.6.8,2.3,1.4l2.5-3.2c-1-.9-2.1-1.6-3.3-2-1.3-.5-2.6-.6-4.1-.6s-3.2.2-4.5.8c-1.3.5-2.5,1.3-3.4,2.2-.9.9-1.6,2-2.1,3.3-.5,1.2-.8,2.5-.8,3.9s.2,3,.8,4.2c.5,1.2,1.2,2.3,2.1,3.2.9.9,2,1.5,3.3,2s2.7.7,4.2.7,2.9-.2,4.3-.6c1.3-.4,2.6-1.1,3.6-1.9v-9.2h-7.6v3.6h0ZM151.5,14.7c-.5-1.2-1.2-2.3-2.1-3.2-.9-.9-2-1.6-3.3-2.2-1.3-.5-2.7-.8-4.2-.8s-2.9.2-4.2.8c-1.2.5-2.3,1.2-3.3,2.2-.9.9-1.6,2-2.2,3.2-.5,1.2-.8,2.6-.8,4s.2,2.8.8,4c.5,1.2,1.2,2.3,2.2,3.2.9.9,2,1.6,3.3,2.2,1.2.5,2.6.8,4.2.8s2.9-.2,4.2-.8c1.2-.5,2.3-1.2,3.3-2.2.9-.9,1.6-2,2.1-3.3.5-1.2.8-2.5.8-3.9s-.3-2.8-.8-4ZM147.5,21.1c-.3.8-.6,1.4-1.2,2-.5.6-1.2,1.1-1.9,1.3-.7.3-1.6.5-2.5.5s-1.8-.2-2.5-.5c-.7-.4-1.3-.8-1.9-1.3-.5-.5-.9-1.2-1.2-2-.2-.8-.4-1.6-.4-2.5s.2-1.7.4-2.5c.2-.8.6-1.4,1.2-2,.5-.5,1.1-1,1.9-1.3.8-.3,1.6-.5,2.5-.5s1.8.1,2.5.5c.7.3,1.4.8,1.9,1.3.5.5.9,1.2,1.2,2,.2.8.4,1.6.4,2.5s-.1,1.8-.4,2.5Z"/>
  <path class="cls-1" d="M177.6,11.5c-.9-.9-2-1.6-3.2-2.2-1.3-.5-2.6-.8-4.1-.8s-2.9.2-4,.8c-1.3.5-2.3,1.2-3.3,2.2-.9.9-1.6,2-2.1,3.2-.5,1.2-.8,2.6-.8,4s.2,2.8.8,4c.5,1.2,1.2,2.3,2.1,3.2.9.9,1.9,1.6,3.2,2.2,1.2.5,2.6.8,4.1.8s2.9-.3,4.1-.8c1.2-.5,2.3-1.2,3.2-2.2.9-.9,1.6-2,2.1-3.2.5-1.2.8-2.6.8-4s-.2-2.8-.8-4c-.4-1.1-1.1-2.2-2.1-3.1ZM178.3,22.3c-.4,1.1-1,2-1.8,2.8-.8.8-1.6,1.3-2.7,1.8-1.1.4-2.2.6-3.6.6s-2.5-.2-3.6-.6c-1.1-.4-1.9-1.1-2.7-1.9-.8-.8-1.3-1.7-1.8-2.8-.4-1.1-.6-2.2-.6-3.5s.2-2.4.6-3.5c.4-1.1.9-2.1,1.7-2.8.8-.8,1.6-1.4,2.8-1.9,1.1-.4,2.3-.6,3.6-.6s2.5.2,3.6.6c1.1.5,1.9,1,2.7,1.8.8.8,1.3,1.7,1.8,2.8.4,1.1.6,2.3.6,3.6,0,1.3-.2,2.5-.6,3.6ZM184.1,28.5h1.5v-9.2h10.3v-1.3h-10.3v-7.7h11.8v-1.3h-13.3v19.5ZM201.1,28.5h1.5v-9.2h10.3v-1.3h-10.3v-7.7h11.9v-1.3h-13.3v19.5h0ZM218.1,28.5h1.5V9h-1.5v19.5ZM237.3,26.9c-1.2.4-2.4.6-3.8.6s-2.4-.2-3.5-.6c-1.1-.4-2-1-2.8-1.8-.8-.8-1.4-1.7-1.8-2.8-.5-1.1-.6-2.3-.6-3.7s.2-2.5.6-3.6c.4-1.1,1-2,1.8-2.8.8-.8,1.7-1.3,2.8-1.8,1.1-.4,2.3-.6,3.6-.6,2.5,0,4.7.8,6.5,2.2l.8-1.1c-.4-.4-.9-.7-1.5-1-.6-.3-1.2-.6-1.8-.8-.6-.2-1.2-.4-1.9-.5-.6-.1-1.2-.2-1.9-.2-1.6,0-3.1.2-4.4.8-1.3.5-2.5,1.2-3.4,2.2-.9.9-1.6,2-2.1,3.2-.5,1.2-.8,2.6-.8,4s.2,3,.8,4.2c.5,1.3,1.2,2.3,2.1,3.2.9.8,1.9,1.5,3.2,2,1.2.5,2.6.7,4.1.7,3.2,0,5.8-.9,8-2.9l-.9-1c-1,.8-2,1.4-3.1,1.8ZM246.2,27.2v-8.2h10.6v-1.3h-10.6v-7.5h12.2v-1.3h-13.7v19.5h14.3v-1.3h-12.8Z"/>
  <circle class="cls-2" cx="18.4" cy="18.7" r="18.4"/>
</svg>