<?xml version="1.0" encoding="UTF-8"?>
<svg id="Layer_1" data-name="Layer 1" xmlns="http://www.w3.org/2000/svg" version="1.1" viewBox="0 0 228 49.7">
  <defs>
    <style>
      .cls-1 {
        fill: #424242;
        stroke-width: 0px;
      }
    </style>
  </defs>
  <path class="cls-1" d="M8,34.5l.2-.4c.2-.6.3-1.2.5-1.8,1-3.8,2-7.5,2.9-11.3.8-3,1.6-6,2.3-9v-.4c.1,0,.8,0,.8,0,0,0,.2,0,.6,0h.3s.2,0,.2,0h.1c0,.1,0,.3,0,.3v.6c0,8.3,0,16.6,0,24.8v.7s-.2.2-.2.2c-.4,0-.9,0-1.3,0h-.1c0-.1,0-.7,0-.7,0-4,0-7.9,0-11.9s0-5.3,0-8v-.6s0,0,0,0h0s-.1.4-.1.4c-1.2,4.7-2.4,9.5-3.7,14.2-.5,2-1.1,4.1-1.6,6.1v.4c-.6,0-1,0-1.4,0h-.2c-.1-.5-.2-.9-.4-1.4-1.2-4.5-2.3-9-3.5-13.5l-1.5-5.8v-.4c-.1,0-.2,0-.2,0h0c0,.1,0,.7,0,.7v20.4s-.2.2-.2.2c-.4,0-.8,0-1.3,0v-.2c-.1,0-.2-.6-.2-.6V11.8s0-.2,0-.2h.2c.4,0,.8-.1,1.3,0h.4s.2.5.2.5c.6,2.2,1.2,4.5,1.7,6.7.9,3.5,1.8,6.9,2.7,10.4.4,1.7.9,3.3,1.3,5l.2.4Z"/>
  <path class="cls-1" d="M152.7,24.8c0,2.1,0,4.2,0,6.4,0,.7,0,1.4.2,2.2.1.5.3,1.1.5,1.6.5.9,1.3,1.5,2.4,1.7.8.2,1.6.2,2.4,0,1.1-.2,1.9-.8,2.4-1.8l.3-.7c.2-.6.3-1.1.3-1.7,0-.5,0-.9,0-1.4,0-4,0-8.1,0-12.1v-.7c0-.6,0-1.2-.2-1.8-.1-.6-.3-1.1-.6-1.7-.4-.7-1-1.2-1.7-1.5-.4-.2-.9-.3-1.3-.3h-.8c-.3,0-.7,0-1,.1-.9.2-1.6.8-2.1,1.6l-.3.7c-.2.5-.3,1.1-.4,1.7,0,.5,0,1,0,1.5,0,2.1,0,4.2,0,6.3ZM162.9,24.8v6.1c0,.7,0,1.3,0,2,0,.7-.2,1.3-.5,2l-.3.7c-.6,1.2-1.6,2-2.9,2.4-.8.3-1.7.3-2.6.3-.6,0-1.1-.1-1.7-.3-1.3-.4-2.2-1.2-2.9-2.4-.3-.6-.5-1.3-.7-1.9-.1-.7-.2-1.4-.2-2.1v-.7c0-4,0-8,0-12,0-.7,0-1.4.1-2.1,0-.8.3-1.5.6-2.2.4-.8.9-1.5,1.6-2.1.7-.5,1.4-.8,2.2-.9.6-.1,1.2-.1,1.8-.1.7,0,1.4.2,2.1.4,1,.4,1.8,1.1,2.4,2,.4.7.7,1.5.8,2.3.2.8.2,1.7.2,2.5v6.2Z"/>
  <path class="cls-1" d="M110.6,24.8c0-2.1,0-4.2,0-6.3,0-.4,0-.8,0-1.3,0-.4,0-.8-.2-1.2,0-.4-.2-.8-.4-1.2-.5-1-1.3-1.7-2.4-1.9-.5-.1-1-.1-1.5-.1-.4,0-.7,0-1.1.1-.9.2-1.6.8-2.1,1.6l-.3.7c-.2.5-.3,1.1-.4,1.7,0,.5,0,1,0,1.5,0,3.5,0,7,0,10.5s0,1.5,0,2.3c0,.7,0,1.4.2,2,.1.6.3,1.1.6,1.6.4.8,1.1,1.3,1.9,1.6.4.1.9.2,1.3.2.5,0,1,0,1.5-.1,1.1-.2,1.9-.8,2.4-1.8l.3-.7c.2-.6.3-1.2.3-1.8,0-.4,0-.9,0-1.3,0-2.1,0-4.1,0-6.2ZM112.2,24.8v6.5c0,.8,0,1.5-.2,2.3-.1.6-.3,1.2-.6,1.8-.7,1.5-1.9,2.4-3.4,2.7-.8.2-1.6.2-2.4.2-.6,0-1.2-.2-1.7-.4-1-.4-1.7-1-2.3-1.9-.5-.7-.7-1.5-.9-2.3-.1-.7-.2-1.4-.2-2.1v-.6c0-4.1,0-8.2,0-12.3,0-.7,0-1.4.1-2,0-.8.3-1.6.6-2.3.7-1.5,1.8-2.4,3.4-2.8.9-.2,1.8-.3,2.8-.1.5,0,1,.2,1.5.4,1.1.4,1.9,1.1,2.4,2.1.4.7.6,1.4.8,2.1.1.7.2,1.5.2,2.3v6.5Z"/>
  <path class="cls-1" d="M80.1,25.7h-.2c0,0-.3.5-.3.5-.3.5-.6.9-.9,1.4-.3.4-.2.3-.3.8v9.5s-.2.2-.2.2h-1.3l-.2-.2v-.6s0-6.9,0-6.9V11.7s.2-.2.2-.2c.4,0,.9,0,1.3,0h.2c0,.1,0,.7,0,.7v12.4s0,.2,0,.2h.1c0,0,.3-.5.3-.5,1.8-2.8,3.6-5.5,5.4-8.3.9-1.3,1.8-2.7,2.7-4l.2-.3.4-.2c.4,0,.8,0,1.3,0h.2c0,0,0,.3,0,.3-.5.8-1,1.5-1.5,2.3-2.1,3.1-4.1,6.3-6.2,9.4l-.3.6.4.6c2.7,4.2,5.4,8.5,8.1,12.7l.3.5v.2c-.6,0-1,0-1.5,0h-.3c0-.1-.3-.5-.3-.5-2.4-3.8-4.9-7.6-7.3-11.3l-.4-.5Z"/>
  <path class="cls-1" d="M137.5,24.8v13.1s-.2.2-.2.2c-.4,0-.8,0-1.3,0h-.1c0-.1,0-.8,0-.8,0-3.7,0-7.3,0-11v-.6s-.2-.2-.2-.2h-.3s-7.5,0-7.5,0h-.4s0,0,0,0h0c0,.1,0,.7,0,.7v11.6s-.2.2-.2.2c-.4,0-.8,0-1.3,0h-.1c0-.1,0-.7,0-.7V11.7s.2-.2.2-.2c.4,0,.8,0,1.2,0l.2.2v.6s0,10.9,0,10.9v.6s.3.2.3.2h.3c2.5,0,5,0,7.5,0h.3s.2-.2.2-.2v-.6c0-2.3,0-4.7,0-7s0-2.7,0-4.1v-.5s.2-.1.2-.1h1.3l.2.2v.6s0,12.5,0,12.5h0Z"/>
  <path class="cls-1" d="M38.8,30.5v-.4c-1.3-5.1-2.6-10.1-3.9-15.2h-.1s0,.2,0,.2c-.5,1.9-.9,3.8-1.4,5.7-.6,2.6-1.3,5.2-1.9,7.8-.1.5-.2,1-.4,1.5v.4s0,0,0,0c2.4,0,4.9,0,7.3,0h.3ZM35.6,11.5h.1c0,.1,0,.4,0,.4.4,1.7.8,3.4,1.3,5.1.7,2.8,1.4,5.7,2.1,8.5.7,2.7,1.3,5.4,2,8.1.3,1.3.6,2.6,1,3.9v.5s-.1,0-.1,0c-.4,0-.8,0-1.3,0h-.1s-.2-.6-.2-.6c-.4-1.7-.8-3.3-1.3-5v-.3c0,0-.3-.2-.3-.2h-.5s-4.7,0-4.7,0h-3.1s-.2.4-.2.4c-.2.8-.4,1.6-.6,2.4-.2.9-.5,1.9-.7,2.8v.4c-.1,0-.2,0-.2,0-.5,0-.9,0-1.4,0h0c.1-.6.2-1,.3-1.5.8-3.3,1.6-6.6,2.4-9.8.8-3.2,1.6-6.5,2.3-9.7.4-1.6.8-3.3,1.2-4.9v-.5c.1,0,.3-.1.3-.1"/>
  <path class="cls-1" d="M52.3,31.3v-1.3s.2-.2.2-.2c.4,0,.8,0,1.2,0l.2.2v.5c0,.6,0,1.2,0,1.8,0,.5.1,1.1.2,1.6,0,.4.2.8.5,1.1.6,1,1.5,1.6,2.7,1.8.5,0,1.1,0,1.6,0,1.1-.2,1.9-.7,2.5-1.6.3-.4.5-.8.6-1.3.1-.6.2-1.1.3-1.7,0-.3,0-.6,0-1,0-.8-.3-1.6-.7-2.3-.5-.7-1.1-1.3-1.7-1.9-.7-.6-1.5-1.1-2.2-1.6-.8-.5-1.5-1-2.1-1.5-.8-.7-1.5-1.4-2.1-2.3-.5-.9-.8-1.8-.9-2.8,0-.9,0-1.7.1-2.6.2-.9.4-1.7.9-2.5.6-1.1,1.6-1.8,2.8-2.1,1.2-.3,2.4-.4,3.6,0,1.1.3,2.1.9,2.7,1.9.5.7.8,1.5,1,2.3.2.7.3,1.5.2,2.2v.9s-.2.2-.2.2c-.4,0-.8,0-1.3,0v-.2c-.1,0-.2-.7-.2-.7,0-.7,0-1.4-.2-2-.1-.5-.3-1-.5-1.4-.5-.9-1.2-1.4-2.2-1.7h-.7c-.6-.1-1.1-.1-1.6,0-.9.2-1.6.7-2,1.5-.4.6-.6,1.3-.7,2-.1.6-.1,1.2-.1,1.8,0,1,.3,1.9.9,2.8.4.6.9,1.1,1.4,1.5.8.6,1.6,1.2,2.4,1.7.9.6,1.7,1.2,2.5,1.9.7.6,1.2,1.3,1.7,2,.5.8.8,1.7.8,2.6,0,1.2,0,2.5-.4,3.7-.2.6-.4,1.1-.8,1.6-.7,1.1-1.7,1.7-2.9,2-.8.2-1.5.2-2.3.2-.5,0-.9-.1-1.4-.2-1.1-.4-2-1-2.7-2-.4-.6-.7-1.3-.8-2-.2-.9-.3-1.8-.3-2.7Z"/>
  <path class="cls-1" d="M215.4,24.8v-6.6c0-.8,0-1.6.2-2.3.1-.6.3-1.2.6-1.7.5-1,1.3-1.8,2.3-2.3.5-.2,1-.4,1.5-.5.5,0,.9,0,1.4,0,.5,0,1,0,1.5.2,1.3.3,2.3,1,3,2.1.4.6.6,1.2.8,1.9.2.8.3,1.7.3,2.5,0,.7,0,1.4,0,2.1v.3s-.1,0-.1,0h-.1c-.4,0-.8,0-1.2,0l-.2-.2v-.5s0-1.8,0-1.8c0-.8,0-1.5-.3-2.3-.1-.4-.3-.9-.5-1.3-.5-.9-1.3-1.4-2.2-1.6h-.8c-.5-.1-1.1-.1-1.6,0-.9.2-1.6.7-2.1,1.4-.3.4-.5.8-.6,1.3-.2.7-.3,1.4-.3,2.1v.7s0,12.5,0,12.5c0,.6,0,1.2.1,1.8,0,.6.2,1.3.5,1.9.4.8,1,1.4,1.9,1.8l.8.2c.5,0,1.1,0,1.6,0,1.1-.2,2-.7,2.6-1.7.3-.5.5-1.1.6-1.8.1-.6.1-1.2.1-1.8v-3s.2-.2.2-.2c.4,0,.9,0,1.3,0h.1c0,.1,0,.5,0,.5,0,.9,0,1.8,0,2.7,0,1-.1,2-.4,3-.2.7-.5,1.4-1,2-.7.9-1.6,1.5-2.7,1.7-.8.2-1.5.2-2.3.2-.5,0-.9-.1-1.3-.2-1-.3-1.9-.9-2.5-1.8-.5-.7-.9-1.6-1-2.4-.2-.8-.2-1.5-.2-2.3v-6.6Z"/>
  <path class="cls-1" d="M176.3,24.8v-12.5c0-.9-.1-.8.8-.8h.6s.3.3.3.3v24.5s.2.2.2.2h.6c2.4,0,4.7,0,7.1,0h.5l.3.3v1.1l-.2.2h-.4s-9,0-9,0h-.5s-.1-.2-.1-.2v-.2s0-.5,0-.5v-12.5Z"/>
  <path class="cls-1" d="M199.1,24.8v-12.5c0-.9,0-.8.7-.8h.7s.2.2.2.2v.5s0,25.1,0,25.1c0,.8,0,.7-.7.7h-.7s-.2-.2-.2-.2v-.6s0-12.5,0-12.5Z"/>
</svg>