<svg width="294" height="46" viewBox="0 0 294 46" fill="none" xmlns="http://www.w3.org/2000/svg">
<path d="M288.512 22.7186C288.512 27.8616 285.618 31.1439 280.732 31.1439C278.815 31.1533 276.967 30.495 275.544 29.2927V17.1463C276.919 15.1521 279.201 14.2934 281.496 14.2934C286.074 14.2934 288.512 17.5757 288.512 22.5755V22.7186ZM283.015 10.4291H282.706C280.111 10.4291 277.218 11.5741 275.388 13.4251L275.234 11.0016H267.762V11.5741C269.746 12.1466 270.202 13.7209 270.202 16.2876V46H275.388V33.4243C277.218 34.5692 279.357 34.9986 281.34 34.9986C289.877 34.9986 293.846 28.8539 294 22.566C294 15.572 290.187 10.4291 283.015 10.4291Z" fill="#424242"/>
<path d="M249.549 31.1439C244.827 31.1439 241.468 27.5752 241.468 22.7186C241.468 17.862 244.827 14.2934 249.549 14.2934C254.272 14.2934 257.631 17.862 257.631 22.7186C257.631 27.5752 254.282 31.1439 249.549 31.1439ZM249.405 10.4291C241.778 10.4291 235.981 15.8582 235.981 22.8522C235.981 29.8558 241.778 35.1417 249.405 35.1417C258.406 35.1417 262.973 28.8539 262.827 22.8522C262.819 15.572 257.175 10.4291 249.405 10.4291Z" fill="#424242"/>
<path d="M230.067 10.4291C228.238 10.5722 225.035 11.5741 223.206 15.572V11.0016H215.889V11.5741C217.873 12.1466 218.173 13.7209 218.173 16.2876V34.5692H223.515V23.5679C223.515 17.8524 226.11 15.2857 229.003 14.9995H229.923C231.452 14.9995 232.67 15.4289 233.736 16.2876L234.8 12.0034C233.736 11.0016 232.206 10.4291 230.377 10.4291H230.067Z" fill="#424242"/>
<path d="M204.468 17.2893C204.468 24.2833 199.89 30.428 189.525 30.428H184.038V4.14103H189.525C199.901 4.14103 204.622 10.2858 204.468 17.2893ZM190.9 0H175.647V0.572494C178.086 1.43123 178.24 3.99792 178.24 7.70959V34.5596H190.9C204.468 34.5596 210.574 25.4187 210.574 17.1271C210.574 9.14082 204.468 0 190.9 0Z" fill="#424242"/>
<path d="M146.246 10.4291C143.042 10.4291 140.148 11.431 138.164 13.9976L138.01 11.0016H130.848V11.5741C132.832 12.1466 133.132 13.7209 133.132 16.2876V34.5692H138.474V18.1386C139.694 15.9918 141.978 14.2839 144.571 14.2839C147.775 14.2839 149.449 16.2876 149.449 19.4267V34.5692H154.637V19.4267C154.637 12.4328 150.059 10.4291 146.246 10.4291Z" fill="#424242"/>
<path d="M112.353 31.1439C107.63 31.1439 104.272 27.5752 104.272 22.7186C104.272 17.862 107.63 14.2934 112.353 14.2934C117.076 14.2934 120.434 17.862 120.434 22.7186C120.434 27.5752 117.076 31.1439 112.353 31.1439ZM112.353 10.4291C104.727 10.4291 98.9296 15.8582 98.9296 22.8522C98.9296 29.8558 104.727 35.1417 112.353 35.1417C121.199 35.1417 125.922 28.8539 125.777 22.8522C125.777 15.572 120.134 10.4291 112.353 10.4291Z" fill="#424242"/>
<path d="M91.8454 12.0034C89.7065 10.7153 87.2677 10.4291 84.8288 10.4291C81.1704 10.4291 76.7476 12.0034 76.2926 16.2876C76.2637 16.507 76.2926 17.0414 76.2926 17.1463C76.2926 20.7148 79.3413 22.2893 81.0156 23.148C82.3996 23.7396 83.7739 24.3597 85.1385 25.0086C86.8128 25.7242 87.8774 26.8597 87.8774 28.1478V28.2909C87.7225 29.7222 86.5031 31.1439 83.7642 31.1439C81.4317 31.1439 78.9929 30.5236 76.9993 29.1974L75.983 33.2811C77.8122 34.283 80.5608 34.9986 83.7545 34.9986C87.1129 34.9986 92.9003 33.4243 92.9003 27.8616V27.5752C92.9003 24.0067 90.1516 22.2893 88.0225 21.1442C87.5193 20.9057 86.9579 20.6482 86.3967 20.4001C85.2739 19.8943 84.1609 19.379 83.4448 19.007C82.2254 18.4344 81.3059 17.7189 81.3059 16.5738C81.3059 16.4881 81.2962 16.4212 81.3059 16.2876C81.6157 14.8563 83.135 14.2839 85.1191 14.2839C87.4321 14.2839 89.2032 14.7897 90.8969 15.8105L91.8357 12.0416V12.0034H91.8454Z" fill="#424242"/>
<path d="M65.0754 0.572684C63.3914 0.572684 62.0267 1.8608 62.0267 3.43515C62.0267 5.00952 63.4011 6.28809 65.0754 6.28809C66.9045 6.28809 68.2788 4.99997 68.124 3.43515C68.124 1.8608 66.7497 0.572684 65.0754 0.572684Z" fill="#424242"/>
<path d="M60.1976 11.5738C62.1815 12.1463 62.4815 13.7207 62.4815 16.2874V34.569H67.8239V11.0013H60.1976V11.5738Z" fill="#424242"/>
<path d="M41.8392 31.1439C37.1066 31.1439 33.758 27.5752 33.758 22.7186C33.758 17.862 37.1163 14.2934 41.8392 14.2934C46.4169 14.2934 49.7655 17.862 49.9204 22.7186C49.9204 27.5658 46.562 31.1439 41.8392 31.1439ZM41.6843 10.4291C34.0581 10.4291 28.2608 15.8582 28.2608 22.8522C28.2608 29.8558 34.0581 35.1417 41.6746 35.1417C50.6752 35.1417 55.2433 28.8539 55.0982 22.8522C55.0982 15.572 49.4559 10.4291 41.6843 10.4291Z" fill="#424242"/>
<path d="M14.0332 16.2874H8.39089V3.99792H14.1881C19.0658 3.99792 20.7401 7.28021 20.7401 10.1427C20.7401 13.8544 17.9916 16.2874 14.0332 16.2874ZM14.4881 0H0V0.572494C2.43888 1.43123 2.59373 3.99792 2.59373 7.70959V34.569H8.39089V20.1422H13.7332C22.2693 20.1422 26.6921 15.715 26.6921 10.1427C26.6824 4.57041 22.4144 0 14.4881 0Z" fill="#424242"/>
</svg>
