<svg width="226" height="40" viewBox="0 0 226 40" fill="none" xmlns="http://www.w3.org/2000/svg">
<path d="M69.193 16.8817H49.9461V7H43.8163V33H49.9461V22.602H69.193V33H75.3333V7H69.193V16.8817Z" fill="#424242"/>
<path d="M29.7664 24.884L23.3143 15.8904H18.1851L11.7439 24.884L6.49551 7H0L7.69915 33H13.1644L20.7551 22.3956L28.3457 33H33.8002L41.5102 7H35.0038L29.7664 24.884Z" fill="#424242"/>
<path d="M219.719 7V16.8817H199.996V7H193.714V33H199.996V22.602H219.719V33H226V7H219.719Z" fill="#424242"/>
<path d="M144.377 7H126.966C121.837 7 119.15 9.28198 119.15 13.9698V26.0302C119.15 30.7078 121.837 33 126.966 33H144.377C149.506 33 152.204 30.7078 152.204 26.0302V13.9698C152.204 9.28198 149.506 7 144.377 7ZM145.994 27.2795H125.392V12.7204H146.036L145.994 27.2795Z" fill="#424242"/>
<path d="M181.09 16.9961H162.983V12.5545H187.822V7H164.059C159.01 7 156.816 8.86526 156.816 13.4305V16.0789C156.816 20.7472 158.947 22.5712 164.059 22.5712H182.166V27.4456H157.328V33H181.09C186.192 33 188.333 31.1864 188.333 26.5078V23.4162C188.333 18.748 186.203 16.9857 181.09 16.9857" fill="#424242"/>
<path d="M105.952 7H88.5308C83.4128 7 80.7143 9.28198 80.7143 13.9698V26.0302C80.7143 30.7078 83.4128 33 88.5308 33H105.952C111.07 33 113.769 30.7078 113.769 26.0302V13.9698C113.769 9.28198 111.07 7 105.952 7ZM107.569 27.2795H86.914V12.7204H107.569V27.2795Z" fill="#424242"/>
</svg>
