<svg width="112" height="54" viewBox="0 0 112 54" fill="none" xmlns="http://www.w3.org/2000/svg">
<path d="M76.4566 46.1101C76.4566 45.6242 76.3076 45.5309 75.8839 45.5309H75.5895V49.3391H75.8839C76.3076 49.3391 76.4566 49.2198 76.4566 48.7401V46.1101Z" fill="#424242"/>
<path d="M73.4467 45.5309C73.0316 45.5309 72.8752 45.6515 72.8752 46.1275V48.7487C72.8752 49.2298 73.0316 49.3391 73.4467 49.3391H73.7496V45.5309H73.4467Z" fill="#424242"/>
<path d="M106.756 48.6493C106.756 48.1808 106.627 48.0751 106.204 48.0751H105.78V50.2104H106.204C106.627 50.2104 106.756 50.1023 106.756 49.6374V48.6493Z" fill="#424242"/>
<path fill-rule="evenodd" clip-rule="evenodd" d="M112 54H37.3328V41.4369H112V54ZM43.5465 43.4752H45.4406V51.6559H43.5465V48.0751H42.5722V51.6559H40.6794V43.4752H42.5722V46.6309H43.5465V43.4752ZM56.5931 43.4689H61.1352V45.0201H58.5464V46.6309H60.8632V48.1808H58.5464V50.1097H61.1352V51.6609H56.5931V43.4689ZM75.5895 44.0891C77.4864 44.0891 78.2918 44.513 78.2918 46.1835V48.7401C78.2918 50.3993 77.4543 50.8455 75.5895 50.8455V51.6559H73.7496V50.8455C71.8836 50.8455 71.0363 50.3993 71.0363 48.7401V46.1835C71.0363 44.513 71.8492 44.0891 73.7496 44.0891V43.4752H75.5895V44.0891ZM88.0832 43.4689H92.8507V45.0201H91.4209V51.6609H89.6214V45.0201H88.0832V43.4689ZM106.099 46.6309C107.958 46.6309 108.646 47.0684 108.646 48.7052V49.5455C108.646 51.3377 107.838 51.6559 105.78 51.6559H103.887V43.4752H105.78V46.6309H106.099Z" fill="#424242"/>
<path d="M32.3399 48.0478V35.159H18.6973V41.0801C18.7033 41.0714 18.7096 41.0664 18.7231 41.059C20.7751 38.9945 24.0991 38.9945 26.1523 41.059C28.2053 43.116 28.2053 46.4656 26.1523 48.5275L26.1265 48.5487V48.5561C26.1184 48.5606 26.1104 48.565 26.1031 48.5723C26.1001 48.5751 26.0971 48.5784 26.0943 48.5822C24.0461 50.6256 21.3699 51.6459 18.6973 51.6459C16.0123 51.6459 13.3249 50.6119 11.2754 48.5574C7.66183 44.9281 7.23567 39.309 9.98587 35.2062C10.3578 34.6494 10.7865 34.1236 11.2754 33.6352C13.3249 31.5757 16.0123 30.5466 18.6973 30.5466V16.4186C8.3751 16.4186 0 24.8355 0 35.2062C0 45.5831 8.3751 53.9987 18.6973 53.9987C24.082 53.9987 28.9321 51.7056 32.3399 48.0478Z" fill="#424242"/>
<path fill-rule="evenodd" clip-rule="evenodd" d="M30.6317 21.3305C31.1206 17.8219 31.1415 14.7445 30.0133 9.7418C29.0062 5.29254 26.647 1.5779 25.8629 0.343249C25.7651 0.189006 25.6918 0.0734494 25.6486 0C25.0289 0.932174 22.7666 4.52163 21.6149 8.51633C20.3562 12.9609 20.1715 16.9083 20.6027 20.7936C21.0349 24.6764 22.6667 28.6624 22.6667 28.6624C23.5288 30.7554 24.8234 33.0001 25.6694 34.1C26.9012 32.4793 29.7438 27.6494 30.6317 21.3305ZM27.1289 26.399C27.2165 29.4081 26.2261 31.7771 25.6486 32.8559C25.0932 31.7994 24.2273 29.7822 24.1422 26.6725C24.1227 23.6572 25.3135 21.0782 25.6694 20.5401C25.9786 21.0782 27.0071 23.3291 27.1289 26.399ZM28.6154 9.6983C29.5392 13.0839 29.7215 16.3279 29.6858 18.237C29.6426 20.1461 29.416 22.1608 29.1317 23.3639C29.2338 21.2895 28.9863 18.3637 28.5085 16.0756C28.0392 13.7862 26.6967 9.97171 25.6263 8.20436C24.6399 9.88224 23.4242 13.1871 22.7849 16.0569C22.1457 18.923 22.1261 22.3932 22.1261 23.4348C21.955 22.5523 21.5326 19.4314 21.6543 16.2844C21.758 13.6893 22.3528 11.027 22.6841 9.80144C23.9402 5.70613 25.3615 3.09108 25.6263 2.6747C25.8913 3.09108 27.688 6.31139 28.6154 9.6983Z" fill="#424242"/>
<path d="M106.437 35.1615L108.286 23.3453H108.409V35.1615H112V16.3217H107.335L104.995 29.561L102.668 16.3217H98.01V35.1615H101.603V23.3453H101.725L103.568 35.1627L106.437 35.1615Z" fill="#424242"/>
<path fill-rule="evenodd" clip-rule="evenodd" d="M82.8119 16.3217H77.1784V35.1615H80.7624V28.7581H82.8119C85.3232 28.7581 85.721 26.711 85.721 25.3873V19.6874C85.721 18.3687 85.3232 16.3217 82.8119 16.3217ZM82.3759 25.7403C82.3759 26.3357 82.0976 26.6825 81.7071 26.6825H80.7624V18.6608H81.7071C82.0976 18.6608 82.3759 19.01 82.3759 19.6017V25.7403Z" fill="#424242"/>
<path d="M74.5821 16.3217H66.2848V35.1615H69.6273V18.6608H71.2371V35.1615H74.5821V16.3217Z" fill="#424242"/>
<path d="M59.2153 32.1089V28.5642H55.6225V31.7932C55.6225 33.1157 55.7814 35.1615 58.2877 35.1615H61.2622C63.7723 35.1615 63.9261 33.1157 63.9261 31.7932V28.0024C63.9261 27.3287 63.8965 25.3873 61.4889 25.447V25.2556C62.5663 25.3078 63.9261 24.746 63.9261 22.7052V19.6874C63.9261 18.3687 63.7723 16.3217 61.2622 16.3217H58.2877C55.7814 16.3217 55.6225 18.3687 55.6225 19.6874V22.3497H59.2153V19.2785C59.2153 18.7951 59.5674 18.6608 59.7757 18.6608C60.1045 18.6608 60.3359 18.9541 60.3359 19.2785V23.0259C60.3359 24.1718 59.9775 24.4229 58.9527 24.4229H57.4441V26.4935H58.901C60.2362 26.4935 60.3359 27.1411 60.3359 27.729V32.1089C60.3359 32.4358 60.1045 32.7316 59.7757 32.7316C59.5674 32.7316 59.2153 32.5974 59.2153 32.1089Z" fill="#424242"/>
<path fill-rule="evenodd" clip-rule="evenodd" d="M52.2072 16.3217H46.5713L44.7055 35.1615H48.2069L48.547 30.1526H50.2378L50.5691 35.1615H54.0793L52.2072 16.3217ZM49.4892 18.6608L50.1035 28.0819H48.67L49.2909 18.6608H49.4892Z" fill="#424242"/>
<path d="M44.1757 16.3217H37.3328V35.1615H40.9183V18.6608H44.1757V16.3217Z" fill="#424242"/>
<path fill-rule="evenodd" clip-rule="evenodd" d="M95.8941 19.6874C95.8941 18.3687 95.7364 16.3217 93.2239 16.3217H90.2571C87.7493 16.3217 87.598 18.3687 87.598 19.6874V31.7932C87.598 33.1157 87.7493 35.1615 90.2571 35.1615H93.2239C95.7364 35.1615 95.8941 33.1157 95.8941 31.7932V19.6874ZM92.5367 32.0828C92.5367 32.4979 92.1771 32.8323 91.7449 32.8323C91.3039 32.8323 90.9455 32.4979 90.9455 32.0828L90.9503 32.0579V19.3158C90.9985 18.9479 91.3285 18.6546 91.7386 18.6546C92.1512 18.6546 92.4923 18.9479 92.5307 19.3158L92.5367 19.3754V32.0828Z" fill="#424242"/>
</svg>
