<svg width="54" height="54" viewBox="0 0 54 54" fill="none" xmlns="http://www.w3.org/2000/svg">
<g clip-path="url(#clip0_1372_2060)">
<path d="M54 54H0V0H54V54ZM43.0088 37.1123C41.5511 37.1123 40.292 37.3219 39.2539 37.7305C38.2047 38.1502 37.3875 38.8467 36.8242 39.8076C36.283 40.7242 36.0065 41.9609 35.9844 43.4629V43.6064L36.1504 43.6182L35.9844 43.6289V43.7725C36.0065 45.2746 36.283 46.5119 36.8242 47.4287C37.3875 48.3895 38.2048 49.0852 39.2539 49.5049C40.2921 49.9135 41.551 50.124 43.0088 50.124C44.3893 50.124 45.6161 49.9802 46.5439 49.7041C47.5047 49.4169 48.2668 48.953 48.8301 48.3125C49.4376 47.6166 49.7908 46.7323 49.8682 45.7051H46.8311V45.6943C46.7537 46.1913 46.5546 46.5999 46.2344 46.9092C45.9362 47.1963 45.5276 47.4068 45.0195 47.5283C44.5225 47.6388 43.782 47.7051 43.0088 47.7051C42.2027 47.705 41.496 47.6053 40.8887 47.3955C40.3033 47.1967 39.8389 46.8434 39.5186 46.3574C39.1872 45.8714 39.0215 45.1638 39.0215 44.2471V42.9775C39.0215 42.0718 39.1872 41.3642 39.5186 40.8672C39.8499 40.3813 40.3033 40.0279 40.8887 39.8291C41.485 39.6194 42.2028 39.5205 43.0088 39.5205C43.782 39.5205 44.5225 39.5868 45.0195 39.6973C45.5275 39.8188 45.9362 40.0173 46.2344 40.3154C46.5546 40.6247 46.7537 41.0333 46.8311 41.5303H49.8682C49.7798 40.5031 49.4375 39.6307 48.8301 38.9238C48.2779 38.2833 47.5047 37.8194 46.5439 37.5322C45.6161 37.2561 44.3893 37.1123 43.0088 37.1123ZM4.15332 16.6123H7.20215V7.69824L11.0791 15.2314H13.8506L17.7275 7.69824V16.6123H20.7656V4.15332H16.4355L12.459 12.3926L8.49414 4.15332H4.15332V16.6123ZM35.9736 6.6377H41.4082V16.6123H44.4453V6.6377H49.8682V4.15332H35.9736V6.6377Z" fill="#424242"/>
</g>
<defs>
<clipPath id="clip0_1372_2060">
<rect width="54" height="54" fill="white"/>
</clipPath>
</defs>
</svg>
