<svg width="265" height="40" viewBox="0 0 265 40" fill="none" xmlns="http://www.w3.org/2000/svg">
<path d="M213.06 7.98573V32.2517H218.342V22.3377H229.602V32.2517H234.884V7.98573H229.602V17.9357H218.342V7.98573H213.06Z" fill="#424242"/>
<path d="M246.779 22.4657H250.064L258.172 32.2517H265L254.193 19.7037L263.636 7.98773H257.564L249.695 18.3857H246.779V7.98773H241.495V32.2517H246.779V22.4657Z" fill="#424242"/>
<path d="M203.98 32.2497H209.541L199.228 7.98573H193.84L183.279 32.2497H188.63L190.753 27.3637H201.98L203.98 32.2497ZM192.333 23.3157L196.425 13.5737L200.271 23.3157H192.333Z" fill="#424242"/>
<path d="M172.232 17.4437H165.803V12.0257H179.619L179.631 7.98573H160.52V32.2497H171.55C177.736 32.2497 181.285 29.4717 181.285 24.6277C181.285 19.9957 178.069 17.4437 172.232 17.4437ZM171.311 28.2097H165.803V21.4837H171.311C174.665 21.4837 176.227 22.6097 176.227 24.8477C176.227 27.1337 174.572 28.2097 171.311 28.2097Z" fill="#424242"/>
<path d="M118.487 12.0257L124.016 7.98573H105.507V32.2517H124.016V28.2117H110.789V21.9997H122.073V17.9597H110.789V12.0257H118.487Z" fill="#424242"/>
<path d="M91.5356 17.4437H85.1069V12.0257H95.3674L100.898 7.98573H79.8243V32.2517H90.8536C97.0402 32.2517 100.587 29.4717 100.587 24.6277C100.587 19.9957 97.3731 17.4437 91.5356 17.4437ZM90.6155 28.2097H85.1069V21.4837H90.6155C93.967 21.4837 95.5288 22.6097 95.5288 24.8477C95.5288 27.1337 93.8762 28.2097 90.6155 28.2097Z" fill="#424242"/>
<path d="M139.012 7.98573H128.936V32.2497H134.216V25.3777H139.012C145.443 25.3777 149.438 22.0257 149.438 16.6697C149.438 11.3137 145.443 7.98573 139.012 7.98573ZM138.895 21.3377H134.216V12.0257H138.895C142.281 12.0257 144.142 13.6797 144.142 16.6817C144.142 19.6837 142.279 21.3377 138.895 21.3377Z" fill="#424242"/>
<path d="M70.7563 26.9977C69.3565 27.7493 67.788 28.1387 66.1961 28.1297C61.434 28.1297 57.9775 24.7597 57.9775 20.1177C57.9775 15.4757 61.434 12.1157 66.1961 12.1157C67.9173 12.0909 69.6012 12.6138 71.0004 13.6077L74.7899 10.8397L74.5397 10.6217C72.3201 8.69573 69.3721 7.67773 65.9922 7.67773C62.3259 7.67773 58.9985 8.90173 56.6236 11.1277C54.2486 13.3537 52.9189 16.5137 52.9189 19.9937C52.9189 23.4737 54.2305 26.6857 56.6115 28.9937C58.9925 31.3017 62.3178 32.5817 65.9579 32.5817C69.7655 32.5817 73.0909 31.2657 75.3468 28.8717L71.9266 26.3737L70.7563 26.9977Z" fill="#424242"/>
<path d="M40.352 19.9997C40.3524 18.7986 40.2444 17.5998 40.0292 16.4177L35.6849 19.5897C35.6849 19.7257 35.6849 19.8637 35.6849 19.9897C35.6896 23.4313 34.5311 26.7753 32.3943 29.488C30.2575 32.2007 27.2655 34.1258 23.8959 34.956C20.5262 35.7862 16.9731 35.4738 13.8035 34.0684C10.6339 32.6631 8.03066 30.246 6.40909 27.2028C4.78753 24.1595 4.24116 20.6656 4.85718 17.2787C5.4732 13.8917 7.2161 10.8068 9.80773 8.51641C12.3994 6.22601 15.6904 4.86207 19.1555 4.64226C22.6206 4.42246 26.0602 5.35946 28.9252 7.30373L32.8498 4.43573C29.2886 1.58724 24.8562 0.0231966 20.2801 0.000255995C15.704 -0.0226847 11.2559 1.49684 7.66573 4.30948C4.07558 7.12212 1.55665 11.0608 0.522257 15.4792C-0.512136 19.8977 -0.000540733 24.5334 1.97309 28.6257C3.94673 32.7179 7.26517 36.0237 11.3839 38.0006C15.5026 39.9774 20.1769 40.5079 24.6398 39.5049C29.1027 38.5019 33.0891 36.0251 35.9449 32.4809C38.8007 28.9367 40.3561 24.5355 40.3561 19.9997H40.352Z" fill="#424242"/>
<path d="M36.1409 7.77173C37.1002 8.99995 37.9127 10.3342 38.5622 11.7477L20.174 25.1797L12.4922 20.4057V14.6637L20.174 19.4357L36.1409 7.77173Z" fill="#424242"/>
</svg>
