<svg width="127" height="40" viewBox="0 0 127 40" fill="none" xmlns="http://www.w3.org/2000/svg">
<g clip-path="url(#clip0_1361_2306)">
<path fill-rule="evenodd" clip-rule="evenodd" d="M117.787 16.4271C117.61 15.3003 116.796 14.6676 115.757 14.2945C113.972 13.6531 112.125 13.6182 110.259 13.7698C108.534 13.9094 106.866 14.252 105.258 15.081C104.967 13.5028 104.676 11.9247 104.383 10.3467C105.798 9.65728 107.218 9.2722 108.678 9.01476C111.8 8.46388 114.929 8.3777 118.022 9.14457C121.285 9.95399 123.576 11.8019 124.209 15.201C124.365 16.041 124.358 17.3118 124.358 17.3118V24.9479C124.358 25.2795 124.399 25.9885 124.42 26.3191C124.536 28.0841 124.697 28.2564 126.54 28.5226V32.1573C124.721 32.6068 122.854 32.8435 121.005 31.9904C119.965 31.5105 119.486 30.6247 119.258 29.5775C119.229 29.4298 119.208 29.2804 119.197 29.1302L119.196 29.1269C119.187 29.0397 119.179 28.9437 119.165 28.8379C116.934 31.9784 113.74 32.7497 110.229 32.5566C106.296 32.3406 103.276 29.7553 102.72 26.7052C101.814 21.7418 104.373 18.0329 109.479 17.2857C112.707 16.8122 113.632 17.0129 117.804 18.4027C117.804 18.1922 117.812 17.9827 117.82 17.7744C117.838 17.3162 117.855 16.8657 117.787 16.4271ZM117.676 22.7389C116.605 22.0178 115.388 21.6393 114.115 21.4811C112.792 21.3164 111.486 21.4026 110.363 22.2512C109.334 23.0301 108.944 24.2672 109.322 25.5424C109.611 26.5231 110.632 27.291 111.835 27.4023C112.978 27.513 114.131 27.338 115.19 26.8929C117.112 26.0911 117.865 24.8257 117.676 22.7389ZM36.654 32.5839C33.3159 32.6035 30.3161 31.6534 27.8246 29.5011C25.0625 27.1143 23.9716 24.0075 23.9989 20.4862C24.0229 17.5649 24.8258 14.9076 26.8384 12.6626C28.6438 10.65 30.9411 9.45219 33.6236 8.90786C36.99 8.22389 40.2309 8.60787 43.2133 10.2529C46.9746 12.3288 48.8323 15.5806 49.0614 19.7205C49.2632 23.3617 48.3633 26.642 45.5707 29.2589C43.0944 31.5814 40.0553 32.549 36.654 32.5839ZM36.7347 14.4723C33.9072 14.54 31.924 16.0094 31.1648 18.4289C30.699 19.9201 30.7284 21.3993 31.1931 22.8905C31.8695 25.0558 33.3639 26.3856 35.6417 26.7325C37.9488 27.0816 39.9309 26.342 41.1919 24.385C42.6264 22.1563 42.6537 19.7761 41.5094 17.4187C40.5298 15.3996 38.7844 14.4952 36.7347 14.4723ZM83.9962 22.7661H87.2688L87.8033 22.8861L88.5712 24.2497C90.1432 27.0456 91.7151 29.8382 93.2608 32.5839H100.359C100.284 32.4017 100.221 32.2304 100.161 32.0679C100.041 31.7439 99.9336 31.457 99.7831 31.1963C98.5679 29.1062 97.3461 27.0227 96.1233 24.9391L96.1145 24.9249L96.1091 24.9162C95.4415 23.7763 94.7728 22.6374 94.1063 21.4975C93.9895 21.3011 93.8859 21.0982 93.7736 20.8779L93.7714 20.8735L93.6121 20.5648C98.221 17.8594 99.1788 13.5156 99.0446 8.58496H92.7231C92.7231 10.5191 92.4034 11.6568 92.0282 12.9942L91.8831 13.5189C91.3889 15.3265 90.1595 16.5341 88.4054 17.146C87.4324 17.4842 86.3939 17.4242 85.3292 17.362C84.8855 17.3314 84.4409 17.3146 83.9962 17.3118V8.58496H77.451V32.5631L83.9962 32.585V22.7672V22.7661ZM66.6122 8.58496H73.0876V32.5839H66.549V24.8879C66.1628 24.9773 65.7876 25.0733 65.4188 25.1682C64.6367 25.3689 63.8829 25.562 63.1171 25.6656C60.15 26.0671 57.3225 25.7016 54.903 23.6541C53.03 22.0702 51.9336 19.9463 51.602 17.5366C51.3773 15.9024 51.3577 13.7567 51.3391 11.6012C51.3304 10.5823 51.3206 9.56128 51.29 8.59151L57.8155 8.58496V15.1301C57.8155 17.6991 60.0791 19.7259 62.5433 19.7619C64.0651 19.7837 64.9541 19.4128 66.5359 18.4092L66.6122 8.58496ZM7.63602 32.5839H14.1812V15.1301H21.8172V8.58496H0V15.1301H7.63602V32.5839Z" fill="#424242"/>
</g>
<defs>
<clipPath id="clip0_1361_2306">
<rect width="127" height="40" fill="white"/>
</clipPath>
</defs>
</svg>
