<?xml version="1.0" encoding="UTF-8"?>
<svg id="Layer_1" data-name="Layer 1" xmlns="http://www.w3.org/2000/svg" version="1.1" viewBox="0 0 431.4 534.8">
  <defs>
    <style>
      .cls-1 {
        fill: #2e2f30;
        stroke-width: 0px;
      }
    </style>
  </defs>
  <g>
    <rect class="cls-1" x="320.9" y="66.1" width="5" height="287.5"/>
    <g>
      <path class="cls-1" d="M269.6,422.5h-37.5v6c0,15.4-3,20.1-13.7,20.1v28.2h7c18.2-14.4,32.6-32.2,44.1-54.2Z"/>
      <path class="cls-1" d="M220.5,480.6h-2v1.4c.7-.5,1.3-1,2-1.4Z"/>
      <path class="cls-1" d="M262.8,443.7c-8.5,12.5-18.2,23.4-29.3,33,19.9-.9,28.9-11.1,29.3-33Z"/>
      <polygon class="cls-1" points="430.5 403.3 365.2 403.3 365.2 398.6 423.7 398.6 423.7 384.6 365.2 384.6 365.2 379.9 430.5 379.9 430.5 364.5 327.3 364.5 327.3 418.7 430.5 418.7 430.5 403.3"/>
      <polygon class="cls-1" points="214.6 437.9 214.6 422.5 114.8 422.5 114.8 476.7 214.6 476.7 214.6 461.4 153.2 461.4 153.2 456.7 207.8 456.7 207.8 442.6 153.2 442.6 153.2 437.9 214.6 437.9"/>
      <path class="cls-1" d="M323.4,476.7v-54.2h-48.2c-3.4,6.8-7.1,13.2-11.1,19.2h20.9v35h38.4Z"/>
      <path class="cls-1" d="M323.4,364.5h-27.1c-3.3,13.2-7.2,25.4-11.6,36.7h.3v17.5h38.4v-54.2Z"/>
      <path class="cls-1" d="M258.6,401.2h20.8c4.5-11.3,8.4-23.5,11.8-36.7h-2.9l-3.2,17.5h-26.5v-17.5h-38.4v54.2h38.4v-17.5Z"/>
      <path class="cls-1" d="M72.5,529c13.7-1.8,26.5-3.7,38.4-6v-39.8h-38.4v16.2h-34.1v-16.2H0v51.6h38.4v-16.2h34.1v10.4Z"/>
      <path class="cls-1" d="M114.8,522.2c34.9-6.9,62.6-16.3,85.3-28.7,5.1-2.8,9.9-5.7,14.5-8.8v-4.1h-38.4l-25.6,25.6v-25.6h-35.8v41.6Z"/>
      <path class="cls-1" d="M202.5,497.9c-23.4,12.8-51.8,22.4-87.7,29.4v7.5h38.4l25.6-25.6v25.6h35.8v-44.1c-3.9,2.5-7.9,4.9-12.1,7.2Z"/>
      <path class="cls-1" d="M396.4,432.8h-30.7v-10.2h-38.4v54.2h69.1c24.3,0,35-6.8,35-22.2s-10.7-21.8-35-21.8ZM382.7,458.8h-17.1v-8.1h17.1c7.3,0,10.2,1.3,10.2,4.3s-3,3.8-10.2,3.8Z"/>
      <path class="cls-1" d="M72.5,534v.8h38.4v-6.7c-12,2.3-24.7,4.2-38.4,6Z"/>
      <path class="cls-1" d="M323.4,480.6h-41l-12.8,17.5h-12.8v-17.5h-28.1c-3.3,2.6-6.7,5.1-10.3,7.5v46.6h38.4v-17.5h12.8l12.8,17.5h43.5l-23-29,20.5-25.2Z"/>
      <path class="cls-1" d="M163,420c37.5,0,54.6-8.5,54.6-28.2s-17.1-28.6-54.6-28.6-54.6,8.5-54.6,28.6,17.5,28.2,54.6,28.2ZM163,383.3c12.4,0,18.8,2.6,18.8,8.1s-6.4,8.1-18.8,8.1-18.3-2.1-18.3-8.1,6.4-8.1,18.3-8.1Z"/>
      <polygon class="cls-1" points="38.4 383.7 67.4 383.7 67.4 418.7 105.8 418.7 105.8 364.5 0 364.5 0 418.7 38.4 418.7 38.4 383.7"/>
      <path class="cls-1" d="M38.4,474.2h34.1v6.4h38.4v-24.3h-5.1v-33.7H10.2C10.2,448.1,7.7,456.3,0,456.3v24.3h38.4v-6.4ZM42.2,440.5h25.6v15.8h-28.2c1.7-3.4,2.6-10.2,2.6-15.8Z"/>
    </g>
    <path class="cls-1" d="M308.6,66.1c0,172.6-6.2,279.1-39.2,347.9-16.4,34.2-39,58.3-71.2,76-30.6,16.8-70.6,27.9-125.7,35v5c56-7.2,96.7-18.5,128.1-35.6,33.2-18.2,56.5-43,73.3-78.2,33.4-69.7,39.7-176.8,39.7-350.1h-5Z"/>
  </g>
  <polygon class="cls-1" points="327 21.4 317.7 0 308.5 21.4 285.3 23.6 302.7 39 297.7 61.7 317.7 49.9 337.8 61.7 332.7 39 350.2 23.6 327 21.4"/>
</svg>