<?xml version="1.0" encoding="UTF-8"?>
<svg id="Layer_1" data-name="Layer 1" xmlns="http://www.w3.org/2000/svg" version="1.1" viewBox="0 0 470.2 161.6">
  <defs>
    <style>
      .cls-1 {
        fill: #2e2f30;
        stroke-width: 0px;
      }
    </style>
  </defs>
  <path class="cls-1" d="M459.3,46.9V0h-136.1c0,35.6-3.6,46.9-14.6,46.9v33.9h54.7v-8.9h48.6v8.9h54.7v-33.9h-7.3ZM405.2,46.9h-40.1c2.4-4.8,3.6-14.3,3.6-22h36.4v22Z"/>
  <polyline class="cls-1" points="54.7 77.2 54.7 27.3 96 27.3 96 77.2 150.7 77.2 150.7 0 0 0 0 77.2 54.7 77.2"/>
  <polyline class="cls-1" points="248.5 52.2 248.5 77.2 303.1 77.2 303.1 0 248.5 0 248.5 24.9 210.8 24.9 210.8 0 156.1 0 156.1 77.2 210.8 77.2 210.8 52.2 248.5 52.2"/>
  <polyline class="cls-1" points="248.5 134.9 248.5 159.8 303.1 159.8 303.1 82.6 248.5 82.6 248.5 107.5 210.8 107.5 210.8 82.6 156.1 82.6 156.1 159.8 210.8 159.8 210.8 134.9 248.5 134.9"/>
  <path class="cls-1" d="M17,159.8c32.2,0,46.2-15.2,46.2-49.8h32.8v49.8h54.7v-77.2H19.4v8.5c0,21.9-4.3,28.6-19.4,28.6v40.1h17"/>
  <polyline class="cls-1" points="408.2 86.3 390 110 363.3 110 363.3 86.3 308.6 86.3 308.6 159.8 363.3 159.8 363.3 136 390 136 408.2 159.8 470.2 159.8 437.4 120.4 466.5 86.3 408.2 86.3"/>
</svg>
